G04*
G04 #@! TF.GenerationSoftware,Altium Limited,Altium Designer,23.4.1 (23)*
G04*
G04 Layer_Color=65535*
%FSLAX44Y44*%
%MOMM*%
G71*
G04*
G04 #@! TF.SameCoordinates,0F4FC61B-9208-49F5-852E-2E7A0A34B3BB*
G04*
G04*
G04 #@! TF.FilePolarity,Positive*
G04*
G01*
G75*
%ADD10C,0.2000*%
%ADD11C,0.1500*%
%ADD12C,0.1270*%
%ADD13C,0.2540*%
D10*
X340090Y373450D02*
G03*
X340090Y373450I-1000J0D01*
G01*
X98790Y83130D02*
G03*
X98790Y83130I-1000J0D01*
G01*
X299700Y193040D02*
G03*
X299700Y193040I-1000J0D01*
G01*
X400570Y314730D02*
Y419330D01*
X427470D01*
Y314730D02*
Y419330D01*
X400570Y314730D02*
X427470D01*
X49900Y324860D02*
X127900D01*
X49900D02*
Y355860D01*
X127900D01*
Y324860D02*
Y355860D01*
Y340360D02*
X134400D01*
X43400D02*
X49900D01*
X64250Y101370D02*
Y205970D01*
X37350Y101370D02*
X64250D01*
X37350D02*
Y205970D01*
X64250D01*
X60710Y371850D02*
X138710D01*
X60710D02*
Y402850D01*
X138710D01*
Y371850D02*
Y402850D01*
Y387350D02*
X145210D01*
X54210D02*
X60710D01*
X48630Y284220D02*
X126630D01*
X48630D02*
Y315220D01*
X126630D01*
Y284220D02*
Y315220D01*
Y299720D02*
X133130D01*
X42130D02*
X48630D01*
X208650Y328670D02*
X286650D01*
X208650D02*
Y359670D01*
X286650D01*
Y328670D02*
Y359670D01*
Y344170D02*
X293150D01*
X202150D02*
X208650D01*
Y399040D02*
X286650D01*
Y368040D02*
Y399040D01*
X208650Y368040D02*
X286650D01*
X208650D02*
Y399040D01*
X202150Y383540D02*
X208650D01*
X286650D02*
X293150D01*
X361200Y314730D02*
Y419330D01*
X388100D01*
Y314730D02*
Y419330D01*
X361200Y314730D02*
X388100D01*
D11*
X206570Y50800D02*
G03*
X206570Y50800I-27500J0D01*
G01*
X251020Y233680D02*
G03*
X251020Y233680I-27500J0D01*
G01*
D12*
X339090Y280355D02*
X350890D01*
X327290D02*
X339090D01*
X327290Y326705D02*
X339090D01*
X350890D01*
X327290Y280355D02*
Y326705D01*
X350890Y280355D02*
Y326705D01*
X339090Y262710D02*
Y280355D01*
Y326705D02*
Y344350D01*
X259240Y100680D02*
X272440D01*
Y166680D01*
X259240D02*
X272440D01*
X75540D02*
X88740D01*
X75540Y100680D02*
Y166680D01*
Y100680D02*
X88740D01*
X316250Y202090D02*
Y215290D01*
X382250D01*
Y202090D02*
Y215290D01*
Y18390D02*
Y31590D01*
X316250Y18390D02*
X382250D01*
X316250D02*
Y31590D01*
D13*
X307342Y285753D02*
X322578D01*
Y293371D01*
X320038Y295910D01*
X309882D01*
X307342Y293371D01*
Y285753D01*
X322578Y300988D02*
Y306067D01*
Y303528D01*
X307342D01*
X309882Y300988D01*
X180344Y309883D02*
Y325117D01*
X187962D01*
X190501Y322578D01*
Y317500D01*
X187962Y314961D01*
X180344D01*
X185422D02*
X190501Y309883D01*
X203197D02*
Y325117D01*
X195579Y317500D01*
X205736D01*
X339094Y236217D02*
Y223522D01*
X341633Y220982D01*
X346712D01*
X349251Y223522D01*
Y236217D01*
X364486Y220982D02*
X354329D01*
X364486Y231139D01*
Y233678D01*
X361947Y236217D01*
X356868D01*
X354329Y233678D01*
X92713Y79068D02*
Y66372D01*
X95253Y63833D01*
X100331D01*
X102870Y66372D01*
Y79068D01*
X107948Y63833D02*
X113027D01*
X110488D01*
Y79068D01*
X107948Y76528D01*
X406403Y308594D02*
X421638D01*
Y300977D01*
X419098Y298438D01*
X414020D01*
X411481Y300977D01*
Y308594D01*
X406403Y290820D02*
Y285742D01*
X408942Y283203D01*
X414020D01*
X416559Y285742D01*
Y290820D01*
X414020Y293359D01*
X408942D01*
X406403Y290820D01*
X416559Y278124D02*
X406403D01*
X411481D01*
X414020Y275585D01*
X416559Y273046D01*
Y270507D01*
X419098Y260350D02*
X416559D01*
Y262889D01*
Y257811D01*
Y260350D01*
X408942D01*
X406403Y257811D01*
X421638Y234958D02*
Y229880D01*
Y232419D01*
X406403D01*
Y234958D01*
Y229880D01*
Y222262D02*
X421638D01*
X406403Y212106D01*
X421638D01*
X13972Y21629D02*
X29207D01*
X24129Y26708D01*
X29207Y31786D01*
X13972D01*
X29207Y36865D02*
Y41943D01*
Y39404D01*
X19051D01*
Y36865D01*
Y49560D02*
X29207D01*
X24129D01*
X21590Y52100D01*
X19051Y54639D01*
Y57178D01*
X29207Y72413D02*
Y67335D01*
X26668Y64795D01*
X21590D01*
X19051Y67335D01*
Y72413D01*
X21590Y74952D01*
X24129D01*
Y64795D01*
X29207Y80030D02*
Y85109D01*
Y82570D01*
X13972D01*
Y80030D01*
X29207Y100344D02*
Y95266D01*
X26668Y92726D01*
X21590D01*
X19051Y95266D01*
Y100344D01*
X21590Y102883D01*
X24129D01*
Y92726D01*
X29207Y107962D02*
Y115579D01*
X26668Y118118D01*
X24129Y115579D01*
Y110501D01*
X21590Y107962D01*
X19051Y110501D01*
Y118118D01*
X29207Y123197D02*
Y130814D01*
X26668Y133353D01*
X24129Y130814D01*
Y125736D01*
X21590Y123197D01*
X19051Y125736D01*
Y133353D01*
Y153667D02*
X29207D01*
X24129D01*
X21590Y156206D01*
X19051Y158745D01*
Y161284D01*
X29207Y176519D02*
Y171441D01*
X26668Y168902D01*
X21590D01*
X19051Y171441D01*
Y176519D01*
X21590Y179058D01*
X24129D01*
Y168902D01*
X19051Y194294D02*
Y186676D01*
X21590Y184137D01*
X26668D01*
X29207Y186676D01*
Y194294D01*
Y199372D02*
Y204450D01*
Y201911D01*
X19051D01*
Y199372D01*
X29207Y219685D02*
Y214607D01*
X26668Y212068D01*
X21590D01*
X19051Y214607D01*
Y219685D01*
X21590Y222225D01*
X24129D01*
Y212068D01*
X19051Y227303D02*
X29207Y232381D01*
X19051Y237460D01*
X29207Y250156D02*
Y245077D01*
X26668Y242538D01*
X21590D01*
X19051Y245077D01*
Y250156D01*
X21590Y252695D01*
X24129D01*
Y242538D01*
X19051Y257773D02*
X29207D01*
X24129D01*
X21590Y260312D01*
X19051Y262851D01*
Y265391D01*
X185424Y405132D02*
Y420368D01*
X193042D01*
X195581Y417828D01*
Y412750D01*
X193042Y410211D01*
X185424D01*
X190502D02*
X195581Y405132D01*
X210816Y420368D02*
X200659D01*
Y412750D01*
X205737Y415289D01*
X208277D01*
X210816Y412750D01*
Y407672D01*
X208277Y405132D01*
X203198D01*
X200659Y407672D01*
X19054Y351792D02*
Y367028D01*
X26672D01*
X29211Y364488D01*
Y359410D01*
X26672Y356871D01*
X19054D01*
X24132D02*
X29211Y351792D01*
X34289Y364488D02*
X36828Y367028D01*
X41907D01*
X44446Y364488D01*
Y361949D01*
X41907Y359410D01*
X39367D01*
X41907D01*
X44446Y356871D01*
Y354332D01*
X41907Y351792D01*
X36828D01*
X34289Y354332D01*
X36834Y408942D02*
Y424178D01*
X44452D01*
X46991Y421638D01*
Y416560D01*
X44452Y414021D01*
X36834D01*
X41912D02*
X46991Y408942D01*
X62226D02*
X52069D01*
X62226Y419099D01*
Y421638D01*
X59687Y424178D01*
X54608D01*
X52069Y421638D01*
X76203Y261623D02*
Y276857D01*
X83821D01*
X86360Y274318D01*
Y269240D01*
X83821Y266701D01*
X76203D01*
X81282D02*
X86360Y261623D01*
X91438D02*
X96517D01*
X93978D01*
Y276857D01*
X91438Y274318D01*
X246399Y421642D02*
Y436878D01*
X254016D01*
X256555Y434338D01*
Y429260D01*
X254016Y426721D01*
X246399D01*
X264173Y421642D02*
X269251D01*
X271790Y424182D01*
Y429260D01*
X269251Y431799D01*
X264173D01*
X261634Y429260D01*
Y424182D01*
X264173Y421642D01*
X276869Y431799D02*
Y421642D01*
Y426721D01*
X279408Y429260D01*
X281947Y431799D01*
X284486D01*
X294643Y434338D02*
Y431799D01*
X292104D01*
X297182D01*
X294643D01*
Y424182D01*
X297182Y421642D01*
X327652Y436878D02*
X322574D01*
X320035Y434338D01*
Y424182D01*
X322574Y421642D01*
X327652D01*
X330191Y424182D01*
Y434338D01*
X327652Y436878D01*
X335270D02*
Y424182D01*
X337809Y421642D01*
X342887D01*
X345426Y424182D01*
Y436878D01*
X350505D02*
X360662D01*
X355583D01*
Y421642D01*
X202091Y279398D02*
X199552Y281938D01*
X194473D01*
X191934Y279398D01*
Y269242D01*
X194473Y266702D01*
X199552D01*
X202091Y269242D01*
X217326Y266702D02*
X207169D01*
X217326Y276859D01*
Y279398D01*
X214787Y281938D01*
X209708D01*
X207169Y279398D01*
X218440Y34288D02*
X215901Y36827D01*
X210823D01*
X208283Y34288D01*
Y24132D01*
X210823Y21593D01*
X215901D01*
X218440Y24132D01*
X223518Y21593D02*
X228597D01*
X226058D01*
Y36827D01*
X223518Y34288D01*
M02*
