G04*
G04 #@! TF.GenerationSoftware,Altium Limited,Altium Designer,23.4.1 (23)*
G04*
G04 Layer_Color=8388736*
%FSLAX44Y44*%
%MOMM*%
G71*
G04*
G04 #@! TF.SameCoordinates,0F4FC61B-9208-49F5-852E-2E7A0A34B3BB*
G04*
G04*
G04 #@! TF.FilePolarity,Negative*
G04*
G01*
G75*
%ADD14R,1.7932X1.7932*%
%ADD15C,1.7932*%
%ADD16C,1.7272*%
%ADD17C,1.3732*%
%ADD18R,1.3732X1.3732*%
%ADD19C,1.8032*%
%ADD20R,1.8032X1.8032*%
%ADD21R,1.3732X1.3732*%
%ADD22R,1.4000X1.4000*%
%ADD23C,1.4000*%
%ADD24R,1.2000X1.2000*%
%ADD25C,1.2000*%
D14*
X339090Y355500D02*
D03*
D15*
Y251560D02*
D03*
D16*
X21590Y420370D02*
D03*
X426720Y20320D02*
D03*
D17*
X97790Y173380D02*
D03*
X123190D02*
D03*
X148590D02*
D03*
X173990D02*
D03*
X199390D02*
D03*
X224790D02*
D03*
X250190D02*
D03*
Y93980D02*
D03*
X224790D02*
D03*
X199390D02*
D03*
X173990D02*
D03*
X148590D02*
D03*
X123190D02*
D03*
X309550Y167640D02*
D03*
Y142240D02*
D03*
Y116840D02*
D03*
Y91440D02*
D03*
Y66040D02*
D03*
Y40640D02*
D03*
X388950D02*
D03*
Y66040D02*
D03*
Y91440D02*
D03*
Y116840D02*
D03*
Y142240D02*
D03*
Y167640D02*
D03*
Y193040D02*
D03*
D18*
X97790Y93980D02*
D03*
D19*
X414020Y379730D02*
D03*
Y354330D02*
D03*
Y328930D02*
D03*
X50800Y140970D02*
D03*
Y166370D02*
D03*
Y191770D02*
D03*
X374650Y379730D02*
D03*
Y354330D02*
D03*
Y328930D02*
D03*
D20*
X414020Y405130D02*
D03*
X50800Y115570D02*
D03*
X374650Y405130D02*
D03*
D21*
X309550Y193040D02*
D03*
D22*
X145400Y340360D02*
D03*
X156210Y387350D02*
D03*
X144130Y299720D02*
D03*
X304150Y344170D02*
D03*
X191150Y383540D02*
D03*
D23*
X32400Y340360D02*
D03*
X43210Y387350D02*
D03*
X31130Y299720D02*
D03*
X191150Y344170D02*
D03*
X304150Y383540D02*
D03*
D24*
X189070Y50800D02*
D03*
X233520Y233680D02*
D03*
D25*
X169070Y50800D02*
D03*
X213520Y233680D02*
D03*
M02*
