G04*
G04 #@! TF.GenerationSoftware,Altium Limited,Altium Designer,23.4.1 (23)*
G04*
G04 Layer_Physical_Order=1*
G04 Layer_Color=255*
%FSLAX44Y44*%
%MOMM*%
G71*
G04*
G04 #@! TF.SameCoordinates,0F4FC61B-9208-49F5-852E-2E7A0A34B3BB*
G04*
G04*
G04 #@! TF.FilePolarity,Positive*
G04*
G01*
G75*
%ADD22R,1.4000X1.4000*%
%ADD23C,1.4000*%
%ADD24R,1.2000X1.2000*%
%ADD25C,1.2000*%
%ADD26C,1.2000*%
%ADD27R,1.5900X1.5900*%
%ADD28C,1.5900*%
%ADD29C,1.5240*%
%ADD30C,1.1700*%
%ADD31R,1.1700X1.1700*%
%ADD32C,1.6000*%
%ADD33R,1.6000X1.6000*%
%ADD34R,1.1700X1.1700*%
G36*
X438150Y399820D02*
X436977Y399334D01*
X429735Y406575D01*
X427438Y408339D01*
X427020Y408511D01*
Y418130D01*
X401020D01*
Y392130D01*
X406958D01*
X407298Y390860D01*
X406038Y390133D01*
X403617Y387712D01*
X401906Y384748D01*
X401020Y381441D01*
Y378018D01*
X401906Y374712D01*
X403617Y371748D01*
X406038Y369327D01*
X408833Y367714D01*
X408924Y367030D01*
X408833Y366346D01*
X406038Y364733D01*
X403617Y362312D01*
X401906Y359348D01*
X401020Y356041D01*
Y352618D01*
X401906Y349312D01*
X403617Y346348D01*
X406038Y343927D01*
X409002Y342216D01*
X412309Y341330D01*
X415732D01*
X419038Y342216D01*
X420825Y343248D01*
X421925Y342613D01*
Y337590D01*
X420752Y337104D01*
X420492Y337364D01*
X418088Y338752D01*
X415408Y339470D01*
X415290D01*
Y328930D01*
Y318390D01*
X415408D01*
X418088Y319108D01*
X420492Y320496D01*
X420752Y320756D01*
X421925Y320270D01*
Y32100D01*
X421849Y32080D01*
X420697Y31415D01*
X396865D01*
X396339Y32685D01*
X397632Y33978D01*
X399061Y36452D01*
X399800Y39212D01*
Y42068D01*
X399061Y44828D01*
X397632Y47302D01*
X395612Y49322D01*
X393138Y50751D01*
X390378Y51490D01*
X387522D01*
X384762Y50751D01*
X382288Y49322D01*
X380268Y47302D01*
X378839Y44828D01*
X378100Y42068D01*
Y39212D01*
X378839Y36452D01*
X380268Y33978D01*
X381561Y32685D01*
X381035Y31415D01*
X334466D01*
X317395Y48485D01*
X317395Y48485D01*
X311788Y54092D01*
X312168Y55509D01*
X313738Y55929D01*
X316212Y57358D01*
X318232Y59378D01*
X319661Y61852D01*
X320400Y64612D01*
Y67468D01*
X319661Y70228D01*
X318232Y72702D01*
X316212Y74722D01*
X313738Y76151D01*
X310978Y76890D01*
X308122D01*
X305362Y76151D01*
X302888Y74722D01*
X300868Y72702D01*
X299439Y70228D01*
X299019Y68658D01*
X297602Y68278D01*
X264055Y101825D01*
X261758Y103588D01*
X259082Y104697D01*
X256210Y105075D01*
X250190D01*
X247318Y104697D01*
X244643Y103588D01*
X242345Y101825D01*
X240581Y99528D01*
X239473Y96852D01*
X239095Y93980D01*
X239473Y91108D01*
X240581Y88433D01*
X242345Y86135D01*
X244643Y84372D01*
X247318Y83263D01*
X250190Y82885D01*
X251614D01*
X301705Y32795D01*
X301705Y32795D01*
X321800Y12700D01*
X321481Y11430D01*
X6350D01*
Y430530D01*
X6253Y430627D01*
X6739Y431800D01*
X17121D01*
X17374Y430530D01*
X16042Y429978D01*
X13745Y428215D01*
X11982Y425918D01*
X10873Y423242D01*
X10495Y420370D01*
X10873Y417498D01*
X11982Y414823D01*
X13745Y412525D01*
X16042Y410761D01*
X18718Y409653D01*
X21590Y409275D01*
X118594D01*
X146670Y381199D01*
Y377810D01*
X150573D01*
X150663Y377742D01*
X153338Y376633D01*
X156210Y376255D01*
X159082Y376633D01*
X161758Y377742D01*
X161847Y377810D01*
X165750D01*
Y381713D01*
X165819Y381802D01*
X166927Y384478D01*
X167305Y387350D01*
X166927Y390221D01*
X165819Y392897D01*
X165750Y392987D01*
Y396890D01*
X162361D01*
X131035Y428215D01*
X128737Y429978D01*
X127406Y430530D01*
X127659Y431800D01*
X438150D01*
Y399820D01*
D02*
G37*
%LPC*%
G36*
X44790Y399350D02*
X41630D01*
X38578Y398532D01*
X35842Y396952D01*
X33608Y394718D01*
X32028Y391982D01*
X31210Y388930D01*
Y385770D01*
X32028Y382718D01*
X33608Y379982D01*
X35842Y377748D01*
X38578Y376168D01*
X41630Y375350D01*
X44790D01*
X47842Y376168D01*
X50578Y377748D01*
X52812Y379982D01*
X54392Y382718D01*
X55210Y385770D01*
Y388930D01*
X54392Y391982D01*
X52812Y394718D01*
X50578Y396952D01*
X47842Y398532D01*
X44790Y399350D01*
D02*
G37*
G36*
X203150Y395540D02*
X179150D01*
Y371540D01*
X203150D01*
Y395540D01*
D02*
G37*
G36*
X313690Y353710D02*
X305420D01*
Y345440D01*
X313690D01*
Y353710D01*
D02*
G37*
G36*
X302880D02*
X294610D01*
Y345440D01*
X302880D01*
Y353710D01*
D02*
G37*
G36*
X352040Y368450D02*
X326140D01*
Y342550D01*
X352040D01*
Y368450D01*
D02*
G37*
G36*
X387650Y418130D02*
X361650D01*
Y392130D01*
X367588D01*
X367928Y390860D01*
X366668Y390133D01*
X364247Y387712D01*
X362536Y384748D01*
X361650Y381441D01*
Y378018D01*
X362536Y374712D01*
X364247Y371748D01*
X366668Y369327D01*
X369463Y367714D01*
X369554Y367030D01*
X369463Y366346D01*
X366668Y364733D01*
X364247Y362312D01*
X362536Y359348D01*
X361650Y356041D01*
Y352618D01*
X362536Y349312D01*
X364247Y346348D01*
X366668Y343927D01*
X369632Y342216D01*
X372938Y341330D01*
X376362D01*
X379668Y342216D01*
X382632Y343927D01*
X385053Y346348D01*
X386764Y349312D01*
X387650Y352618D01*
Y356041D01*
X386764Y359348D01*
X385053Y362312D01*
X382632Y364733D01*
X379837Y366346D01*
X379746Y367030D01*
X379837Y367714D01*
X382632Y369327D01*
X385053Y371748D01*
X386764Y374712D01*
X387650Y378018D01*
Y381441D01*
X386764Y384748D01*
X385053Y387712D01*
X382632Y390133D01*
X381372Y390860D01*
X381712Y392130D01*
X387650D01*
Y418130D01*
D02*
G37*
G36*
X313690Y342900D02*
X305420D01*
Y334630D01*
X313690D01*
Y342900D01*
D02*
G37*
G36*
X302880D02*
X294610D01*
Y334630D01*
X302880D01*
Y342900D01*
D02*
G37*
G36*
X192730Y356170D02*
X189570D01*
X186518Y355352D01*
X183782Y353772D01*
X181548Y351538D01*
X179968Y348802D01*
X179150Y345750D01*
Y342590D01*
X179968Y339538D01*
X181548Y336802D01*
X183782Y334568D01*
X186518Y332988D01*
X189570Y332170D01*
X192730D01*
X195782Y332988D01*
X198518Y334568D01*
X200752Y336802D01*
X202332Y339538D01*
X203150Y342590D01*
Y345750D01*
X202332Y348802D01*
X200752Y351538D01*
X198518Y353772D01*
X195782Y355352D01*
X192730Y356170D01*
D02*
G37*
G36*
X376038Y339470D02*
X375920D01*
Y330200D01*
X385190D01*
Y330318D01*
X384472Y332998D01*
X383084Y335402D01*
X381122Y337364D01*
X378718Y338752D01*
X376038Y339470D01*
D02*
G37*
G36*
X412750D02*
X412632D01*
X409952Y338752D01*
X407548Y337364D01*
X405586Y335402D01*
X404198Y332998D01*
X403480Y330318D01*
Y330200D01*
X412750D01*
Y339470D01*
D02*
G37*
G36*
X373380D02*
X373262D01*
X370582Y338752D01*
X368178Y337364D01*
X366216Y335402D01*
X364828Y332998D01*
X364110Y330318D01*
Y330200D01*
X373380D01*
Y339470D01*
D02*
G37*
G36*
X157400Y352360D02*
X133400D01*
Y328360D01*
X157400D01*
Y352360D01*
D02*
G37*
G36*
X33980D02*
X30820D01*
X27768Y351542D01*
X25032Y349962D01*
X22798Y347728D01*
X21218Y344992D01*
X20400Y341940D01*
Y338780D01*
X21218Y335728D01*
X22798Y332992D01*
X25032Y330758D01*
X27768Y329178D01*
X30820Y328360D01*
X33980D01*
X37032Y329178D01*
X39768Y330758D01*
X42002Y332992D01*
X43582Y335728D01*
X44400Y338780D01*
Y341940D01*
X43582Y344992D01*
X42002Y347728D01*
X39768Y349962D01*
X37032Y351542D01*
X33980Y352360D01*
D02*
G37*
G36*
X412750Y327660D02*
X403480D01*
Y327542D01*
X404198Y324862D01*
X405586Y322458D01*
X407548Y320496D01*
X409952Y319108D01*
X412632Y318390D01*
X412750D01*
Y327660D01*
D02*
G37*
G36*
X385190D02*
X375920D01*
Y318390D01*
X376038D01*
X378718Y319108D01*
X381122Y320496D01*
X383084Y322458D01*
X384472Y324862D01*
X385190Y327542D01*
Y327660D01*
D02*
G37*
G36*
X373380D02*
X364110D01*
Y327542D01*
X364828Y324862D01*
X366216Y322458D01*
X368178Y320496D01*
X370582Y319108D01*
X373262Y318390D01*
X373380D01*
Y327660D01*
D02*
G37*
G36*
X156130Y311720D02*
X132130D01*
Y287720D01*
X156130D01*
Y311720D01*
D02*
G37*
G36*
X244520Y244680D02*
X222520D01*
Y242032D01*
X221250Y241506D01*
X220274Y242482D01*
X217766Y243930D01*
X214968Y244680D01*
X212072D01*
X209274Y243930D01*
X206766Y242482D01*
X204718Y240434D01*
X203270Y237926D01*
X202520Y235128D01*
Y232232D01*
X203270Y229434D01*
X204718Y226926D01*
X206766Y224878D01*
X209274Y223430D01*
X212072Y222680D01*
X214968D01*
X217766Y223430D01*
X220274Y224878D01*
X221250Y225854D01*
X222520Y225328D01*
Y222680D01*
X244520D01*
Y244680D01*
D02*
G37*
G36*
X340795Y264510D02*
X337385D01*
X334091Y263627D01*
X331138Y261923D01*
X328727Y259512D01*
X327023Y256558D01*
X326140Y253265D01*
Y249855D01*
X327023Y246562D01*
X328727Y243608D01*
X331138Y241197D01*
X334091Y239492D01*
X337385Y238610D01*
X340795D01*
X344089Y239492D01*
X347042Y241197D01*
X349453Y243608D01*
X351157Y246562D01*
X352040Y249855D01*
Y253265D01*
X351157Y256558D01*
X349453Y259512D01*
X347042Y261923D01*
X344089Y263627D01*
X340795Y264510D01*
D02*
G37*
G36*
X390220Y201386D02*
Y194310D01*
X397296D01*
X396768Y196278D01*
X395664Y198192D01*
X394102Y199754D01*
X392188Y200858D01*
X390220Y201386D01*
D02*
G37*
G36*
X387680D02*
X385712Y200858D01*
X383798Y199754D01*
X382236Y198192D01*
X381132Y196278D01*
X380604Y194310D01*
X387680D01*
Y201386D01*
D02*
G37*
G36*
X397296Y191770D02*
X390220D01*
Y184694D01*
X392188Y185222D01*
X394102Y186326D01*
X395664Y187888D01*
X396768Y189802D01*
X397296Y191770D01*
D02*
G37*
G36*
X387680D02*
X380604D01*
X381132Y189802D01*
X382236Y187888D01*
X383798Y186326D01*
X385712Y185222D01*
X387680Y184694D01*
Y191770D01*
D02*
G37*
G36*
X305730Y395540D02*
X302570D01*
X299518Y394722D01*
X296782Y393142D01*
X294548Y390908D01*
X292968Y388172D01*
X292923Y388003D01*
X265205Y360285D01*
X263442Y357987D01*
X262333Y355312D01*
X261955Y352440D01*
Y229540D01*
X262333Y226668D01*
X263442Y223993D01*
X265205Y221695D01*
X298700Y188199D01*
Y182190D01*
X307690D01*
X309550Y181945D01*
X311410Y182190D01*
X320400D01*
Y191180D01*
X320645Y193040D01*
X320400Y194900D01*
Y203890D01*
X314391D01*
X284145Y234136D01*
Y347844D01*
X308613Y372313D01*
X308782Y372358D01*
X311518Y373938D01*
X313752Y376172D01*
X315332Y378908D01*
X316150Y381960D01*
Y385120D01*
X315332Y388172D01*
X313752Y390908D01*
X311518Y393142D01*
X308782Y394722D01*
X305730Y395540D01*
D02*
G37*
G36*
X96520Y181726D02*
X94552Y181198D01*
X92638Y180094D01*
X91076Y178532D01*
X89972Y176618D01*
X89444Y174650D01*
X96520D01*
Y181726D01*
D02*
G37*
G36*
X52188Y176910D02*
X52070D01*
Y167640D01*
X61340D01*
Y167758D01*
X60622Y170438D01*
X59234Y172842D01*
X57272Y174804D01*
X54868Y176192D01*
X52188Y176910D01*
D02*
G37*
G36*
X251618Y184230D02*
X248762D01*
X246002Y183491D01*
X243528Y182062D01*
X241508Y180042D01*
X240079Y177568D01*
X239340Y174808D01*
Y171952D01*
X240079Y169192D01*
X241508Y166718D01*
X243528Y164698D01*
X246002Y163269D01*
X248762Y162530D01*
X251618D01*
X254378Y163269D01*
X256852Y164698D01*
X258872Y166718D01*
X260301Y169192D01*
X261040Y171952D01*
Y174808D01*
X260301Y177568D01*
X258872Y180042D01*
X256852Y182062D01*
X254378Y183491D01*
X251618Y184230D01*
D02*
G37*
G36*
X226218D02*
X223362D01*
X220602Y183491D01*
X218128Y182062D01*
X216108Y180042D01*
X214679Y177568D01*
X213940Y174808D01*
Y171952D01*
X214679Y169192D01*
X216108Y166718D01*
X218128Y164698D01*
X220602Y163269D01*
X223362Y162530D01*
X226218D01*
X228978Y163269D01*
X231452Y164698D01*
X233472Y166718D01*
X234901Y169192D01*
X235640Y171952D01*
Y174808D01*
X234901Y177568D01*
X233472Y180042D01*
X231452Y182062D01*
X228978Y183491D01*
X226218Y184230D01*
D02*
G37*
G36*
X200818D02*
X197962D01*
X195202Y183491D01*
X192728Y182062D01*
X190708Y180042D01*
X189279Y177568D01*
X188540Y174808D01*
Y171952D01*
X189279Y169192D01*
X190708Y166718D01*
X192728Y164698D01*
X195202Y163269D01*
X197962Y162530D01*
X200818D01*
X203578Y163269D01*
X206052Y164698D01*
X208072Y166718D01*
X209501Y169192D01*
X210240Y171952D01*
Y174808D01*
X209501Y177568D01*
X208072Y180042D01*
X206052Y182062D01*
X203578Y183491D01*
X200818Y184230D01*
D02*
G37*
G36*
X175418D02*
X172562D01*
X169802Y183491D01*
X167328Y182062D01*
X165308Y180042D01*
X163879Y177568D01*
X163140Y174808D01*
Y171952D01*
X163879Y169192D01*
X165308Y166718D01*
X167328Y164698D01*
X169802Y163269D01*
X172562Y162530D01*
X175418D01*
X178178Y163269D01*
X180652Y164698D01*
X182672Y166718D01*
X184101Y169192D01*
X184840Y171952D01*
Y174808D01*
X184101Y177568D01*
X182672Y180042D01*
X180652Y182062D01*
X178178Y183491D01*
X175418Y184230D01*
D02*
G37*
G36*
X150018D02*
X147162D01*
X144402Y183491D01*
X141928Y182062D01*
X139908Y180042D01*
X138479Y177568D01*
X137740Y174808D01*
Y171952D01*
X138479Y169192D01*
X139908Y166718D01*
X141928Y164698D01*
X144402Y163269D01*
X147162Y162530D01*
X150018D01*
X152778Y163269D01*
X155252Y164698D01*
X157272Y166718D01*
X158701Y169192D01*
X159440Y171952D01*
Y174808D01*
X158701Y177568D01*
X157272Y180042D01*
X155252Y182062D01*
X152778Y183491D01*
X150018Y184230D01*
D02*
G37*
G36*
X390378Y178490D02*
X387522D01*
X384762Y177751D01*
X382288Y176322D01*
X380268Y174302D01*
X378839Y171828D01*
X378100Y169068D01*
Y166212D01*
X378839Y163452D01*
X380268Y160978D01*
X382288Y158958D01*
X384762Y157529D01*
X387522Y156790D01*
X390378D01*
X393138Y157529D01*
X395612Y158958D01*
X397632Y160978D01*
X399061Y163452D01*
X399800Y166212D01*
Y169068D01*
X399061Y171828D01*
X397632Y174302D01*
X395612Y176322D01*
X393138Y177751D01*
X390378Y178490D01*
D02*
G37*
G36*
X310978D02*
X308122D01*
X305362Y177751D01*
X302888Y176322D01*
X300868Y174302D01*
X299439Y171828D01*
X298700Y169068D01*
Y166212D01*
X299439Y163452D01*
X300868Y160978D01*
X302888Y158958D01*
X305362Y157529D01*
X308122Y156790D01*
X310978D01*
X313738Y157529D01*
X316212Y158958D01*
X318232Y160978D01*
X319661Y163452D01*
X320400Y166212D01*
Y169068D01*
X319661Y171828D01*
X318232Y174302D01*
X316212Y176322D01*
X313738Y177751D01*
X310978Y178490D01*
D02*
G37*
G36*
X61340Y165100D02*
X52070D01*
Y155830D01*
X52188D01*
X54868Y156548D01*
X57272Y157936D01*
X59234Y159898D01*
X60622Y162302D01*
X61340Y164982D01*
Y165100D01*
D02*
G37*
G36*
X390378Y153090D02*
X387522D01*
X384762Y152351D01*
X382288Y150922D01*
X380268Y148902D01*
X378839Y146428D01*
X378100Y143668D01*
Y140812D01*
X378839Y138052D01*
X380268Y135578D01*
X382288Y133558D01*
X384762Y132129D01*
X387522Y131390D01*
X390378D01*
X393138Y132129D01*
X395612Y133558D01*
X397632Y135578D01*
X399061Y138052D01*
X399800Y140812D01*
Y143668D01*
X399061Y146428D01*
X397632Y148902D01*
X395612Y150922D01*
X393138Y152351D01*
X390378Y153090D01*
D02*
G37*
G36*
X310978D02*
X308122D01*
X305362Y152351D01*
X302888Y150922D01*
X300868Y148902D01*
X299439Y146428D01*
X298700Y143668D01*
Y140812D01*
X299439Y138052D01*
X300868Y135578D01*
X302888Y133558D01*
X305362Y132129D01*
X308122Y131390D01*
X310978D01*
X313738Y132129D01*
X316212Y133558D01*
X318232Y135578D01*
X319661Y138052D01*
X320400Y140812D01*
Y143668D01*
X319661Y146428D01*
X318232Y148902D01*
X316212Y150922D01*
X313738Y152351D01*
X310978Y153090D01*
D02*
G37*
G36*
X390378Y127690D02*
X387522D01*
X384762Y126951D01*
X382288Y125522D01*
X380268Y123502D01*
X378839Y121028D01*
X378100Y118268D01*
Y115412D01*
X378839Y112652D01*
X380268Y110178D01*
X382288Y108158D01*
X384762Y106729D01*
X387522Y105990D01*
X390378D01*
X393138Y106729D01*
X395612Y108158D01*
X397632Y110178D01*
X399061Y112652D01*
X399800Y115412D01*
Y118268D01*
X399061Y121028D01*
X397632Y123502D01*
X395612Y125522D01*
X393138Y126951D01*
X390378Y127690D01*
D02*
G37*
G36*
X310978D02*
X308122D01*
X305362Y126951D01*
X302888Y125522D01*
X300868Y123502D01*
X299439Y121028D01*
X298700Y118268D01*
Y115412D01*
X299439Y112652D01*
X300868Y110178D01*
X302888Y108158D01*
X305362Y106729D01*
X308122Y105990D01*
X310978D01*
X313738Y106729D01*
X316212Y108158D01*
X318232Y110178D01*
X319661Y112652D01*
X320400Y115412D01*
Y118268D01*
X319661Y121028D01*
X318232Y123502D01*
X316212Y125522D01*
X313738Y126951D01*
X310978Y127690D01*
D02*
G37*
G36*
X32710Y311720D02*
X29550D01*
X26498Y310902D01*
X23762Y309322D01*
X21528Y307088D01*
X19948Y304352D01*
X19130Y301300D01*
Y298140D01*
X19948Y295088D01*
X20035Y294937D01*
Y133770D01*
X20413Y130898D01*
X21521Y128223D01*
X23285Y125925D01*
X37800Y111409D01*
Y102570D01*
X63800D01*
Y128570D01*
X59427D01*
X58801Y129840D01*
X58828Y129875D01*
X90780D01*
X93652Y130253D01*
X96327Y131362D01*
X98625Y133125D01*
X131035Y165535D01*
X132799Y167833D01*
X133907Y170508D01*
X134285Y173380D01*
X133907Y176252D01*
X132799Y178927D01*
X131035Y181225D01*
X128737Y182988D01*
X126062Y184097D01*
X123190Y184475D01*
X120318Y184097D01*
X117643Y182988D01*
X115345Y181225D01*
X107450Y173330D01*
X106180Y173857D01*
Y174485D01*
X105608Y176618D01*
X104504Y178532D01*
X102942Y180094D01*
X101028Y181198D01*
X99060Y181726D01*
Y173380D01*
X97790D01*
Y172110D01*
X89444D01*
X89972Y170142D01*
X91076Y168228D01*
X92638Y166666D01*
X94552Y165562D01*
X96685Y164990D01*
X97313D01*
X97839Y163720D01*
X86184Y152065D01*
X57583D01*
X55818Y153084D01*
X52512Y153970D01*
X49089D01*
X45782Y153084D01*
X43495Y151763D01*
X42225Y152497D01*
Y158243D01*
X43495Y158769D01*
X44328Y157936D01*
X46732Y156548D01*
X49412Y155830D01*
X49530D01*
Y166370D01*
Y176910D01*
X49412D01*
X46732Y176192D01*
X44328Y174804D01*
X43495Y173971D01*
X42225Y174497D01*
Y180243D01*
X43495Y180977D01*
X45782Y179656D01*
X49089Y178770D01*
X52512D01*
X55818Y179656D01*
X58782Y181367D01*
X61203Y183788D01*
X62914Y186752D01*
X63800Y190058D01*
Y193482D01*
X62914Y196788D01*
X61203Y199752D01*
X58782Y202173D01*
X55818Y203884D01*
X52512Y204770D01*
X49089D01*
X45782Y203884D01*
X43495Y202563D01*
X42225Y203297D01*
Y294937D01*
X42312Y295088D01*
X43130Y298140D01*
Y301300D01*
X42312Y304352D01*
X40732Y307088D01*
X38498Y309322D01*
X35762Y310902D01*
X32710Y311720D01*
D02*
G37*
G36*
X226218Y104830D02*
X223362D01*
X220602Y104091D01*
X218128Y102662D01*
X216108Y100642D01*
X214679Y98168D01*
X213940Y95408D01*
Y92552D01*
X214679Y89792D01*
X216108Y87318D01*
X218128Y85298D01*
X220602Y83869D01*
X223362Y83130D01*
X226218D01*
X228978Y83869D01*
X231452Y85298D01*
X233472Y87318D01*
X234901Y89792D01*
X235640Y92552D01*
Y95408D01*
X234901Y98168D01*
X233472Y100642D01*
X231452Y102662D01*
X228978Y104091D01*
X226218Y104830D01*
D02*
G37*
G36*
X200818D02*
X197962D01*
X195202Y104091D01*
X192728Y102662D01*
X190708Y100642D01*
X189279Y98168D01*
X188540Y95408D01*
Y92552D01*
X189279Y89792D01*
X190708Y87318D01*
X192728Y85298D01*
X195202Y83869D01*
X197962Y83130D01*
X200818D01*
X203578Y83869D01*
X206052Y85298D01*
X208072Y87318D01*
X209501Y89792D01*
X210240Y92552D01*
Y95408D01*
X209501Y98168D01*
X208072Y100642D01*
X206052Y102662D01*
X203578Y104091D01*
X200818Y104830D01*
D02*
G37*
G36*
X175418D02*
X172562D01*
X169802Y104091D01*
X167328Y102662D01*
X165308Y100642D01*
X163879Y98168D01*
X163140Y95408D01*
Y92552D01*
X163879Y89792D01*
X165308Y87318D01*
X167328Y85298D01*
X169802Y83869D01*
X172562Y83130D01*
X175418D01*
X178178Y83869D01*
X180652Y85298D01*
X182672Y87318D01*
X184101Y89792D01*
X184840Y92552D01*
Y95408D01*
X184101Y98168D01*
X182672Y100642D01*
X180652Y102662D01*
X178178Y104091D01*
X175418Y104830D01*
D02*
G37*
G36*
X150018D02*
X147162D01*
X144402Y104091D01*
X141928Y102662D01*
X139908Y100642D01*
X138479Y98168D01*
X137740Y95408D01*
Y92552D01*
X138479Y89792D01*
X139908Y87318D01*
X141928Y85298D01*
X144402Y83869D01*
X147162Y83130D01*
X150018D01*
X152778Y83869D01*
X155252Y85298D01*
X157272Y87318D01*
X158701Y89792D01*
X159440Y92552D01*
Y95408D01*
X158701Y98168D01*
X157272Y100642D01*
X155252Y102662D01*
X152778Y104091D01*
X150018Y104830D01*
D02*
G37*
G36*
X124618D02*
X121762D01*
X119002Y104091D01*
X116528Y102662D01*
X114508Y100642D01*
X113079Y98168D01*
X112340Y95408D01*
Y92552D01*
X113079Y89792D01*
X114508Y87318D01*
X116528Y85298D01*
X119002Y83869D01*
X121762Y83130D01*
X124618D01*
X127378Y83869D01*
X129852Y85298D01*
X131872Y87318D01*
X133301Y89792D01*
X134040Y92552D01*
Y95408D01*
X133301Y98168D01*
X131872Y100642D01*
X129852Y102662D01*
X127378Y104091D01*
X124618Y104830D01*
D02*
G37*
G36*
X108640D02*
X86940D01*
Y83130D01*
X108640D01*
Y104830D01*
D02*
G37*
G36*
X390378Y102290D02*
X387522D01*
X384762Y101551D01*
X382288Y100122D01*
X380268Y98102D01*
X378839Y95628D01*
X378100Y92868D01*
Y90012D01*
X378839Y87252D01*
X380268Y84778D01*
X382288Y82758D01*
X384762Y81329D01*
X387522Y80590D01*
X390378D01*
X393138Y81329D01*
X395612Y82758D01*
X397632Y84778D01*
X399061Y87252D01*
X399800Y90012D01*
Y92868D01*
X399061Y95628D01*
X397632Y98102D01*
X395612Y100122D01*
X393138Y101551D01*
X390378Y102290D01*
D02*
G37*
G36*
X310978D02*
X308122D01*
X305362Y101551D01*
X302888Y100122D01*
X300868Y98102D01*
X299439Y95628D01*
X298700Y92868D01*
Y90012D01*
X299439Y87252D01*
X300868Y84778D01*
X302888Y82758D01*
X305362Y81329D01*
X308122Y80590D01*
X310978D01*
X313738Y81329D01*
X316212Y82758D01*
X318232Y84778D01*
X319661Y87252D01*
X320400Y90012D01*
Y92868D01*
X319661Y95628D01*
X318232Y98102D01*
X316212Y100122D01*
X313738Y101551D01*
X310978Y102290D01*
D02*
G37*
G36*
X200070Y61800D02*
X178070D01*
Y59152D01*
X176800Y58626D01*
X175824Y59602D01*
X173316Y61050D01*
X170518Y61800D01*
X167622D01*
X164824Y61050D01*
X162316Y59602D01*
X160268Y57554D01*
X158820Y55046D01*
X158070Y52248D01*
Y49352D01*
X158820Y46554D01*
X160268Y44046D01*
X162316Y41998D01*
X164824Y40550D01*
X167622Y39800D01*
X170518D01*
X173316Y40550D01*
X175824Y41998D01*
X176800Y42974D01*
X178070Y42448D01*
Y39800D01*
X200070D01*
Y61800D01*
D02*
G37*
G36*
X390378Y76890D02*
X387522D01*
X384762Y76151D01*
X382288Y74722D01*
X380268Y72702D01*
X378839Y70228D01*
X378100Y67468D01*
Y64612D01*
X378839Y61852D01*
X380268Y59378D01*
X382288Y57358D01*
X384762Y55929D01*
X387522Y55190D01*
X390378D01*
X393138Y55929D01*
X395612Y57358D01*
X397632Y59378D01*
X399061Y61852D01*
X399800Y64612D01*
Y67468D01*
X399061Y70228D01*
X397632Y72702D01*
X395612Y74722D01*
X393138Y76151D01*
X390378Y76890D01*
D02*
G37*
%LPD*%
D22*
X145400Y340360D02*
D03*
X156210Y387350D02*
D03*
X144130Y299720D02*
D03*
X304150Y344170D02*
D03*
X191150Y383540D02*
D03*
D23*
X32400Y340360D02*
D03*
X43210Y387350D02*
D03*
X31130Y299720D02*
D03*
X191150Y344170D02*
D03*
X304150Y383540D02*
D03*
D24*
X189070Y50800D02*
D03*
X233520Y233680D02*
D03*
D25*
X169070Y50800D02*
D03*
X213520Y233680D02*
D03*
D26*
X21590Y420370D02*
X123190D01*
X156210Y387350D01*
X414020Y405130D02*
X420420Y398730D01*
X421890D01*
X433020Y387600D01*
Y27497D02*
Y387600D01*
X426720Y21197D02*
X433020Y27497D01*
X426720Y20320D02*
Y21197D01*
X309550Y40640D02*
X329870Y20320D01*
X426720D01*
X256210Y93980D02*
X309550Y40640D01*
X250190Y93980D02*
X256210D01*
X90780Y140970D02*
X123190Y173380D01*
X50800Y140970D02*
X90780D01*
X31130Y133770D02*
Y299720D01*
Y133770D02*
X47330Y117570D01*
X48800D01*
X50800Y115570D01*
X273050Y229540D02*
X309550Y193040D01*
X273050Y229540D02*
Y352440D01*
X304150Y383540D01*
D27*
X339090Y355500D02*
D03*
D28*
Y251560D02*
D03*
D29*
X21590Y420370D02*
D03*
X426720Y20320D02*
D03*
D30*
X97790Y173380D02*
D03*
X123190D02*
D03*
X148590D02*
D03*
X173990D02*
D03*
X199390D02*
D03*
X224790D02*
D03*
X250190D02*
D03*
Y93980D02*
D03*
X224790D02*
D03*
X199390D02*
D03*
X173990D02*
D03*
X148590D02*
D03*
X123190D02*
D03*
X309550Y167640D02*
D03*
Y142240D02*
D03*
Y116840D02*
D03*
Y91440D02*
D03*
Y66040D02*
D03*
Y40640D02*
D03*
X388950D02*
D03*
Y66040D02*
D03*
Y91440D02*
D03*
Y116840D02*
D03*
Y142240D02*
D03*
Y167640D02*
D03*
Y193040D02*
D03*
D31*
X97790Y93980D02*
D03*
D32*
X414020Y379730D02*
D03*
Y354330D02*
D03*
Y328930D02*
D03*
X50800Y140970D02*
D03*
Y166370D02*
D03*
Y191770D02*
D03*
X374650Y379730D02*
D03*
Y354330D02*
D03*
Y328930D02*
D03*
D33*
X414020Y405130D02*
D03*
X50800Y115570D02*
D03*
X374650Y405130D02*
D03*
D34*
X309550Y193040D02*
D03*
M02*
