G04*
G04 #@! TF.GenerationSoftware,Altium Limited,Altium Designer,23.4.1 (23)*
G04*
G04 Layer_Color=16711935*
%FSLAX44Y44*%
%MOMM*%
G71*
G04*
G04 #@! TF.SameCoordinates,0F4FC61B-9208-49F5-852E-2E7A0A34B3BB*
G04*
G04*
G04 #@! TF.FilePolarity,Positive*
G04*
G01*
G75*
%ADD10C,0.2000*%
G36*
X80884Y340351D02*
X80958Y340342D01*
X81041Y340332D01*
X81134Y340314D01*
X81236Y340295D01*
X81457Y340240D01*
X81688Y340147D01*
X81809Y340092D01*
X81920Y340027D01*
X82031Y339944D01*
X82142Y339861D01*
X82151Y339852D01*
X82169Y339833D01*
X82197Y339805D01*
X82225Y339768D01*
X82271Y339722D01*
X82317Y339657D01*
X82373Y339593D01*
X82428Y339510D01*
X82484Y339417D01*
X82539Y339325D01*
X82641Y339103D01*
X82724Y338844D01*
X82752Y338705D01*
X82770Y338557D01*
X81984Y338456D01*
Y338465D01*
X81975Y338483D01*
X81966Y338520D01*
X81957Y338566D01*
X81947Y338622D01*
X81929Y338687D01*
X81883Y338825D01*
X81818Y338992D01*
X81735Y339149D01*
X81642Y339297D01*
X81531Y339426D01*
X81513Y339436D01*
X81476Y339473D01*
X81402Y339519D01*
X81309Y339565D01*
X81199Y339620D01*
X81060Y339667D01*
X80903Y339704D01*
X80736Y339713D01*
X80681D01*
X80644Y339704D01*
X80542Y339694D01*
X80413Y339667D01*
X80265Y339620D01*
X80107Y339556D01*
X79950Y339463D01*
X79802Y339334D01*
X79784Y339315D01*
X79738Y339260D01*
X79682Y339177D01*
X79608Y339066D01*
X79534Y338927D01*
X79479Y338770D01*
X79433Y338585D01*
X79414Y338382D01*
Y338372D01*
Y338354D01*
Y338326D01*
X79423Y338289D01*
X79433Y338187D01*
X79460Y338067D01*
X79497Y337919D01*
X79562Y337771D01*
X79654Y337623D01*
X79775Y337485D01*
X79793Y337466D01*
X79839Y337429D01*
X79913Y337374D01*
X80015Y337309D01*
X80145Y337244D01*
X80302Y337189D01*
X80477Y337152D01*
X80672Y337133D01*
X80755D01*
X80819Y337143D01*
X80903Y337152D01*
X80995Y337170D01*
X81106Y337189D01*
X81226Y337217D01*
X81134Y336523D01*
X81088D01*
X81051Y336532D01*
X80930D01*
X80829Y336514D01*
X80709Y336495D01*
X80570Y336468D01*
X80413Y336422D01*
X80265Y336357D01*
X80107Y336273D01*
X80098D01*
X80089Y336264D01*
X80043Y336227D01*
X79978Y336163D01*
X79904Y336079D01*
X79830Y335959D01*
X79765Y335821D01*
X79719Y335663D01*
X79701Y335571D01*
Y335469D01*
Y335460D01*
Y335451D01*
Y335395D01*
X79719Y335321D01*
X79738Y335219D01*
X79775Y335109D01*
X79821Y334988D01*
X79895Y334868D01*
X79997Y334757D01*
X80006Y334748D01*
X80052Y334711D01*
X80117Y334665D01*
X80200Y334609D01*
X80311Y334563D01*
X80440Y334517D01*
X80588Y334480D01*
X80755Y334471D01*
X80829D01*
X80912Y334489D01*
X81023Y334508D01*
X81143Y334545D01*
X81263Y334591D01*
X81393Y334665D01*
X81513Y334757D01*
X81522Y334767D01*
X81559Y334813D01*
X81615Y334877D01*
X81679Y334970D01*
X81744Y335090D01*
X81809Y335238D01*
X81864Y335414D01*
X81901Y335617D01*
X82687Y335478D01*
Y335469D01*
X82678Y335441D01*
X82669Y335404D01*
X82659Y335349D01*
X82641Y335284D01*
X82613Y335210D01*
X82558Y335035D01*
X82465Y334831D01*
X82354Y334628D01*
X82215Y334434D01*
X82040Y334258D01*
X82031Y334249D01*
X82012Y334240D01*
X81984Y334221D01*
X81947Y334193D01*
X81901Y334156D01*
X81836Y334119D01*
X81772Y334082D01*
X81688Y334036D01*
X81504Y333962D01*
X81291Y333888D01*
X81041Y333842D01*
X80912Y333823D01*
X80681D01*
X80579Y333833D01*
X80459Y333851D01*
X80311Y333879D01*
X80145Y333925D01*
X79978Y333981D01*
X79812Y334055D01*
X79802D01*
X79793Y334064D01*
X79738Y334092D01*
X79654Y334147D01*
X79562Y334212D01*
X79451Y334304D01*
X79340Y334406D01*
X79229Y334526D01*
X79137Y334665D01*
X79127Y334683D01*
X79100Y334729D01*
X79063Y334813D01*
X79016Y334914D01*
X78970Y335035D01*
X78933Y335173D01*
X78906Y335331D01*
X78896Y335488D01*
Y335506D01*
Y335562D01*
X78906Y335636D01*
X78924Y335737D01*
X78952Y335858D01*
X78998Y335987D01*
X79054Y336116D01*
X79127Y336246D01*
X79137Y336264D01*
X79165Y336301D01*
X79220Y336366D01*
X79294Y336440D01*
X79386Y336523D01*
X79497Y336616D01*
X79627Y336699D01*
X79784Y336782D01*
X79775D01*
X79756Y336791D01*
X79728Y336800D01*
X79692Y336810D01*
X79590Y336847D01*
X79460Y336902D01*
X79312Y336976D01*
X79165Y337069D01*
X79026Y337189D01*
X78896Y337327D01*
X78887Y337346D01*
X78850Y337402D01*
X78795Y337494D01*
X78739Y337614D01*
X78684Y337762D01*
X78628Y337938D01*
X78591Y338141D01*
X78582Y338363D01*
Y338372D01*
Y338400D01*
Y338446D01*
X78591Y338502D01*
X78601Y338576D01*
X78619Y338659D01*
X78637Y338751D01*
X78656Y338853D01*
X78730Y339075D01*
X78785Y339195D01*
X78841Y339306D01*
X78915Y339426D01*
X78998Y339547D01*
X79090Y339667D01*
X79201Y339778D01*
X79211Y339787D01*
X79229Y339805D01*
X79266Y339833D01*
X79312Y339870D01*
X79368Y339916D01*
X79442Y339963D01*
X79525Y340018D01*
X79627Y340064D01*
X79728Y340120D01*
X79849Y340175D01*
X79969Y340221D01*
X80107Y340268D01*
X80255Y340305D01*
X80413Y340332D01*
X80570Y340351D01*
X80745Y340360D01*
X80829D01*
X80884Y340351D01*
D02*
G37*
G36*
X88900Y333851D02*
X85932D01*
X85858Y333860D01*
X85775D01*
X85581Y333870D01*
X85378Y333897D01*
X85156Y333925D01*
X84952Y333971D01*
X84851Y333999D01*
X84767Y334027D01*
X84758D01*
X84749Y334036D01*
X84693Y334064D01*
X84610Y334101D01*
X84508Y334165D01*
X84397Y334249D01*
X84277Y334360D01*
X84166Y334489D01*
X84055Y334637D01*
Y334646D01*
X84046Y334655D01*
X84009Y334711D01*
X83972Y334804D01*
X83917Y334924D01*
X83870Y335062D01*
X83824Y335229D01*
X83797Y335404D01*
X83787Y335599D01*
Y335608D01*
Y335626D01*
Y335663D01*
X83797Y335709D01*
Y335774D01*
X83806Y335839D01*
X83843Y335996D01*
X83898Y336181D01*
X83972Y336375D01*
X84083Y336569D01*
X84157Y336662D01*
X84231Y336754D01*
X84240Y336763D01*
X84249Y336773D01*
X84277Y336800D01*
X84314Y336828D01*
X84361Y336865D01*
X84416Y336902D01*
X84490Y336948D01*
X84564Y337004D01*
X84656Y337050D01*
X84758Y337096D01*
X84869Y337152D01*
X84989Y337198D01*
X85128Y337235D01*
X85267Y337281D01*
X85424Y337309D01*
X85590Y337337D01*
X85572Y337346D01*
X85535Y337365D01*
X85479Y337402D01*
X85405Y337439D01*
X85239Y337540D01*
X85156Y337605D01*
X85082Y337660D01*
X85063Y337679D01*
X85017Y337725D01*
X84943Y337799D01*
X84851Y337892D01*
X84749Y338021D01*
X84629Y338160D01*
X84508Y338326D01*
X84379Y338511D01*
X83279Y340249D01*
X84333D01*
X85174Y338918D01*
Y338909D01*
X85193Y338890D01*
X85211Y338862D01*
X85239Y338825D01*
X85303Y338724D01*
X85387Y338594D01*
X85488Y338456D01*
X85590Y338308D01*
X85692Y338169D01*
X85784Y338039D01*
X85794Y338030D01*
X85821Y337993D01*
X85868Y337938D01*
X85932Y337873D01*
X86071Y337734D01*
X86145Y337670D01*
X86219Y337614D01*
X86228Y337605D01*
X86247Y337596D01*
X86284Y337577D01*
X86339Y337549D01*
X86395Y337522D01*
X86459Y337494D01*
X86607Y337448D01*
X86616D01*
X86635Y337439D01*
X86672D01*
X86718Y337429D01*
X86783Y337420D01*
X86857D01*
X86959Y337411D01*
X88049D01*
Y340249D01*
X88900D01*
Y333851D01*
D02*
G37*
G36*
X176241Y52673D02*
X176324D01*
X176426Y52664D01*
X176537Y52646D01*
X176666Y52627D01*
X176934Y52581D01*
X177212Y52507D01*
X177489Y52405D01*
X177618Y52340D01*
X177748Y52266D01*
X177757Y52257D01*
X177776Y52248D01*
X177813Y52220D01*
X177850Y52183D01*
X177905Y52146D01*
X177970Y52091D01*
X178044Y52026D01*
X178118Y51952D01*
X178192Y51869D01*
X178275Y51786D01*
X178441Y51573D01*
X178598Y51323D01*
X178737Y51046D01*
Y51037D01*
X178756Y51009D01*
X178765Y50963D01*
X178793Y50907D01*
X178811Y50833D01*
X178839Y50741D01*
X178876Y50639D01*
X178904Y50528D01*
X178931Y50408D01*
X178968Y50269D01*
X179014Y49983D01*
X179051Y49659D01*
X179070Y49326D01*
Y49317D01*
Y49280D01*
Y49225D01*
X179061Y49160D01*
Y49067D01*
X179051Y48975D01*
X179042Y48855D01*
X179024Y48735D01*
X178978Y48467D01*
X178913Y48171D01*
X178820Y47875D01*
X178691Y47588D01*
X178682Y47579D01*
X178672Y47551D01*
X178654Y47514D01*
X178617Y47468D01*
X178580Y47403D01*
X178534Y47329D01*
X178414Y47163D01*
X178256Y46978D01*
X178071Y46793D01*
X177859Y46608D01*
X177609Y46451D01*
X177600Y46442D01*
X177572Y46432D01*
X177535Y46414D01*
X177489Y46386D01*
X177415Y46358D01*
X177341Y46331D01*
X177249Y46294D01*
X177147Y46257D01*
X177036Y46220D01*
X176916Y46183D01*
X176657Y46127D01*
X176361Y46081D01*
X176056Y46063D01*
X175963D01*
X175899Y46072D01*
X175816Y46081D01*
X175714Y46090D01*
X175612Y46100D01*
X175492Y46127D01*
X175242Y46183D01*
X174965Y46266D01*
X174826Y46322D01*
X174697Y46386D01*
X174567Y46469D01*
X174438Y46553D01*
X174429Y46562D01*
X174410Y46571D01*
X174373Y46599D01*
X174327Y46645D01*
X174281Y46691D01*
X174216Y46756D01*
X174151Y46830D01*
X174077Y46904D01*
X174003Y46996D01*
X173929Y47107D01*
X173846Y47218D01*
X173772Y47339D01*
X173708Y47477D01*
X173634Y47616D01*
X173578Y47764D01*
X173523Y47930D01*
X174355Y48124D01*
Y48115D01*
X174364Y48097D01*
X174382Y48060D01*
X174401Y48013D01*
X174419Y47958D01*
X174447Y47884D01*
X174521Y47736D01*
X174614Y47570D01*
X174725Y47403D01*
X174863Y47246D01*
X175011Y47107D01*
X175030Y47089D01*
X175085Y47052D01*
X175178Y47006D01*
X175298Y46941D01*
X175455Y46885D01*
X175631Y46830D01*
X175843Y46793D01*
X176074Y46784D01*
X176148D01*
X176195Y46793D01*
X176259D01*
X176333Y46802D01*
X176509Y46830D01*
X176703Y46867D01*
X176907Y46932D01*
X177119Y47024D01*
X177313Y47144D01*
X177323D01*
X177332Y47163D01*
X177397Y47209D01*
X177480Y47283D01*
X177582Y47394D01*
X177702Y47533D01*
X177813Y47690D01*
X177914Y47884D01*
X178007Y48097D01*
Y48106D01*
X178016Y48124D01*
X178025Y48152D01*
X178034Y48198D01*
X178053Y48254D01*
X178071Y48319D01*
X178099Y48476D01*
X178136Y48661D01*
X178173Y48864D01*
X178192Y49086D01*
X178201Y49326D01*
Y49335D01*
Y49363D01*
Y49409D01*
Y49465D01*
X178192Y49530D01*
Y49613D01*
X178182Y49705D01*
X178173Y49807D01*
X178145Y50029D01*
X178099Y50269D01*
X178044Y50510D01*
X177970Y50750D01*
Y50759D01*
X177960Y50778D01*
X177942Y50806D01*
X177924Y50852D01*
X177868Y50963D01*
X177785Y51092D01*
X177683Y51240D01*
X177554Y51397D01*
X177406Y51536D01*
X177230Y51665D01*
X177221D01*
X177202Y51675D01*
X177175Y51693D01*
X177138Y51712D01*
X177091Y51730D01*
X177036Y51758D01*
X176907Y51813D01*
X176740Y51869D01*
X176555Y51915D01*
X176352Y51952D01*
X176139Y51961D01*
X176074D01*
X176019Y51952D01*
X175954D01*
X175889Y51943D01*
X175723Y51906D01*
X175529Y51860D01*
X175335Y51786D01*
X175131Y51684D01*
X175030Y51628D01*
X174937Y51554D01*
X174928Y51545D01*
X174919Y51536D01*
X174891Y51508D01*
X174854Y51480D01*
X174817Y51434D01*
X174771Y51379D01*
X174715Y51323D01*
X174669Y51249D01*
X174614Y51166D01*
X174549Y51074D01*
X174493Y50981D01*
X174438Y50870D01*
X174392Y50750D01*
X174345Y50621D01*
X174299Y50482D01*
X174262Y50334D01*
X173412Y50547D01*
Y50556D01*
X173421Y50593D01*
X173439Y50648D01*
X173467Y50722D01*
X173495Y50806D01*
X173532Y50907D01*
X173578Y51018D01*
X173634Y51138D01*
X173763Y51397D01*
X173929Y51656D01*
X174031Y51786D01*
X174133Y51915D01*
X174244Y52026D01*
X174373Y52137D01*
X174382Y52146D01*
X174401Y52165D01*
X174447Y52183D01*
X174493Y52220D01*
X174567Y52266D01*
X174641Y52313D01*
X174743Y52359D01*
X174845Y52405D01*
X174965Y52461D01*
X175094Y52507D01*
X175233Y52553D01*
X175381Y52599D01*
X175538Y52636D01*
X175705Y52655D01*
X175880Y52673D01*
X176065Y52682D01*
X176167D01*
X176241Y52673D01*
D02*
G37*
G36*
X170518Y47570D02*
X170527Y47579D01*
X170573Y47616D01*
X170629Y47671D01*
X170721Y47736D01*
X170823Y47819D01*
X170952Y47912D01*
X171100Y48013D01*
X171267Y48115D01*
X171276D01*
X171285Y48124D01*
X171341Y48161D01*
X171433Y48208D01*
X171544Y48263D01*
X171674Y48328D01*
X171812Y48393D01*
X171951Y48457D01*
X172090Y48513D01*
Y47755D01*
X172080D01*
X172062Y47736D01*
X172025Y47727D01*
X171979Y47699D01*
X171923Y47671D01*
X171858Y47634D01*
X171701Y47542D01*
X171516Y47440D01*
X171331Y47311D01*
X171137Y47163D01*
X170943Y47006D01*
X170934Y46996D01*
X170925Y46987D01*
X170897Y46959D01*
X170860Y46932D01*
X170777Y46839D01*
X170666Y46728D01*
X170555Y46599D01*
X170435Y46451D01*
X170333Y46303D01*
X170240Y46146D01*
X169732D01*
Y52572D01*
X170518D01*
Y47570D01*
D02*
G37*
G36*
X220691Y235553D02*
X220774D01*
X220876Y235544D01*
X220987Y235525D01*
X221116Y235507D01*
X221384Y235461D01*
X221662Y235387D01*
X221939Y235285D01*
X222068Y235220D01*
X222198Y235146D01*
X222207Y235137D01*
X222226Y235128D01*
X222263Y235100D01*
X222300Y235063D01*
X222355Y235026D01*
X222420Y234971D01*
X222494Y234906D01*
X222568Y234832D01*
X222642Y234749D01*
X222725Y234666D01*
X222891Y234453D01*
X223048Y234203D01*
X223187Y233926D01*
Y233917D01*
X223206Y233889D01*
X223215Y233843D01*
X223243Y233787D01*
X223261Y233713D01*
X223289Y233621D01*
X223326Y233519D01*
X223354Y233408D01*
X223381Y233288D01*
X223418Y233149D01*
X223465Y232863D01*
X223501Y232539D01*
X223520Y232206D01*
Y232197D01*
Y232160D01*
Y232105D01*
X223511Y232040D01*
Y231947D01*
X223501Y231855D01*
X223492Y231735D01*
X223474Y231615D01*
X223428Y231346D01*
X223363Y231051D01*
X223270Y230755D01*
X223141Y230468D01*
X223132Y230459D01*
X223122Y230431D01*
X223104Y230394D01*
X223067Y230348D01*
X223030Y230283D01*
X222984Y230209D01*
X222864Y230043D01*
X222706Y229858D01*
X222521Y229673D01*
X222309Y229488D01*
X222059Y229331D01*
X222050Y229322D01*
X222022Y229312D01*
X221985Y229294D01*
X221939Y229266D01*
X221865Y229238D01*
X221791Y229211D01*
X221699Y229174D01*
X221597Y229137D01*
X221486Y229100D01*
X221366Y229063D01*
X221107Y229007D01*
X220811Y228961D01*
X220506Y228943D01*
X220413D01*
X220349Y228952D01*
X220266Y228961D01*
X220164Y228970D01*
X220062Y228980D01*
X219942Y229007D01*
X219692Y229063D01*
X219415Y229146D01*
X219276Y229202D01*
X219147Y229266D01*
X219017Y229349D01*
X218888Y229433D01*
X218879Y229442D01*
X218860Y229451D01*
X218823Y229479D01*
X218777Y229525D01*
X218731Y229571D01*
X218666Y229636D01*
X218601Y229710D01*
X218527Y229784D01*
X218453Y229876D01*
X218379Y229987D01*
X218296Y230098D01*
X218222Y230219D01*
X218158Y230357D01*
X218084Y230496D01*
X218028Y230644D01*
X217973Y230810D01*
X218805Y231004D01*
Y230995D01*
X218814Y230977D01*
X218832Y230940D01*
X218851Y230893D01*
X218869Y230838D01*
X218897Y230764D01*
X218971Y230616D01*
X219064Y230450D01*
X219175Y230283D01*
X219313Y230126D01*
X219461Y229987D01*
X219480Y229969D01*
X219535Y229932D01*
X219628Y229886D01*
X219748Y229821D01*
X219905Y229765D01*
X220081Y229710D01*
X220293Y229673D01*
X220524Y229664D01*
X220598D01*
X220645Y229673D01*
X220709D01*
X220783Y229682D01*
X220959Y229710D01*
X221153Y229747D01*
X221357Y229812D01*
X221569Y229904D01*
X221763Y230024D01*
X221773D01*
X221782Y230043D01*
X221847Y230089D01*
X221930Y230163D01*
X222031Y230274D01*
X222152Y230413D01*
X222263Y230570D01*
X222364Y230764D01*
X222457Y230977D01*
Y230986D01*
X222466Y231004D01*
X222475Y231032D01*
X222484Y231078D01*
X222503Y231134D01*
X222521Y231199D01*
X222549Y231356D01*
X222586Y231541D01*
X222623Y231744D01*
X222642Y231966D01*
X222651Y232206D01*
Y232215D01*
Y232243D01*
Y232290D01*
Y232345D01*
X222642Y232410D01*
Y232493D01*
X222632Y232585D01*
X222623Y232687D01*
X222595Y232909D01*
X222549Y233149D01*
X222494Y233390D01*
X222420Y233630D01*
Y233639D01*
X222411Y233658D01*
X222392Y233686D01*
X222374Y233732D01*
X222318Y233843D01*
X222235Y233972D01*
X222133Y234120D01*
X222004Y234277D01*
X221856Y234416D01*
X221680Y234545D01*
X221671D01*
X221652Y234555D01*
X221625Y234573D01*
X221588Y234592D01*
X221541Y234610D01*
X221486Y234638D01*
X221357Y234693D01*
X221190Y234749D01*
X221005Y234795D01*
X220802Y234832D01*
X220589Y234841D01*
X220524D01*
X220469Y234832D01*
X220404D01*
X220340Y234823D01*
X220173Y234786D01*
X219979Y234740D01*
X219785Y234666D01*
X219581Y234564D01*
X219480Y234508D01*
X219387Y234435D01*
X219378Y234425D01*
X219369Y234416D01*
X219341Y234388D01*
X219304Y234361D01*
X219267Y234314D01*
X219221Y234259D01*
X219165Y234203D01*
X219119Y234129D01*
X219064Y234046D01*
X218999Y233954D01*
X218943Y233861D01*
X218888Y233750D01*
X218842Y233630D01*
X218796Y233501D01*
X218749Y233362D01*
X218712Y233214D01*
X217862Y233427D01*
Y233436D01*
X217871Y233473D01*
X217889Y233528D01*
X217917Y233602D01*
X217945Y233686D01*
X217982Y233787D01*
X218028Y233898D01*
X218084Y234018D01*
X218213Y234277D01*
X218379Y234536D01*
X218481Y234666D01*
X218583Y234795D01*
X218694Y234906D01*
X218823Y235017D01*
X218832Y235026D01*
X218851Y235045D01*
X218897Y235063D01*
X218943Y235100D01*
X219017Y235146D01*
X219091Y235193D01*
X219193Y235239D01*
X219295Y235285D01*
X219415Y235341D01*
X219544Y235387D01*
X219683Y235433D01*
X219831Y235479D01*
X219988Y235516D01*
X220155Y235535D01*
X220330Y235553D01*
X220515Y235562D01*
X220617D01*
X220691Y235553D01*
D02*
G37*
G36*
X217251Y235442D02*
Y235405D01*
Y235350D01*
X217242Y235276D01*
X217233Y235193D01*
X217215Y235100D01*
X217196Y235008D01*
X217159Y234906D01*
Y234897D01*
X217150Y234888D01*
X217131Y234832D01*
X217094Y234749D01*
X217039Y234638D01*
X216965Y234508D01*
X216872Y234361D01*
X216771Y234213D01*
X216641Y234055D01*
Y234046D01*
X216623Y234037D01*
X216577Y233981D01*
X216493Y233898D01*
X216373Y233778D01*
X216234Y233639D01*
X216059Y233473D01*
X215846Y233288D01*
X215615Y233094D01*
X215606Y233085D01*
X215569Y233057D01*
X215513Y233011D01*
X215449Y232955D01*
X215365Y232881D01*
X215264Y232798D01*
X215162Y232706D01*
X215042Y232604D01*
X214811Y232382D01*
X214580Y232160D01*
X214469Y232049D01*
X214367Y231938D01*
X214274Y231836D01*
X214200Y231735D01*
Y231726D01*
X214182Y231716D01*
X214163Y231688D01*
X214145Y231652D01*
X214080Y231550D01*
X214006Y231430D01*
X213942Y231282D01*
X213877Y231125D01*
X213840Y230949D01*
X213821Y230783D01*
Y230773D01*
Y230764D01*
X213831Y230709D01*
X213840Y230616D01*
X213868Y230514D01*
X213905Y230385D01*
X213969Y230256D01*
X214053Y230126D01*
X214163Y229997D01*
X214182Y229978D01*
X214228Y229941D01*
X214293Y229895D01*
X214395Y229830D01*
X214524Y229775D01*
X214672Y229719D01*
X214848Y229682D01*
X215042Y229673D01*
X215097D01*
X215134Y229682D01*
X215245Y229692D01*
X215375Y229719D01*
X215513Y229756D01*
X215671Y229821D01*
X215818Y229904D01*
X215957Y230015D01*
X215976Y230034D01*
X216013Y230080D01*
X216068Y230154D01*
X216124Y230265D01*
X216188Y230394D01*
X216244Y230561D01*
X216281Y230746D01*
X216299Y230958D01*
X217104Y230875D01*
Y230866D01*
X217094Y230838D01*
Y230792D01*
X217085Y230727D01*
X217067Y230653D01*
X217048Y230570D01*
X217020Y230468D01*
X216993Y230366D01*
X216919Y230145D01*
X216808Y229923D01*
X216743Y229812D01*
X216660Y229701D01*
X216577Y229599D01*
X216484Y229507D01*
X216475Y229497D01*
X216456Y229488D01*
X216429Y229460D01*
X216382Y229433D01*
X216327Y229396D01*
X216262Y229359D01*
X216188Y229312D01*
X216096Y229266D01*
X215994Y229220D01*
X215883Y229174D01*
X215763Y229137D01*
X215634Y229100D01*
X215495Y229072D01*
X215347Y229044D01*
X215190Y229035D01*
X215023Y229026D01*
X214931D01*
X214866Y229035D01*
X214792Y229044D01*
X214700Y229053D01*
X214598Y229072D01*
X214496Y229090D01*
X214256Y229155D01*
X214016Y229248D01*
X213895Y229303D01*
X213775Y229368D01*
X213664Y229451D01*
X213563Y229544D01*
X213553Y229553D01*
X213535Y229562D01*
X213516Y229599D01*
X213479Y229636D01*
X213433Y229682D01*
X213387Y229747D01*
X213341Y229812D01*
X213285Y229895D01*
X213193Y230071D01*
X213100Y230292D01*
X213063Y230403D01*
X213045Y230533D01*
X213026Y230662D01*
X213017Y230801D01*
Y230819D01*
Y230866D01*
X213026Y230940D01*
X213036Y231041D01*
X213054Y231152D01*
X213091Y231282D01*
X213128Y231420D01*
X213183Y231559D01*
X213193Y231578D01*
X213211Y231624D01*
X213248Y231698D01*
X213304Y231800D01*
X213378Y231910D01*
X213470Y232049D01*
X213581Y232188D01*
X213710Y232345D01*
X213729Y232363D01*
X213775Y232419D01*
X213821Y232465D01*
X213868Y232511D01*
X213923Y232567D01*
X213997Y232641D01*
X214071Y232715D01*
X214163Y232798D01*
X214256Y232890D01*
X214367Y232992D01*
X214487Y233094D01*
X214617Y233214D01*
X214764Y233334D01*
X214912Y233464D01*
X214922Y233473D01*
X214940Y233491D01*
X214977Y233519D01*
X215023Y233556D01*
X215079Y233612D01*
X215144Y233667D01*
X215291Y233787D01*
X215449Y233926D01*
X215597Y234065D01*
X215726Y234185D01*
X215781Y234231D01*
X215828Y234277D01*
X215837Y234287D01*
X215865Y234314D01*
X215902Y234351D01*
X215948Y234407D01*
X215994Y234471D01*
X216050Y234536D01*
X216161Y234693D01*
X213008D01*
Y235452D01*
X217251D01*
Y235442D01*
D02*
G37*
G36*
X99710Y380952D02*
X96742D01*
X96668Y380961D01*
X96585D01*
X96391Y380971D01*
X96188Y380998D01*
X95966Y381026D01*
X95762Y381072D01*
X95661Y381100D01*
X95577Y381128D01*
X95568D01*
X95559Y381137D01*
X95503Y381165D01*
X95420Y381202D01*
X95318Y381267D01*
X95208Y381350D01*
X95087Y381461D01*
X94976Y381590D01*
X94865Y381738D01*
Y381747D01*
X94856Y381757D01*
X94819Y381812D01*
X94782Y381904D01*
X94727Y382025D01*
X94681Y382163D01*
X94634Y382330D01*
X94607Y382505D01*
X94597Y382700D01*
Y382709D01*
Y382727D01*
Y382764D01*
X94607Y382811D01*
Y382875D01*
X94616Y382940D01*
X94653Y383097D01*
X94708Y383282D01*
X94782Y383476D01*
X94893Y383670D01*
X94967Y383763D01*
X95041Y383855D01*
X95050Y383865D01*
X95060Y383874D01*
X95087Y383901D01*
X95124Y383929D01*
X95170Y383966D01*
X95226Y384003D01*
X95300Y384049D01*
X95374Y384105D01*
X95466Y384151D01*
X95568Y384197D01*
X95679Y384253D01*
X95799Y384299D01*
X95938Y384336D01*
X96077Y384382D01*
X96234Y384410D01*
X96400Y384438D01*
X96382Y384447D01*
X96345Y384465D01*
X96289Y384502D01*
X96215Y384539D01*
X96049Y384641D01*
X95966Y384706D01*
X95892Y384761D01*
X95873Y384780D01*
X95827Y384826D01*
X95753Y384900D01*
X95661Y384992D01*
X95559Y385122D01*
X95439Y385261D01*
X95318Y385427D01*
X95189Y385612D01*
X94089Y387350D01*
X95143D01*
X95984Y386019D01*
Y386009D01*
X96003Y385991D01*
X96021Y385963D01*
X96049Y385926D01*
X96114Y385825D01*
X96197Y385695D01*
X96299Y385556D01*
X96400Y385409D01*
X96502Y385270D01*
X96594Y385140D01*
X96604Y385131D01*
X96631Y385094D01*
X96678Y385039D01*
X96742Y384974D01*
X96881Y384835D01*
X96955Y384771D01*
X97029Y384715D01*
X97038Y384706D01*
X97057Y384697D01*
X97094Y384678D01*
X97149Y384650D01*
X97205Y384623D01*
X97269Y384595D01*
X97417Y384549D01*
X97427D01*
X97445Y384539D01*
X97482D01*
X97528Y384530D01*
X97593Y384521D01*
X97667D01*
X97769Y384512D01*
X98860D01*
Y387350D01*
X99710D01*
Y380952D01*
D02*
G37*
G36*
X93701Y387341D02*
Y387304D01*
Y387248D01*
X93691Y387174D01*
X93682Y387091D01*
X93664Y386999D01*
X93645Y386906D01*
X93608Y386805D01*
Y386795D01*
X93599Y386786D01*
X93580Y386731D01*
X93543Y386647D01*
X93488Y386536D01*
X93414Y386407D01*
X93321Y386259D01*
X93220Y386111D01*
X93090Y385954D01*
Y385945D01*
X93072Y385936D01*
X93026Y385880D01*
X92942Y385797D01*
X92822Y385677D01*
X92683Y385538D01*
X92508Y385372D01*
X92295Y385187D01*
X92064Y384992D01*
X92055Y384983D01*
X92018Y384955D01*
X91962Y384909D01*
X91898Y384854D01*
X91814Y384780D01*
X91713Y384697D01*
X91611Y384604D01*
X91491Y384502D01*
X91260Y384281D01*
X91028Y384059D01*
X90918Y383948D01*
X90816Y383837D01*
X90723Y383735D01*
X90649Y383633D01*
Y383624D01*
X90631Y383615D01*
X90612Y383587D01*
X90594Y383550D01*
X90529Y383448D01*
X90455Y383328D01*
X90391Y383180D01*
X90326Y383023D01*
X90289Y382848D01*
X90270Y382681D01*
Y382672D01*
Y382663D01*
X90280Y382607D01*
X90289Y382515D01*
X90317Y382413D01*
X90354Y382284D01*
X90418Y382154D01*
X90501Y382025D01*
X90612Y381895D01*
X90631Y381877D01*
X90677Y381840D01*
X90742Y381794D01*
X90844Y381729D01*
X90973Y381673D01*
X91121Y381618D01*
X91297Y381581D01*
X91491Y381572D01*
X91546D01*
X91583Y381581D01*
X91694Y381590D01*
X91824Y381618D01*
X91962Y381655D01*
X92120Y381720D01*
X92267Y381803D01*
X92406Y381914D01*
X92425Y381932D01*
X92462Y381978D01*
X92517Y382052D01*
X92572Y382163D01*
X92637Y382293D01*
X92693Y382459D01*
X92730Y382644D01*
X92748Y382857D01*
X93553Y382774D01*
Y382764D01*
X93543Y382737D01*
Y382690D01*
X93534Y382626D01*
X93516Y382552D01*
X93497Y382468D01*
X93469Y382367D01*
X93442Y382265D01*
X93368Y382043D01*
X93257Y381821D01*
X93192Y381710D01*
X93109Y381599D01*
X93026Y381498D01*
X92933Y381405D01*
X92924Y381396D01*
X92905Y381387D01*
X92878Y381359D01*
X92831Y381331D01*
X92776Y381294D01*
X92711Y381257D01*
X92637Y381211D01*
X92545Y381165D01*
X92443Y381119D01*
X92332Y381072D01*
X92212Y381035D01*
X92083Y380998D01*
X91944Y380971D01*
X91796Y380943D01*
X91639Y380934D01*
X91472Y380924D01*
X91380D01*
X91315Y380934D01*
X91241Y380943D01*
X91149Y380952D01*
X91047Y380971D01*
X90945Y380989D01*
X90705Y381054D01*
X90464Y381146D01*
X90344Y381202D01*
X90224Y381267D01*
X90113Y381350D01*
X90012Y381442D01*
X90002Y381451D01*
X89984Y381461D01*
X89965Y381498D01*
X89928Y381535D01*
X89882Y381581D01*
X89836Y381646D01*
X89790Y381710D01*
X89734Y381794D01*
X89642Y381969D01*
X89549Y382191D01*
X89512Y382302D01*
X89494Y382431D01*
X89475Y382561D01*
X89466Y382700D01*
Y382718D01*
Y382764D01*
X89475Y382838D01*
X89485Y382940D01*
X89503Y383051D01*
X89540Y383180D01*
X89577Y383319D01*
X89632Y383458D01*
X89642Y383476D01*
X89660Y383522D01*
X89697Y383596D01*
X89753Y383698D01*
X89827Y383809D01*
X89919Y383948D01*
X90030Y384086D01*
X90159Y384244D01*
X90178Y384262D01*
X90224Y384318D01*
X90270Y384364D01*
X90317Y384410D01*
X90372Y384465D01*
X90446Y384539D01*
X90520Y384613D01*
X90612Y384697D01*
X90705Y384789D01*
X90816Y384891D01*
X90936Y384992D01*
X91066Y385113D01*
X91213Y385233D01*
X91361Y385362D01*
X91371Y385372D01*
X91389Y385390D01*
X91426Y385418D01*
X91472Y385455D01*
X91528Y385510D01*
X91593Y385566D01*
X91740Y385686D01*
X91898Y385825D01*
X92045Y385963D01*
X92175Y386083D01*
X92230Y386130D01*
X92277Y386176D01*
X92286Y386185D01*
X92314Y386213D01*
X92351Y386250D01*
X92397Y386305D01*
X92443Y386370D01*
X92499Y386435D01*
X92610Y386592D01*
X89457D01*
Y387350D01*
X93701D01*
Y387341D01*
D02*
G37*
G36*
X87630Y293322D02*
X84662D01*
X84588Y293331D01*
X84505D01*
X84311Y293341D01*
X84108Y293368D01*
X83886Y293396D01*
X83682Y293442D01*
X83581Y293470D01*
X83497Y293498D01*
X83488D01*
X83479Y293507D01*
X83423Y293535D01*
X83340Y293572D01*
X83238Y293636D01*
X83127Y293720D01*
X83007Y293831D01*
X82896Y293960D01*
X82785Y294108D01*
Y294117D01*
X82776Y294126D01*
X82739Y294182D01*
X82702Y294274D01*
X82647Y294395D01*
X82600Y294533D01*
X82554Y294700D01*
X82527Y294875D01*
X82517Y295070D01*
Y295079D01*
Y295097D01*
Y295134D01*
X82527Y295180D01*
Y295245D01*
X82536Y295310D01*
X82573Y295467D01*
X82628Y295652D01*
X82702Y295846D01*
X82813Y296040D01*
X82887Y296133D01*
X82961Y296225D01*
X82970Y296234D01*
X82979Y296244D01*
X83007Y296271D01*
X83044Y296299D01*
X83090Y296336D01*
X83146Y296373D01*
X83220Y296419D01*
X83294Y296475D01*
X83386Y296521D01*
X83488Y296567D01*
X83599Y296623D01*
X83719Y296669D01*
X83858Y296706D01*
X83997Y296752D01*
X84154Y296780D01*
X84320Y296808D01*
X84302Y296817D01*
X84265Y296835D01*
X84209Y296872D01*
X84135Y296909D01*
X83969Y297011D01*
X83886Y297076D01*
X83812Y297131D01*
X83793Y297150D01*
X83747Y297196D01*
X83673Y297270D01*
X83581Y297362D01*
X83479Y297492D01*
X83359Y297631D01*
X83238Y297797D01*
X83109Y297982D01*
X82009Y299720D01*
X83063D01*
X83904Y298389D01*
Y298379D01*
X83923Y298361D01*
X83941Y298333D01*
X83969Y298296D01*
X84033Y298195D01*
X84117Y298065D01*
X84218Y297926D01*
X84320Y297778D01*
X84422Y297640D01*
X84514Y297510D01*
X84524Y297501D01*
X84551Y297464D01*
X84598Y297409D01*
X84662Y297344D01*
X84801Y297205D01*
X84875Y297141D01*
X84949Y297085D01*
X84958Y297076D01*
X84977Y297067D01*
X85014Y297048D01*
X85069Y297020D01*
X85125Y296993D01*
X85189Y296965D01*
X85337Y296919D01*
X85346D01*
X85365Y296909D01*
X85402D01*
X85448Y296900D01*
X85513Y296891D01*
X85587D01*
X85688Y296882D01*
X86779D01*
Y299720D01*
X87630D01*
Y293322D01*
D02*
G37*
G36*
X79337Y294718D02*
X79346Y294727D01*
X79392Y294764D01*
X79448Y294820D01*
X79540Y294885D01*
X79642Y294968D01*
X79771Y295060D01*
X79919Y295162D01*
X80086Y295264D01*
X80095D01*
X80104Y295273D01*
X80160Y295310D01*
X80252Y295356D01*
X80363Y295412D01*
X80492Y295476D01*
X80631Y295541D01*
X80770Y295606D01*
X80908Y295661D01*
Y294903D01*
X80899D01*
X80881Y294885D01*
X80844Y294875D01*
X80798Y294848D01*
X80742Y294820D01*
X80677Y294783D01*
X80520Y294690D01*
X80335Y294589D01*
X80150Y294459D01*
X79956Y294311D01*
X79762Y294154D01*
X79753Y294145D01*
X79744Y294136D01*
X79716Y294108D01*
X79679Y294080D01*
X79596Y293988D01*
X79485Y293877D01*
X79374Y293747D01*
X79254Y293599D01*
X79152Y293452D01*
X79059Y293294D01*
X78551D01*
Y299720D01*
X79337D01*
Y294718D01*
D02*
G37*
G36*
X247650Y337772D02*
X244682D01*
X244608Y337781D01*
X244525D01*
X244331Y337791D01*
X244128Y337818D01*
X243906Y337846D01*
X243702Y337892D01*
X243601Y337920D01*
X243517Y337948D01*
X243508D01*
X243499Y337957D01*
X243443Y337985D01*
X243360Y338022D01*
X243258Y338087D01*
X243148Y338170D01*
X243027Y338281D01*
X242916Y338410D01*
X242805Y338558D01*
Y338567D01*
X242796Y338577D01*
X242759Y338632D01*
X242722Y338724D01*
X242667Y338845D01*
X242621Y338983D01*
X242574Y339150D01*
X242547Y339325D01*
X242537Y339520D01*
Y339529D01*
Y339547D01*
Y339584D01*
X242547Y339631D01*
Y339695D01*
X242556Y339760D01*
X242593Y339917D01*
X242648Y340102D01*
X242722Y340296D01*
X242833Y340490D01*
X242907Y340583D01*
X242981Y340675D01*
X242990Y340685D01*
X242999Y340694D01*
X243027Y340722D01*
X243064Y340749D01*
X243111Y340786D01*
X243166Y340823D01*
X243240Y340869D01*
X243314Y340925D01*
X243406Y340971D01*
X243508Y341017D01*
X243619Y341073D01*
X243739Y341119D01*
X243878Y341156D01*
X244017Y341202D01*
X244174Y341230D01*
X244340Y341258D01*
X244322Y341267D01*
X244285Y341285D01*
X244229Y341322D01*
X244155Y341359D01*
X243989Y341461D01*
X243906Y341526D01*
X243832Y341581D01*
X243813Y341600D01*
X243767Y341646D01*
X243693Y341720D01*
X243601Y341812D01*
X243499Y341942D01*
X243379Y342081D01*
X243258Y342247D01*
X243129Y342432D01*
X242029Y344170D01*
X243083D01*
X243924Y342839D01*
Y342830D01*
X243943Y342811D01*
X243961Y342783D01*
X243989Y342746D01*
X244053Y342645D01*
X244137Y342515D01*
X244238Y342376D01*
X244340Y342229D01*
X244442Y342090D01*
X244534Y341960D01*
X244544Y341951D01*
X244571Y341914D01*
X244618Y341859D01*
X244682Y341794D01*
X244821Y341655D01*
X244895Y341591D01*
X244969Y341535D01*
X244978Y341526D01*
X244997Y341517D01*
X245034Y341498D01*
X245089Y341470D01*
X245145Y341443D01*
X245209Y341415D01*
X245357Y341369D01*
X245366D01*
X245385Y341359D01*
X245422D01*
X245468Y341350D01*
X245533Y341341D01*
X245607D01*
X245709Y341332D01*
X246800D01*
Y344170D01*
X247650D01*
Y337772D01*
D02*
G37*
G36*
X239015Y342635D02*
X241798D01*
Y341914D01*
X238867Y337772D01*
X238229D01*
Y341914D01*
X237360D01*
Y342635D01*
X238229D01*
Y344170D01*
X239015D01*
Y342635D01*
D02*
G37*
G36*
X257709Y389217D02*
X255148D01*
X254806Y387488D01*
X254815Y387497D01*
X254834Y387506D01*
X254861Y387525D01*
X254908Y387552D01*
X254963Y387580D01*
X255028Y387617D01*
X255176Y387691D01*
X255361Y387765D01*
X255564Y387830D01*
X255786Y387876D01*
X255897Y387895D01*
X256100D01*
X256156Y387885D01*
X256230Y387876D01*
X256313Y387867D01*
X256406Y387848D01*
X256507Y387821D01*
X256729Y387756D01*
X256849Y387710D01*
X256969Y387645D01*
X257090Y387580D01*
X257210Y387506D01*
X257321Y387414D01*
X257432Y387312D01*
X257441Y387303D01*
X257460Y387284D01*
X257487Y387257D01*
X257524Y387210D01*
X257570Y387146D01*
X257617Y387081D01*
X257672Y386998D01*
X257728Y386905D01*
X257774Y386804D01*
X257829Y386693D01*
X257875Y386563D01*
X257922Y386434D01*
X257959Y386295D01*
X257987Y386138D01*
X258005Y385981D01*
X258014Y385814D01*
Y385805D01*
Y385777D01*
Y385731D01*
X258005Y385666D01*
X257996Y385592D01*
X257987Y385509D01*
X257968Y385407D01*
X257950Y385306D01*
X257894Y385065D01*
X257801Y384816D01*
X257746Y384686D01*
X257672Y384566D01*
X257598Y384437D01*
X257506Y384316D01*
X257496Y384307D01*
X257478Y384280D01*
X257441Y384243D01*
X257395Y384196D01*
X257330Y384141D01*
X257256Y384067D01*
X257164Y384002D01*
X257062Y383928D01*
X256951Y383854D01*
X256821Y383789D01*
X256683Y383725D01*
X256535Y383660D01*
X256378Y383614D01*
X256202Y383577D01*
X256017Y383549D01*
X255823Y383540D01*
X255740D01*
X255675Y383549D01*
X255601Y383558D01*
X255518Y383568D01*
X255416Y383577D01*
X255315Y383605D01*
X255083Y383660D01*
X254852Y383743D01*
X254732Y383799D01*
X254612Y383863D01*
X254501Y383937D01*
X254390Y384021D01*
X254381Y384030D01*
X254362Y384039D01*
X254344Y384076D01*
X254307Y384113D01*
X254261Y384159D01*
X254214Y384215D01*
X254159Y384289D01*
X254112Y384372D01*
X254057Y384455D01*
X254002Y384557D01*
X253900Y384779D01*
X253817Y385038D01*
X253789Y385176D01*
X253771Y385324D01*
X254593Y385389D01*
Y385380D01*
Y385361D01*
X254603Y385334D01*
X254612Y385287D01*
X254639Y385186D01*
X254676Y385047D01*
X254732Y384908D01*
X254806Y384751D01*
X254898Y384612D01*
X255009Y384483D01*
X255028Y384474D01*
X255065Y384437D01*
X255139Y384390D01*
X255240Y384335D01*
X255352Y384280D01*
X255490Y384233D01*
X255647Y384196D01*
X255823Y384187D01*
X255879D01*
X255915Y384196D01*
X256026Y384206D01*
X256156Y384243D01*
X256313Y384289D01*
X256470Y384363D01*
X256637Y384474D01*
X256711Y384538D01*
X256784Y384612D01*
X256794Y384622D01*
X256803Y384631D01*
X256821Y384659D01*
X256849Y384686D01*
X256914Y384788D01*
X256988Y384917D01*
X257053Y385075D01*
X257117Y385269D01*
X257164Y385500D01*
X257182Y385620D01*
Y385750D01*
Y385759D01*
Y385777D01*
Y385814D01*
X257173Y385860D01*
Y385916D01*
X257164Y385981D01*
X257136Y386129D01*
X257090Y386304D01*
X257025Y386480D01*
X256933Y386646D01*
X256803Y386804D01*
Y386813D01*
X256784Y386822D01*
X256738Y386868D01*
X256655Y386933D01*
X256544Y387007D01*
X256396Y387072D01*
X256230Y387136D01*
X256036Y387183D01*
X255925Y387201D01*
X255749D01*
X255675Y387192D01*
X255583Y387183D01*
X255472Y387155D01*
X255361Y387127D01*
X255240Y387081D01*
X255120Y387025D01*
X255111Y387016D01*
X255074Y386998D01*
X255019Y386951D01*
X254945Y386905D01*
X254871Y386841D01*
X254797Y386757D01*
X254713Y386674D01*
X254649Y386572D01*
X253909Y386674D01*
X254529Y389966D01*
X257709D01*
Y389217D01*
D02*
G37*
G36*
X250692Y390039D02*
X250775D01*
X250969Y390030D01*
X251172Y390003D01*
X251394Y389975D01*
X251598Y389929D01*
X251699Y389901D01*
X251783Y389873D01*
X251792D01*
X251801Y389864D01*
X251857Y389836D01*
X251940Y389799D01*
X252041Y389734D01*
X252153Y389651D01*
X252273Y389540D01*
X252384Y389411D01*
X252495Y389263D01*
Y389254D01*
X252504Y389244D01*
X252541Y389189D01*
X252578Y389096D01*
X252633Y388976D01*
X252680Y388838D01*
X252726Y388671D01*
X252753Y388495D01*
X252763Y388301D01*
Y388292D01*
Y388274D01*
Y388237D01*
X252753Y388190D01*
Y388126D01*
X252744Y388061D01*
X252707Y387904D01*
X252652Y387719D01*
X252578Y387525D01*
X252467Y387331D01*
X252393Y387238D01*
X252319Y387146D01*
X252310Y387136D01*
X252300Y387127D01*
X252273Y387099D01*
X252236Y387072D01*
X252190Y387035D01*
X252134Y386998D01*
X252060Y386951D01*
X251986Y386896D01*
X251894Y386850D01*
X251792Y386804D01*
X251681Y386748D01*
X251561Y386702D01*
X251422Y386665D01*
X251283Y386619D01*
X251126Y386591D01*
X250960Y386563D01*
X250978Y386554D01*
X251015Y386535D01*
X251071Y386498D01*
X251145Y386461D01*
X251311Y386360D01*
X251394Y386295D01*
X251468Y386240D01*
X251487Y386221D01*
X251533Y386175D01*
X251607Y386101D01*
X251699Y386008D01*
X251801Y385879D01*
X251921Y385740D01*
X252041Y385574D01*
X252171Y385389D01*
X253271Y383651D01*
X252217D01*
X251376Y384982D01*
Y384991D01*
X251357Y385010D01*
X251339Y385038D01*
X251311Y385075D01*
X251246Y385176D01*
X251163Y385306D01*
X251061Y385444D01*
X250960Y385592D01*
X250858Y385731D01*
X250766Y385860D01*
X250756Y385870D01*
X250729Y385907D01*
X250682Y385962D01*
X250618Y386027D01*
X250479Y386166D01*
X250405Y386230D01*
X250331Y386286D01*
X250322Y386295D01*
X250303Y386304D01*
X250266Y386323D01*
X250211Y386351D01*
X250155Y386378D01*
X250091Y386406D01*
X249943Y386452D01*
X249933D01*
X249915Y386461D01*
X249878D01*
X249832Y386471D01*
X249767Y386480D01*
X249693D01*
X249591Y386489D01*
X248500D01*
Y383651D01*
X247650D01*
Y390049D01*
X250618D01*
X250692Y390039D01*
D02*
G37*
%LPC*%
G36*
X88049Y336680D02*
X86145D01*
X86034Y336671D01*
X85905Y336662D01*
X85757Y336653D01*
X85609Y336634D01*
X85461Y336606D01*
X85331Y336569D01*
X85313Y336560D01*
X85276Y336542D01*
X85220Y336514D01*
X85146Y336477D01*
X85063Y336422D01*
X84980Y336357D01*
X84897Y336273D01*
X84832Y336181D01*
X84823Y336172D01*
X84804Y336135D01*
X84776Y336079D01*
X84740Y336005D01*
X84712Y335922D01*
X84684Y335830D01*
X84666Y335719D01*
X84656Y335608D01*
Y335599D01*
Y335589D01*
X84666Y335534D01*
X84675Y335451D01*
X84693Y335340D01*
X84740Y335229D01*
X84795Y335099D01*
X84878Y334979D01*
X84989Y334859D01*
X85008Y334850D01*
X85054Y334813D01*
X85128Y334767D01*
X85248Y334711D01*
X85387Y334655D01*
X85572Y334609D01*
X85784Y334572D01*
X86034Y334563D01*
X88049D01*
Y336680D01*
D02*
G37*
G36*
X98860Y383781D02*
X96955D01*
X96844Y383772D01*
X96715Y383763D01*
X96567Y383754D01*
X96419Y383735D01*
X96271Y383707D01*
X96141Y383670D01*
X96123Y383661D01*
X96086Y383643D01*
X96030Y383615D01*
X95956Y383578D01*
X95873Y383522D01*
X95790Y383458D01*
X95707Y383374D01*
X95642Y383282D01*
X95633Y383273D01*
X95614Y383236D01*
X95587Y383180D01*
X95550Y383106D01*
X95522Y383023D01*
X95494Y382931D01*
X95476Y382820D01*
X95466Y382709D01*
Y382700D01*
Y382690D01*
X95476Y382635D01*
X95485Y382552D01*
X95503Y382441D01*
X95550Y382330D01*
X95605Y382200D01*
X95688Y382080D01*
X95799Y381960D01*
X95818Y381951D01*
X95864Y381914D01*
X95938Y381867D01*
X96058Y381812D01*
X96197Y381757D01*
X96382Y381710D01*
X96594Y381673D01*
X96844Y381664D01*
X98860D01*
Y383781D01*
D02*
G37*
G36*
X86779Y296151D02*
X84875D01*
X84764Y296142D01*
X84635Y296133D01*
X84487Y296124D01*
X84339Y296105D01*
X84191Y296077D01*
X84061Y296040D01*
X84043Y296031D01*
X84006Y296013D01*
X83950Y295985D01*
X83876Y295948D01*
X83793Y295892D01*
X83710Y295828D01*
X83627Y295744D01*
X83562Y295652D01*
X83553Y295643D01*
X83534Y295606D01*
X83506Y295550D01*
X83470Y295476D01*
X83442Y295393D01*
X83414Y295301D01*
X83396Y295190D01*
X83386Y295079D01*
Y295070D01*
Y295060D01*
X83396Y295005D01*
X83405Y294922D01*
X83423Y294811D01*
X83470Y294700D01*
X83525Y294570D01*
X83608Y294450D01*
X83719Y294330D01*
X83738Y294321D01*
X83784Y294284D01*
X83858Y294237D01*
X83978Y294182D01*
X84117Y294126D01*
X84302Y294080D01*
X84514Y294043D01*
X84764Y294034D01*
X86779D01*
Y296151D01*
D02*
G37*
G36*
X246800Y340601D02*
X244895D01*
X244784Y340592D01*
X244655Y340583D01*
X244507Y340574D01*
X244359Y340555D01*
X244211Y340527D01*
X244081Y340490D01*
X244063Y340481D01*
X244026Y340463D01*
X243970Y340435D01*
X243896Y340398D01*
X243813Y340342D01*
X243730Y340278D01*
X243647Y340195D01*
X243582Y340102D01*
X243573Y340093D01*
X243554Y340056D01*
X243526Y340000D01*
X243490Y339926D01*
X243462Y339843D01*
X243434Y339751D01*
X243416Y339640D01*
X243406Y339529D01*
Y339520D01*
Y339510D01*
X243416Y339455D01*
X243425Y339372D01*
X243443Y339261D01*
X243490Y339150D01*
X243545Y339020D01*
X243628Y338900D01*
X243739Y338780D01*
X243758Y338771D01*
X243804Y338734D01*
X243878Y338687D01*
X243998Y338632D01*
X244137Y338577D01*
X244322Y338530D01*
X244534Y338493D01*
X244784Y338484D01*
X246800D01*
Y340601D01*
D02*
G37*
G36*
X241030Y341914D02*
X239015D01*
Y339048D01*
X241030Y341914D01*
D02*
G37*
G36*
X250516Y389337D02*
X248500D01*
Y387220D01*
X250405D01*
X250516Y387229D01*
X250645Y387238D01*
X250793Y387247D01*
X250941Y387266D01*
X251089Y387294D01*
X251219Y387331D01*
X251237Y387340D01*
X251274Y387358D01*
X251330Y387386D01*
X251404Y387423D01*
X251487Y387478D01*
X251570Y387543D01*
X251653Y387626D01*
X251718Y387719D01*
X251727Y387728D01*
X251746Y387765D01*
X251773Y387821D01*
X251810Y387895D01*
X251838Y387978D01*
X251866Y388070D01*
X251884Y388181D01*
X251894Y388292D01*
Y388301D01*
Y388311D01*
X251884Y388366D01*
X251875Y388449D01*
X251857Y388560D01*
X251810Y388671D01*
X251755Y388801D01*
X251672Y388921D01*
X251561Y389041D01*
X251542Y389050D01*
X251496Y389087D01*
X251422Y389133D01*
X251302Y389189D01*
X251163Y389244D01*
X250978Y389291D01*
X250766Y389328D01*
X250516Y389337D01*
D02*
G37*
%LPD*%
D10*
X24400Y323860D02*
X153400D01*
X24400D02*
Y356860D01*
X153400D01*
Y323860D02*
Y356860D01*
X35210Y370850D02*
X164210D01*
X35210D02*
Y403850D01*
X164210D01*
Y370850D02*
Y403850D01*
X23130Y283220D02*
X152130D01*
X23130D02*
Y316220D01*
X152130D01*
Y283220D02*
Y316220D01*
X183150Y327670D02*
X312150D01*
X183150D02*
Y360670D01*
X312150D01*
Y327670D02*
Y360670D01*
X183150Y400040D02*
X312150D01*
Y367040D02*
Y400040D01*
X183150Y367040D02*
X312150D01*
X183150D02*
Y400040D01*
M02*
