M48
;Layer_Color=9474304
;FILE_FORMAT=4:4
METRIC,LZ
;TYPE=PLATED
T1F00S00C0.7000
T2F00S00C0.7620
T3F00S00C0.7700
T4F00S00C0.9000
T5F00S00C1.0600
T6F00S00C1.1000
%
T01
X0016907Y000508
X0018907
X0021352Y0023368
X0023352
T02
X0042672Y0002032
X0002159Y0042037
T03
X0009779Y0009398
X0012319
X0014859
X0017399
X0019939
X0022479
X0025019
X0030955Y0009144
Y0011684
Y0014224
Y0006604
Y0004064
X0038895
Y0006604
Y0009144
Y0011684
Y0014224
Y0016764
Y0019304
X0030955
Y0016764
X0025019Y0017338
X0022479
X0019939
X0017399
X0014859
X0012319
X0009779
T04
X0014413Y0029972
X001454Y0034036
X0019115Y0034417
Y0038354
X0015621Y0038735
X0030415Y0038354
Y0034417
X000324Y0034036
X0003113Y0029972
X0004321Y0038735
T05
X0033909Y0025156
Y003555
T06
X000508Y0011557
Y0014097
X0037465Y0032893
Y0035433
Y0037973
Y0040513
X0041402
Y0037973
Y0035433
Y0032893
X000508Y0019177
Y0016637
M30
