G04*
G04 #@! TF.GenerationSoftware,Altium Limited,Altium Designer,23.4.1 (23)*
G04*
G04 Layer_Color=32768*
%FSLAX44Y44*%
%MOMM*%
G71*
G04*
G04 #@! TF.SameCoordinates,0F4FC61B-9208-49F5-852E-2E7A0A34B3BB*
G04*
G04*
G04 #@! TF.FilePolarity,Positive*
G04*
G01*
G75*
%ADD10C,0.2000*%
%ADD36C,0.0500*%
D10*
X150570Y50800D02*
G03*
X207570Y50800I28500J0D01*
G01*
D02*
G03*
X150570Y50800I-28500J0D01*
G01*
X195020Y233680D02*
G03*
X252020Y233680I28500J0D01*
G01*
D02*
G03*
X195020Y233680I-28500J0D01*
G01*
X24400Y323860D02*
X153400D01*
X24400D02*
Y356860D01*
X153400D01*
Y323860D02*
Y356860D01*
X35210Y370850D02*
X164210D01*
X35210D02*
Y403850D01*
X164210D01*
Y370850D02*
Y403850D01*
X23130Y283220D02*
X152130D01*
X23130D02*
Y316220D01*
X152130D01*
Y283220D02*
Y316220D01*
X183150Y327670D02*
X312150D01*
X183150D02*
Y360670D01*
X312150D01*
Y327670D02*
Y360670D01*
X183150Y400040D02*
X312150D01*
Y367040D02*
Y400040D01*
X183150Y367040D02*
X312150D01*
X183150D02*
Y400040D01*
D36*
X353390Y241110D02*
Y365950D01*
X324790Y241110D02*
X353390D01*
X324790D02*
Y365950D01*
X353390D01*
X73040Y85630D02*
X274940D01*
X73040Y181730D02*
X274940D01*
Y85630D02*
Y181730D01*
X73040Y85630D02*
Y181730D01*
X398570Y421330D02*
X429470D01*
X398570Y312730D02*
Y421330D01*
Y312730D02*
X429470D01*
Y421330D01*
X409020Y367030D02*
X419020D01*
X414020Y362030D02*
Y372030D01*
X301200Y217790D02*
X397300D01*
X301200Y15890D02*
X397300D01*
Y217790D01*
X301200Y15890D02*
Y217790D01*
X35350Y99370D02*
X66250D01*
Y207970D01*
X35350D02*
X66250D01*
X35350Y99370D02*
Y207970D01*
X45800Y153670D02*
X55800D01*
X50800Y148670D02*
Y158670D01*
X359200Y421330D02*
X390100D01*
X359200Y312730D02*
Y421330D01*
Y312730D02*
X390100D01*
Y421330D01*
X369650Y367030D02*
X379650D01*
X374650Y362030D02*
Y372030D01*
M02*
