G04*
G04 #@! TF.GenerationSoftware,Altium Limited,Altium Designer,23.4.1 (23)*
G04*
G04 Layer_Color=255*
%FSLAX44Y44*%
%MOMM*%
G71*
G04*
G04 #@! TF.SameCoordinates,99EBD1B5-C4FE-4FA8-BA42-E2C8A1C5BD1C*
G04*
G04*
G04 #@! TF.FilePolarity,Positive*
G04*
G01*
G75*
%ADD16C,1.2000*%
%ADD17R,1.2000X1.2000*%
%ADD18R,1.2000X1.2000*%
%ADD26C,1.4000*%
%ADD27R,1.4000X1.4000*%
%ADD30C,1.5000*%
G04:AMPARAMS|DCode=31|XSize=1.5mm|YSize=1.5mm|CornerRadius=0.375mm|HoleSize=0mm|Usage=FLASHONLY|Rotation=0.000|XOffset=0mm|YOffset=0mm|HoleType=Round|Shape=RoundedRectangle|*
%AMROUNDEDRECTD31*
21,1,1.5000,0.7500,0,0,0.0*
21,1,0.7500,1.5000,0,0,0.0*
1,1,0.7500,0.3750,-0.3750*
1,1,0.7500,-0.3750,-0.3750*
1,1,0.7500,-0.3750,0.3750*
1,1,0.7500,0.3750,0.3750*
%
%ADD31ROUNDEDRECTD31*%
%ADD32C,1.5240*%
%ADD33C,1.6000*%
%ADD34R,1.6000X1.6000*%
%ADD35C,1.5900*%
%ADD36R,1.5900X1.5900*%
%ADD37R,1.5000X1.5000*%
%ADD38C,1.0300*%
D16*
X340360Y59690D02*
D03*
X403700D02*
D03*
X120650Y117000D02*
D03*
X123190Y200500D02*
D03*
D17*
X320360Y59690D02*
D03*
X383700D02*
D03*
D18*
X120650Y137000D02*
D03*
X123190Y180500D02*
D03*
D26*
X276860Y207010D02*
D03*
X111760Y376540D02*
D03*
D27*
X276860Y320010D02*
D03*
X111760Y263540D02*
D03*
D30*
X349250Y130810D02*
D03*
X374650D02*
D03*
X243840Y62230D02*
D03*
Y87630D02*
D03*
Y113030D02*
D03*
Y138430D02*
D03*
Y163830D02*
D03*
Y189230D02*
D03*
Y214630D02*
D03*
Y240030D02*
D03*
Y265430D02*
D03*
Y290830D02*
D03*
Y316230D02*
D03*
Y341630D02*
D03*
Y367030D02*
D03*
Y392430D02*
D03*
X167640Y62230D02*
D03*
Y87630D02*
D03*
Y113030D02*
D03*
Y138430D02*
D03*
Y163830D02*
D03*
Y189230D02*
D03*
Y214630D02*
D03*
Y240030D02*
D03*
Y265430D02*
D03*
Y290830D02*
D03*
Y316230D02*
D03*
Y341630D02*
D03*
Y367030D02*
D03*
D31*
X400050Y130810D02*
D03*
D32*
X64861Y417830D02*
D03*
X63500Y379730D02*
D03*
X33020D02*
D03*
D33*
X396240Y193040D02*
D03*
Y218440D02*
D03*
Y243840D02*
D03*
X358140Y194310D02*
D03*
Y219710D02*
D03*
Y245110D02*
D03*
X393700Y322580D02*
D03*
Y347980D02*
D03*
Y373380D02*
D03*
D34*
X396240Y269240D02*
D03*
X358140Y270510D02*
D03*
X393700Y398780D02*
D03*
D35*
X276860Y73760D02*
D03*
D36*
Y177700D02*
D03*
D37*
X167640Y392430D02*
D03*
D38*
X59690Y133080D02*
D03*
Y181880D02*
D03*
M02*
