G04*
G04 #@! TF.GenerationSoftware,Altium Limited,Altium Designer,23.4.1 (23)*
G04*
G04 Layer_Color=65535*
%FSLAX44Y44*%
%MOMM*%
G71*
G04*
G04 #@! TF.SameCoordinates,99EBD1B5-C4FE-4FA8-BA42-E2C8A1C5BD1C*
G04*
G04*
G04 #@! TF.FilePolarity,Positive*
G04*
G01*
G75*
%ADD10C,0.1500*%
%ADD11C,0.2500*%
%ADD12C,0.2000*%
%ADD13C,0.6000*%
%ADD14C,0.1270*%
%ADD15C,0.2540*%
D10*
X357860Y59690D02*
G03*
X357860Y59690I-27500J0D01*
G01*
X421200D02*
G03*
X421200Y59690I-27500J0D01*
G01*
X148150Y127000D02*
G03*
X148150Y127000I-27500J0D01*
G01*
X150690Y190500D02*
G03*
X150690Y190500I-27500J0D01*
G01*
D11*
X401300Y93810D02*
G03*
X401300Y93810I-1250J0D01*
G01*
X168890Y405430D02*
G03*
X168890Y405430I-1250J0D01*
G01*
D12*
X277860Y195650D02*
G03*
X277860Y195650I-1000J0D01*
G01*
X199390Y404330D02*
G03*
X212090Y404330I6350J0D01*
G01*
X334850Y98060D02*
X414450D01*
Y157560D01*
X334850D02*
X414450D01*
X334850Y98060D02*
Y157560D01*
X382790Y178840D02*
X409690D01*
Y283440D01*
X382790D02*
X409690D01*
X382790Y178840D02*
Y283440D01*
X344690Y180110D02*
X371590D01*
Y284710D01*
X344690D02*
X371590D01*
X344690Y180110D02*
Y284710D01*
X380250Y308380D02*
X407150D01*
Y412980D01*
X380250D02*
X407150D01*
X380250Y308380D02*
Y412980D01*
X276860Y218010D02*
Y224510D01*
Y302510D02*
Y309010D01*
X261360Y302510D02*
X292360D01*
X261360Y224510D02*
Y302510D01*
Y224510D02*
X292360D01*
Y302510D01*
X179240Y50330D02*
X232240D01*
X212090Y404330D02*
X232240D01*
X179240D02*
X199390D01*
X232240Y50330D02*
Y404330D01*
X179240Y50330D02*
Y404330D01*
X111760Y359040D02*
Y365540D01*
Y274540D02*
Y281040D01*
X96260D02*
X127260D01*
Y359040D01*
X96260D02*
X127260D01*
X96260Y281040D02*
Y359040D01*
D13*
X192240Y394330D02*
G03*
X192240Y394330I-3000J0D01*
G01*
D14*
X82992Y191048D02*
G03*
X61372Y214232I-22402J782D01*
G01*
Y100728D02*
G03*
X82992Y123912I-782J22402D01*
G01*
X36388Y124037D02*
G03*
X61383Y100728I24152J843D01*
G01*
Y214232D02*
G03*
X36388Y190923I-843J-24152D01*
G01*
X276860Y148905D02*
Y166550D01*
Y84910D02*
Y102555D01*
X288660D02*
Y148905D01*
X265060Y102555D02*
Y148905D01*
X276860D02*
X288660D01*
X265060D02*
X276860D01*
X265060Y102555D02*
X276860D01*
X288660D01*
X82990Y123980D02*
Y190980D01*
X36390Y123980D02*
Y190980D01*
D15*
X294641Y31748D02*
X292102Y34288D01*
X287023D01*
X284484Y31748D01*
Y21592D01*
X287023Y19052D01*
X292102D01*
X294641Y21592D01*
X307337Y19052D02*
Y34288D01*
X299719Y26670D01*
X309876D01*
X360681Y31748D02*
X358142Y34288D01*
X353063D01*
X350524Y31748D01*
Y21592D01*
X353063Y19052D01*
X358142D01*
X360681Y21592D01*
X365759Y31748D02*
X368298Y34288D01*
X373377D01*
X375916Y31748D01*
Y29209D01*
X373377Y26670D01*
X370838D01*
X373377D01*
X375916Y24131D01*
Y21592D01*
X373377Y19052D01*
X368298D01*
X365759Y21592D01*
X115571Y91438D02*
X113032Y93977D01*
X107953D01*
X105414Y91438D01*
Y81282D01*
X107953Y78742D01*
X113032D01*
X115571Y81282D01*
X130806Y78742D02*
X120649D01*
X130806Y88899D01*
Y91438D01*
X128267Y93977D01*
X123188D01*
X120649Y91438D01*
X299724Y144782D02*
Y160018D01*
X307342D01*
X309881Y157478D01*
Y152400D01*
X307342Y149861D01*
X299724D01*
X314959Y157478D02*
X317498Y160018D01*
X322577D01*
X325116Y157478D01*
Y154939D01*
X322577Y152400D01*
X320037D01*
X322577D01*
X325116Y149861D01*
Y147322D01*
X322577Y144782D01*
X317498D01*
X314959Y147322D01*
X417832Y279384D02*
X433068D01*
Y271767D01*
X430528Y269228D01*
X425450D01*
X422911Y271767D01*
Y279384D01*
X417832Y261610D02*
Y256532D01*
X420372Y253993D01*
X425450D01*
X427989Y256532D01*
Y261610D01*
X425450Y264149D01*
X420372D01*
X417832Y261610D01*
X427989Y248914D02*
X417832D01*
X422911D01*
X425450Y246375D01*
X427989Y243836D01*
Y241297D01*
X430528Y231140D02*
X427989D01*
Y233679D01*
Y228601D01*
Y231140D01*
X420372D01*
X417832Y228601D01*
X433068Y205748D02*
Y200670D01*
Y203209D01*
X417832D01*
Y205748D01*
Y200670D01*
Y193052D02*
X433068D01*
X417832Y182896D01*
X433068D01*
X337817Y181628D02*
X322583D01*
Y189246D01*
X325122Y191785D01*
X330200D01*
X332739Y189246D01*
Y181628D01*
X337817Y199403D02*
Y204481D01*
X335278Y207020D01*
X330200D01*
X327661Y204481D01*
Y199403D01*
X330200Y196864D01*
X335278D01*
X337817Y199403D01*
X327661Y212099D02*
X337817D01*
X332739D01*
X330200Y214638D01*
X327661Y217177D01*
Y219716D01*
X325122Y229873D02*
X327661D01*
Y227334D01*
Y232412D01*
Y229873D01*
X335278D01*
X337817Y232412D01*
X322583Y262882D02*
Y257804D01*
X325122Y255265D01*
X335278D01*
X337817Y257804D01*
Y262882D01*
X335278Y265421D01*
X325122D01*
X322583Y262882D01*
Y270500D02*
X335278D01*
X337817Y273039D01*
Y278117D01*
X335278Y280657D01*
X322583D01*
Y285735D02*
Y295891D01*
Y290813D01*
X337817D01*
X430528Y425429D02*
X415293D01*
Y417812D01*
X417832Y415272D01*
X420371D01*
X422910Y417812D01*
Y425429D01*
Y417812D01*
X425449Y415272D01*
X427988D01*
X430528Y417812D01*
Y425429D01*
Y410194D02*
Y400037D01*
Y405116D01*
X415293D01*
Y379724D02*
X425449D01*
Y377185D01*
X422910Y374646D01*
X415293D01*
X422910D01*
X425449Y372106D01*
X422910Y369567D01*
X415293D01*
Y361950D02*
Y356871D01*
X417832Y354332D01*
X422910D01*
X425449Y356871D01*
Y361950D01*
X422910Y364489D01*
X417832D01*
X415293Y361950D01*
X430528Y339097D02*
X415293D01*
Y346715D01*
X417832Y349254D01*
X422910D01*
X425449Y346715D01*
Y339097D01*
Y334019D02*
X417832D01*
X415293Y331479D01*
Y323862D01*
X425449D01*
X415293Y318783D02*
Y313705D01*
Y316244D01*
X430528D01*
Y318783D01*
X415293Y298470D02*
Y303548D01*
X417832Y306088D01*
X422910D01*
X425449Y303548D01*
Y298470D01*
X422910Y295931D01*
X420371D01*
Y306088D01*
X265433Y59688D02*
Y44453D01*
X273051D01*
X275590Y46992D01*
Y57148D01*
X273051Y59688D01*
X265433D01*
X280668Y44453D02*
X285747D01*
X283208D01*
Y59688D01*
X280668Y57148D01*
X261874Y336550D02*
Y351785D01*
X269492D01*
X272031Y349246D01*
Y344168D01*
X269492Y341628D01*
X261874D01*
X266952D02*
X272031Y336550D01*
X277109D02*
X282187D01*
X279648D01*
Y351785D01*
X277109Y349246D01*
X161544Y430779D02*
Y418083D01*
X164083Y415544D01*
X169161D01*
X171701Y418083D01*
Y430779D01*
X176779Y415544D02*
X181857D01*
X179318D01*
Y430779D01*
X176779Y428240D01*
X96774Y393192D02*
Y408427D01*
X104391D01*
X106931Y405888D01*
Y400810D01*
X104391Y398270D01*
X96774D01*
X101852D02*
X106931Y393192D01*
X122166D02*
X112009D01*
X122166Y403349D01*
Y405888D01*
X119627Y408427D01*
X114548D01*
X112009Y405888D01*
X106423Y240280D02*
X103883Y242819D01*
X98805D01*
X96266Y240280D01*
Y230123D01*
X98805Y227584D01*
X103883D01*
X106423Y230123D01*
X111501Y227584D02*
X116579D01*
X114040D01*
Y242819D01*
X111501Y240280D01*
X15748Y215133D02*
Y212594D01*
X20826Y207516D01*
X25905Y212594D01*
Y215133D01*
X20826Y207516D02*
Y199898D01*
M02*
