G04*
G04 #@! TF.GenerationSoftware,Altium Limited,Altium Designer,23.4.1 (23)*
G04*
G04 Layer_Physical_Order=1*
G04 Layer_Color=255*
%FSLAX44Y44*%
%MOMM*%
G71*
G04*
G04 #@! TF.SameCoordinates,99EBD1B5-C4FE-4FA8-BA42-E2C8A1C5BD1C*
G04*
G04*
G04 #@! TF.FilePolarity,Positive*
G04*
G01*
G75*
%ADD15C,0.2540*%
%ADD16C,1.2000*%
%ADD17R,1.2000X1.2000*%
%ADD18R,1.2000X1.2000*%
%ADD26C,1.4000*%
%ADD27R,1.4000X1.4000*%
%ADD30C,1.5000*%
G04:AMPARAMS|DCode=31|XSize=1.5mm|YSize=1.5mm|CornerRadius=0.375mm|HoleSize=0mm|Usage=FLASHONLY|Rotation=0.000|XOffset=0mm|YOffset=0mm|HoleType=Round|Shape=RoundedRectangle|*
%AMROUNDEDRECTD31*
21,1,1.5000,0.7500,0,0,0.0*
21,1,0.7500,1.5000,0,0,0.0*
1,1,0.7500,0.3750,-0.3750*
1,1,0.7500,-0.3750,-0.3750*
1,1,0.7500,-0.3750,0.3750*
1,1,0.7500,0.3750,0.3750*
%
%ADD31ROUNDEDRECTD31*%
%ADD32C,1.5240*%
%ADD33C,1.6000*%
%ADD34R,1.6000X1.6000*%
%ADD35C,1.5900*%
%ADD36R,1.5900X1.5900*%
%ADD37R,1.5000X1.5000*%
%ADD38C,1.0300*%
G36*
X425450Y19050D02*
X20320D01*
X20223Y18953D01*
X19050Y19439D01*
Y425450D01*
X56509D01*
X56996Y424277D01*
X56763Y424044D01*
X55430Y421736D01*
X54741Y419162D01*
Y416498D01*
X55430Y413924D01*
X56763Y411616D01*
X58647Y409732D01*
X60954Y408400D01*
X63528Y407710D01*
X66193D01*
X68767Y408400D01*
X71075Y409732D01*
X72959Y411616D01*
X74291Y413924D01*
X74308Y413986D01*
X394389D01*
X397922Y410453D01*
X397436Y409280D01*
X383200D01*
Y390975D01*
X382027Y390489D01*
X362128Y410388D01*
X360881Y411221D01*
X359410Y411514D01*
X359410Y411514D01*
X228818D01*
X227347Y411221D01*
X226100Y410388D01*
X226100Y410388D01*
X224612Y408900D01*
X223779Y407653D01*
X223486Y406182D01*
X223486Y406182D01*
Y352112D01*
X171514Y300140D01*
X171500Y300149D01*
X168957Y300830D01*
X166324D01*
X163780Y300149D01*
X161500Y298832D01*
X159638Y296970D01*
X158322Y294690D01*
X157640Y292146D01*
Y289513D01*
X158322Y286970D01*
X159638Y284690D01*
X161500Y282828D01*
X163780Y281511D01*
X166324Y280830D01*
X168957D01*
X171500Y281511D01*
X173780Y282828D01*
X175642Y284690D01*
X176959Y286970D01*
X177640Y289513D01*
Y292146D01*
X176959Y294690D01*
X176950Y294704D01*
X230048Y347802D01*
X230048Y347802D01*
X230881Y349049D01*
X231174Y350520D01*
X231174Y350520D01*
Y403826D01*
X357818D01*
X384024Y377620D01*
X383916Y377433D01*
X383200Y374762D01*
Y371998D01*
X383916Y369327D01*
X385298Y366933D01*
X387253Y364978D01*
X389647Y363596D01*
X392318Y362880D01*
X395082D01*
X397753Y363596D01*
X400147Y364978D01*
X402102Y366933D01*
X403484Y369327D01*
X404200Y371998D01*
Y374762D01*
X403484Y377433D01*
X402102Y379827D01*
X400147Y381782D01*
X397753Y383164D01*
X395082Y383880D01*
X392318D01*
X389647Y383164D01*
X389460Y383056D01*
X385409Y387107D01*
X385895Y388280D01*
X404200D01*
Y402516D01*
X405373Y403002D01*
X413986Y394389D01*
Y309389D01*
X412813Y308903D01*
X403376Y318340D01*
X403484Y318527D01*
X404200Y321198D01*
Y323962D01*
X403484Y326633D01*
X402102Y329027D01*
X400147Y330982D01*
X397753Y332364D01*
X395082Y333080D01*
X392318D01*
X389647Y332364D01*
X387253Y330982D01*
X385298Y329027D01*
X383916Y326633D01*
X383200Y323962D01*
Y321198D01*
X383916Y318527D01*
X385298Y316133D01*
X387253Y314178D01*
X389647Y312796D01*
X392318Y312080D01*
X395082D01*
X397753Y312796D01*
X397940Y312904D01*
X413986Y296858D01*
Y216222D01*
X400480Y202716D01*
X400293Y202824D01*
X397622Y203540D01*
X394858D01*
X392187Y202824D01*
X389793Y201442D01*
X387838Y199487D01*
X386456Y197093D01*
X385740Y194422D01*
Y191658D01*
X386456Y188987D01*
X387838Y186593D01*
X389793Y184638D01*
X392187Y183256D01*
X394858Y182540D01*
X397622D01*
X400293Y183256D01*
X402687Y184638D01*
X404642Y186593D01*
X406024Y188987D01*
X406740Y191658D01*
Y194422D01*
X406024Y197093D01*
X405916Y197280D01*
X420548Y211912D01*
X420548Y211912D01*
X421381Y213159D01*
X421674Y214630D01*
X421674Y214630D01*
Y298450D01*
X421674Y298450D01*
X421674Y298450D01*
Y395981D01*
X421674Y395982D01*
X421381Y397453D01*
X420548Y398700D01*
X420548Y398700D01*
X398700Y420548D01*
X397453Y421381D01*
X395982Y421674D01*
X395981Y421674D01*
X74308D01*
X74291Y421736D01*
X72959Y424044D01*
X72726Y424277D01*
X73212Y425450D01*
X425450D01*
Y19050D01*
D02*
G37*
%LPC*%
G36*
X245156Y402430D02*
X242523D01*
X239980Y401749D01*
X237700Y400432D01*
X235838Y398570D01*
X234522Y396290D01*
X233840Y393746D01*
Y391114D01*
X234522Y388570D01*
X235838Y386290D01*
X237700Y384428D01*
X239980Y383111D01*
X242523Y382430D01*
X245156D01*
X247700Y383111D01*
X249980Y384428D01*
X251842Y386290D01*
X253158Y388570D01*
X253840Y391114D01*
Y393746D01*
X253158Y396290D01*
X251842Y398570D01*
X249980Y400432D01*
X247700Y401749D01*
X245156Y402430D01*
D02*
G37*
G36*
X177640D02*
X157640D01*
Y382430D01*
X177640D01*
Y402430D01*
D02*
G37*
G36*
X64838Y389890D02*
X64770D01*
Y381000D01*
X73660D01*
Y381068D01*
X72968Y383652D01*
X71630Y385968D01*
X69738Y387860D01*
X67422Y389198D01*
X64838Y389890D01*
D02*
G37*
G36*
X62230D02*
X62162D01*
X59578Y389198D01*
X57262Y387860D01*
X55370Y385968D01*
X54032Y383652D01*
X53340Y381068D01*
Y381000D01*
X62230D01*
Y389890D01*
D02*
G37*
G36*
X73660Y378460D02*
X64770D01*
Y369570D01*
X64838D01*
X67422Y370262D01*
X69738Y371600D01*
X71630Y373492D01*
X72968Y375808D01*
X73660Y378392D01*
Y378460D01*
D02*
G37*
G36*
X62230D02*
X53340D01*
Y378392D01*
X54032Y375808D01*
X55370Y373492D01*
X57262Y371600D01*
X59578Y370262D01*
X62162Y369570D01*
X62230D01*
Y378460D01*
D02*
G37*
G36*
X113011Y386040D02*
X110509D01*
X108093Y385392D01*
X105927Y384142D01*
X104158Y382373D01*
X102907Y380207D01*
X102260Y377791D01*
Y375289D01*
X102907Y372873D01*
X104158Y370707D01*
X105927Y368938D01*
X108093Y367687D01*
X110509Y367040D01*
X113011D01*
X115427Y367687D01*
X117593Y368938D01*
X119362Y370707D01*
X120613Y372873D01*
X121260Y375289D01*
Y377791D01*
X120613Y380207D01*
X119362Y382373D01*
X117593Y384142D01*
X115427Y385392D01*
X113011Y386040D01*
D02*
G37*
G36*
X245156Y377030D02*
X242523D01*
X239980Y376348D01*
X237700Y375032D01*
X235838Y373170D01*
X234522Y370890D01*
X233840Y368346D01*
Y365714D01*
X234522Y363170D01*
X235838Y360890D01*
X237700Y359028D01*
X239980Y357711D01*
X242523Y357030D01*
X245156D01*
X247700Y357711D01*
X249980Y359028D01*
X251842Y360890D01*
X253158Y363170D01*
X253840Y365714D01*
Y368346D01*
X253158Y370890D01*
X251842Y373170D01*
X249980Y375032D01*
X247700Y376348D01*
X245156Y377030D01*
D02*
G37*
G36*
X168957D02*
X166324D01*
X163780Y376348D01*
X161500Y375032D01*
X159638Y373170D01*
X158322Y370890D01*
X157640Y368346D01*
Y365714D01*
X158322Y363170D01*
X159638Y360890D01*
X161500Y359028D01*
X163780Y357711D01*
X166324Y357030D01*
X168957D01*
X171500Y357711D01*
X173780Y359028D01*
X175642Y360890D01*
X176959Y363170D01*
X177640Y365714D01*
Y368346D01*
X176959Y370890D01*
X175642Y373170D01*
X173780Y375032D01*
X171500Y376348D01*
X168957Y377030D01*
D02*
G37*
G36*
X395082Y358480D02*
X392318D01*
X389647Y357764D01*
X387253Y356382D01*
X385298Y354427D01*
X383916Y352033D01*
X383200Y349362D01*
Y346598D01*
X383916Y343927D01*
X385298Y341533D01*
X387253Y339578D01*
X389647Y338196D01*
X392318Y337480D01*
X395082D01*
X397753Y338196D01*
X400147Y339578D01*
X402102Y341533D01*
X403484Y343927D01*
X404200Y346598D01*
Y349362D01*
X403484Y352033D01*
X402102Y354427D01*
X400147Y356382D01*
X397753Y357764D01*
X395082Y358480D01*
D02*
G37*
G36*
X245156Y351630D02*
X242523D01*
X239980Y350948D01*
X237700Y349632D01*
X235838Y347770D01*
X234522Y345490D01*
X233840Y342947D01*
Y340313D01*
X234522Y337770D01*
X235838Y335490D01*
X237700Y333628D01*
X239980Y332312D01*
X242523Y331630D01*
X245156D01*
X247700Y332312D01*
X249980Y333628D01*
X251842Y335490D01*
X253158Y337770D01*
X253840Y340313D01*
Y342947D01*
X253158Y345490D01*
X251842Y347770D01*
X249980Y349632D01*
X247700Y350948D01*
X245156Y351630D01*
D02*
G37*
G36*
X168957D02*
X166324D01*
X163780Y350948D01*
X161500Y349632D01*
X159638Y347770D01*
X158322Y345490D01*
X157640Y342947D01*
Y340313D01*
X158322Y337770D01*
X159638Y335490D01*
X161500Y333628D01*
X163780Y332312D01*
X166324Y331630D01*
X168957D01*
X171500Y332312D01*
X173780Y333628D01*
X175642Y335490D01*
X176959Y337770D01*
X177640Y340313D01*
Y342947D01*
X176959Y345490D01*
X175642Y347770D01*
X173780Y349632D01*
X171500Y350948D01*
X168957Y351630D01*
D02*
G37*
G36*
X286360Y329510D02*
X267360D01*
Y310510D01*
X286360D01*
Y329510D01*
D02*
G37*
G36*
X245156Y326230D02*
X242523D01*
X239980Y325549D01*
X237700Y324232D01*
X235838Y322370D01*
X234522Y320090D01*
X233840Y317547D01*
Y314914D01*
X234522Y312370D01*
X235838Y310090D01*
X237700Y308228D01*
X239980Y306912D01*
X242523Y306230D01*
X245156D01*
X247700Y306912D01*
X249980Y308228D01*
X251842Y310090D01*
X253158Y312370D01*
X253840Y314914D01*
Y317547D01*
X253158Y320090D01*
X251842Y322370D01*
X249980Y324232D01*
X247700Y325549D01*
X245156Y326230D01*
D02*
G37*
G36*
X168957D02*
X166324D01*
X163780Y325549D01*
X161500Y324232D01*
X159638Y322370D01*
X158322Y320090D01*
X157640Y317547D01*
Y314914D01*
X158322Y312370D01*
X159638Y310090D01*
X161500Y308228D01*
X163780Y306912D01*
X166324Y306230D01*
X168957D01*
X171500Y306912D01*
X173780Y308228D01*
X175642Y310090D01*
X176959Y312370D01*
X177640Y314914D01*
Y317547D01*
X176959Y320090D01*
X175642Y322370D01*
X173780Y324232D01*
X171500Y325549D01*
X168957Y326230D01*
D02*
G37*
G36*
X245156Y300830D02*
X242523D01*
X239980Y300149D01*
X237700Y298832D01*
X235838Y296970D01*
X234522Y294690D01*
X233840Y292146D01*
Y289513D01*
X234522Y286970D01*
X235838Y284690D01*
X237700Y282828D01*
X239980Y281511D01*
X242523Y280830D01*
X245156D01*
X247700Y281511D01*
X249980Y282828D01*
X251842Y284690D01*
X253158Y286970D01*
X253840Y289513D01*
Y292146D01*
X253158Y294690D01*
X251842Y296970D01*
X249980Y298832D01*
X247700Y300149D01*
X245156Y300830D01*
D02*
G37*
G36*
X121300Y273080D02*
X113030D01*
Y264810D01*
X121300D01*
Y273080D01*
D02*
G37*
G36*
X110490D02*
X102220D01*
Y264810D01*
X110490D01*
Y273080D01*
D02*
G37*
G36*
X368640Y281010D02*
X347640D01*
Y260010D01*
X368640D01*
Y281010D01*
D02*
G37*
G36*
X406740Y279740D02*
X385740D01*
Y258740D01*
X406740D01*
Y279740D01*
D02*
G37*
G36*
X245156Y275430D02*
X242523D01*
X239980Y274748D01*
X237700Y273432D01*
X235838Y271570D01*
X234522Y269290D01*
X233840Y266747D01*
Y264114D01*
X234522Y261570D01*
X235838Y259290D01*
X237700Y257428D01*
X239980Y256112D01*
X242523Y255430D01*
X245156D01*
X247700Y256112D01*
X249980Y257428D01*
X251842Y259290D01*
X253158Y261570D01*
X253840Y264114D01*
Y266747D01*
X253158Y269290D01*
X251842Y271570D01*
X249980Y273432D01*
X247700Y274748D01*
X245156Y275430D01*
D02*
G37*
G36*
X168957D02*
X166324D01*
X163780Y274748D01*
X161500Y273432D01*
X159638Y271570D01*
X158322Y269290D01*
X157640Y266747D01*
Y264114D01*
X158322Y261570D01*
X159638Y259290D01*
X161500Y257428D01*
X163780Y256112D01*
X166324Y255430D01*
X168957D01*
X171500Y256112D01*
X173780Y257428D01*
X175642Y259290D01*
X176959Y261570D01*
X177640Y264114D01*
Y266747D01*
X176959Y269290D01*
X175642Y271570D01*
X173780Y273432D01*
X171500Y274748D01*
X168957Y275430D01*
D02*
G37*
G36*
X121300Y262270D02*
X113030D01*
Y254000D01*
X121300D01*
Y262270D01*
D02*
G37*
G36*
X168962Y250070D02*
X168910D01*
Y241300D01*
X177680D01*
Y241352D01*
X176996Y243905D01*
X175674Y246195D01*
X173805Y248064D01*
X171515Y249386D01*
X168962Y250070D01*
D02*
G37*
G36*
X166370D02*
X166318D01*
X163765Y249386D01*
X161475Y248064D01*
X159606Y246195D01*
X158284Y243905D01*
X157600Y241352D01*
Y241300D01*
X166370D01*
Y250070D01*
D02*
G37*
G36*
X359522Y255610D02*
X356758D01*
X354087Y254894D01*
X351693Y253512D01*
X349738Y251557D01*
X348356Y249163D01*
X347640Y246492D01*
Y243728D01*
X348356Y241057D01*
X349738Y238663D01*
X351693Y236708D01*
X354087Y235326D01*
X356758Y234610D01*
X359522D01*
X362193Y235326D01*
X364587Y236708D01*
X366542Y238663D01*
X367924Y241057D01*
X368640Y243728D01*
Y246492D01*
X367924Y249163D01*
X366542Y251557D01*
X364587Y253512D01*
X362193Y254894D01*
X359522Y255610D01*
D02*
G37*
G36*
X397622Y254340D02*
X394858D01*
X392187Y253624D01*
X389793Y252242D01*
X387838Y250287D01*
X386456Y247893D01*
X385740Y245222D01*
Y242458D01*
X386456Y239787D01*
X387838Y237393D01*
X389793Y235438D01*
X392187Y234056D01*
X394858Y233340D01*
X397622D01*
X400293Y234056D01*
X402687Y235438D01*
X404642Y237393D01*
X406024Y239787D01*
X406740Y242458D01*
Y245222D01*
X406024Y247893D01*
X404642Y250287D01*
X402687Y252242D01*
X400293Y253624D01*
X397622Y254340D01*
D02*
G37*
G36*
X34352Y389850D02*
X31688D01*
X29114Y389160D01*
X26806Y387828D01*
X24922Y385944D01*
X23590Y383636D01*
X22900Y381062D01*
Y378398D01*
X23590Y375824D01*
X24922Y373516D01*
X26806Y371632D01*
X29114Y370300D01*
X29176Y370283D01*
Y322949D01*
X29176Y322948D01*
X29469Y321477D01*
X30302Y320230D01*
X138620Y211912D01*
X138620Y211912D01*
X139867Y211079D01*
X141338Y210786D01*
X141339Y210786D01*
X158317D01*
X158322Y210770D01*
X159638Y208490D01*
X161500Y206628D01*
X163780Y205312D01*
X166324Y204630D01*
X168957D01*
X171500Y205312D01*
X173780Y206628D01*
X175642Y208490D01*
X176959Y210770D01*
X176963Y210786D01*
X218440D01*
X218440Y210786D01*
X219911Y211079D01*
X221158Y211912D01*
X239966Y230720D01*
X239980Y230711D01*
X242523Y230030D01*
X245156D01*
X247700Y230711D01*
X249980Y232028D01*
X251842Y233890D01*
X253158Y236170D01*
X253840Y238713D01*
Y241346D01*
X253158Y243890D01*
X251842Y246170D01*
X249980Y248032D01*
X247700Y249349D01*
X245156Y250030D01*
X242523D01*
X239980Y249349D01*
X237700Y248032D01*
X235838Y246170D01*
X234522Y243890D01*
X233840Y241346D01*
Y238713D01*
X234522Y236170D01*
X234530Y236156D01*
X216848Y218474D01*
X176963D01*
X176959Y218490D01*
X175642Y220770D01*
X173780Y222632D01*
X171500Y223948D01*
X168957Y224630D01*
X166324D01*
X163780Y223948D01*
X161500Y222632D01*
X159638Y220770D01*
X158322Y218490D01*
X158317Y218474D01*
X142931D01*
X108578Y252827D01*
X109064Y254000D01*
X110490D01*
Y262270D01*
X102220D01*
Y260844D01*
X101047Y260358D01*
X36864Y324541D01*
Y370283D01*
X36926Y370300D01*
X39234Y371632D01*
X41118Y373516D01*
X42450Y375824D01*
X43140Y378398D01*
Y381062D01*
X42450Y383636D01*
X41118Y385944D01*
X39234Y387828D01*
X36926Y389160D01*
X34352Y389850D01*
D02*
G37*
G36*
X177680Y238760D02*
X168910D01*
Y229990D01*
X168962D01*
X171515Y230674D01*
X173805Y231996D01*
X175674Y233865D01*
X176996Y236155D01*
X177680Y238708D01*
Y238760D01*
D02*
G37*
G36*
X166370D02*
X157600D01*
Y238708D01*
X158284Y236155D01*
X159606Y233865D01*
X161475Y231996D01*
X163765Y230674D01*
X166318Y229990D01*
X166370D01*
Y238760D01*
D02*
G37*
G36*
X245162Y224670D02*
X245110D01*
Y215900D01*
X253880D01*
Y215952D01*
X253196Y218505D01*
X251874Y220795D01*
X250005Y222664D01*
X247715Y223986D01*
X245162Y224670D01*
D02*
G37*
G36*
X242570D02*
X242518D01*
X239965Y223986D01*
X237675Y222664D01*
X235806Y220795D01*
X234484Y218505D01*
X233800Y215952D01*
Y215900D01*
X242570D01*
Y224670D01*
D02*
G37*
G36*
X359522Y230210D02*
X356758D01*
X354087Y229494D01*
X351693Y228112D01*
X349738Y226157D01*
X348356Y223763D01*
X347640Y221092D01*
Y218328D01*
X348356Y215657D01*
X349738Y213263D01*
X351693Y211308D01*
X354087Y209926D01*
X356758Y209210D01*
X359522D01*
X362193Y209926D01*
X364587Y211308D01*
X366542Y213263D01*
X367924Y215657D01*
X368640Y218328D01*
Y221092D01*
X367924Y223763D01*
X366542Y226157D01*
X364587Y228112D01*
X362193Y229494D01*
X359522Y230210D01*
D02*
G37*
G36*
X397622Y228940D02*
X394858D01*
X392187Y228224D01*
X389793Y226842D01*
X387838Y224887D01*
X386456Y222493D01*
X385740Y219822D01*
Y217058D01*
X386456Y214387D01*
X387838Y211993D01*
X389793Y210038D01*
X392187Y208656D01*
X394858Y207940D01*
X397622D01*
X400293Y208656D01*
X402687Y210038D01*
X404642Y211993D01*
X406024Y214387D01*
X406740Y217058D01*
Y219822D01*
X406024Y222493D01*
X404642Y224887D01*
X402687Y226842D01*
X400293Y228224D01*
X397622Y228940D01*
D02*
G37*
G36*
X278111Y216510D02*
X275609D01*
X273193Y215863D01*
X271027Y214612D01*
X269258Y212843D01*
X268007Y210677D01*
X267360Y208261D01*
Y205774D01*
X250979D01*
X250453Y207044D01*
X251874Y208465D01*
X253196Y210755D01*
X253880Y213308D01*
Y213360D01*
X233800D01*
Y213308D01*
X234484Y210755D01*
X235806Y208465D01*
X237675Y206596D01*
X238125Y206336D01*
X238174Y204842D01*
X237884Y204648D01*
X237884Y204648D01*
X203310Y170074D01*
X202477Y168827D01*
X202184Y167356D01*
X202184Y167356D01*
Y127610D01*
X171514Y96940D01*
X171500Y96948D01*
X168957Y97630D01*
X166324D01*
X163780Y96948D01*
X161500Y95632D01*
X159638Y93770D01*
X158322Y91490D01*
X157640Y88947D01*
Y86313D01*
X158322Y83770D01*
X159638Y81490D01*
X161500Y79628D01*
X163780Y78312D01*
X166324Y77630D01*
X168957D01*
X171500Y78312D01*
X173780Y79628D01*
X175642Y81490D01*
X176959Y83770D01*
X177640Y86313D01*
Y88947D01*
X176959Y91490D01*
X176950Y91504D01*
X208746Y123300D01*
X208746Y123300D01*
X209579Y124547D01*
X209872Y126018D01*
X209872Y126018D01*
Y165764D01*
X232627Y188519D01*
X233800Y188033D01*
Y187908D01*
X234484Y185355D01*
X235806Y183065D01*
X237675Y181196D01*
X239965Y179874D01*
X242518Y179190D01*
X242570D01*
Y189230D01*
X243840D01*
Y190500D01*
X253880D01*
Y190552D01*
X253196Y193105D01*
X251874Y195395D01*
X250453Y196816D01*
X250979Y198086D01*
X269512D01*
X269512Y198086D01*
X270983Y198379D01*
X271830Y198944D01*
X273193Y198157D01*
X275609Y197510D01*
X278111D01*
X280527Y198157D01*
X282693Y199408D01*
X284462Y201177D01*
X285713Y203343D01*
X286360Y205759D01*
Y208261D01*
X285713Y210677D01*
X284462Y212843D01*
X282693Y214612D01*
X280527Y215863D01*
X278111Y216510D01*
D02*
G37*
G36*
X359522Y204810D02*
X356758D01*
X354087Y204094D01*
X351693Y202712D01*
X349738Y200757D01*
X348356Y198363D01*
X347640Y195692D01*
Y192928D01*
X348356Y190257D01*
X349738Y187863D01*
X351693Y185908D01*
X354087Y184526D01*
X356758Y183810D01*
X359522D01*
X362193Y184526D01*
X364587Y185908D01*
X366542Y187863D01*
X367924Y190257D01*
X368640Y192928D01*
Y195692D01*
X367924Y198363D01*
X366542Y200757D01*
X364587Y202712D01*
X362193Y204094D01*
X359522Y204810D01*
D02*
G37*
G36*
X168957Y199230D02*
X166324D01*
X163780Y198549D01*
X161500Y197232D01*
X159638Y195370D01*
X158322Y193090D01*
X157640Y190546D01*
Y187913D01*
X158322Y185370D01*
X159638Y183090D01*
X161500Y181228D01*
X163780Y179911D01*
X166324Y179230D01*
X168957D01*
X171500Y179911D01*
X173780Y181228D01*
X175642Y183090D01*
X176959Y185370D01*
X177640Y187913D01*
Y190546D01*
X176959Y193090D01*
X175642Y195370D01*
X173780Y197232D01*
X171500Y198549D01*
X168957Y199230D01*
D02*
G37*
G36*
X60697Y189530D02*
X58683D01*
X56737Y189009D01*
X54993Y188001D01*
X53569Y186577D01*
X52561Y184833D01*
X52040Y182887D01*
Y180873D01*
X52561Y178927D01*
X53569Y177183D01*
X54993Y175758D01*
X56737Y174751D01*
X58683Y174230D01*
X60697D01*
X62643Y174751D01*
X64387Y175758D01*
X65812Y177183D01*
X66819Y178927D01*
X67340Y180873D01*
Y182887D01*
X66819Y184833D01*
X65812Y186577D01*
X64387Y188001D01*
X62643Y189009D01*
X60697Y189530D01*
D02*
G37*
G36*
X287310Y188150D02*
X266410D01*
Y173755D01*
X265237Y173269D01*
X253179Y185326D01*
X253196Y185355D01*
X253880Y187908D01*
Y187960D01*
X245110D01*
Y179190D01*
X245162D01*
X247715Y179874D01*
X247743Y179890D01*
X299542Y128092D01*
X299542Y128092D01*
X300789Y127259D01*
X302260Y126966D01*
X339886D01*
X339894Y126935D01*
X341216Y124645D01*
X343085Y122776D01*
X345375Y121454D01*
X345406Y121446D01*
Y70172D01*
X343046Y67812D01*
X341630Y68191D01*
Y60960D01*
X348861D01*
X348482Y62376D01*
X351968Y65862D01*
X351968Y65862D01*
X352801Y67109D01*
X353094Y68580D01*
X353094Y68580D01*
Y121446D01*
X353125Y121454D01*
X355415Y122776D01*
X357284Y124645D01*
X358606Y126935D01*
X359290Y129488D01*
Y129540D01*
X349250D01*
Y130810D01*
X347980D01*
Y140850D01*
X347928D01*
X345375Y140166D01*
X343085Y138844D01*
X341216Y136975D01*
X339894Y134685D01*
X339886Y134654D01*
X303852D01*
X272429Y166077D01*
X272915Y167250D01*
X287310D01*
Y188150D01*
D02*
G37*
G36*
X245156Y173830D02*
X242523D01*
X239980Y173148D01*
X237700Y171832D01*
X235838Y169970D01*
X234522Y167690D01*
X233840Y165147D01*
Y162514D01*
X234522Y159970D01*
X235838Y157690D01*
X237700Y155828D01*
X239980Y154511D01*
X242523Y153830D01*
X245156D01*
X247700Y154511D01*
X249980Y155828D01*
X251842Y157690D01*
X253158Y159970D01*
X253840Y162514D01*
Y165147D01*
X253158Y167690D01*
X251842Y169970D01*
X249980Y171832D01*
X247700Y173148D01*
X245156Y173830D01*
D02*
G37*
G36*
X168957D02*
X166324D01*
X163780Y173148D01*
X161500Y171832D01*
X159638Y169970D01*
X158322Y167690D01*
X157640Y165147D01*
Y162514D01*
X158322Y159970D01*
X159638Y157690D01*
X161500Y155828D01*
X163780Y154511D01*
X166324Y153830D01*
X168957D01*
X171500Y154511D01*
X173780Y155828D01*
X175642Y157690D01*
X176959Y159970D01*
X177640Y162514D01*
Y165147D01*
X176959Y167690D01*
X175642Y169970D01*
X173780Y171832D01*
X171500Y173148D01*
X168957Y173830D01*
D02*
G37*
G36*
X350572Y140850D02*
X350520D01*
Y132080D01*
X359290D01*
Y132132D01*
X358606Y134685D01*
X357284Y136975D01*
X355415Y138844D01*
X353125Y140166D01*
X350572Y140850D01*
D02*
G37*
G36*
X245156Y148430D02*
X242523D01*
X239980Y147748D01*
X237700Y146432D01*
X235838Y144570D01*
X234522Y142290D01*
X233840Y139747D01*
Y137114D01*
X234522Y134570D01*
X235838Y132290D01*
X237700Y130428D01*
X239980Y129111D01*
X242523Y128430D01*
X245156D01*
X247700Y129111D01*
X249980Y130428D01*
X251842Y132290D01*
X253158Y134570D01*
X253840Y137114D01*
Y139747D01*
X253158Y142290D01*
X251842Y144570D01*
X249980Y146432D01*
X247700Y147748D01*
X245156Y148430D01*
D02*
G37*
G36*
X168957D02*
X166324D01*
X163780Y147748D01*
X161500Y146432D01*
X159638Y144570D01*
X158322Y142290D01*
X157640Y139747D01*
Y137114D01*
X158322Y134570D01*
X159638Y132290D01*
X161500Y130428D01*
X163780Y129111D01*
X166324Y128430D01*
X168957D01*
X171500Y129111D01*
X173780Y130428D01*
X175642Y132290D01*
X176959Y134570D01*
X177640Y137114D01*
Y139747D01*
X176959Y142290D01*
X175642Y144570D01*
X173780Y146432D01*
X171500Y147748D01*
X168957Y148430D01*
D02*
G37*
G36*
X60697Y140730D02*
X58683D01*
X56737Y140209D01*
X54993Y139201D01*
X53569Y137777D01*
X52561Y136033D01*
X52040Y134087D01*
Y132073D01*
X52561Y130127D01*
X53569Y128383D01*
X54993Y126959D01*
X56737Y125951D01*
X58683Y125430D01*
X60697D01*
X62643Y125951D01*
X64387Y126959D01*
X65812Y128383D01*
X66819Y130127D01*
X67340Y132073D01*
Y134087D01*
X66819Y136033D01*
X65812Y137777D01*
X64387Y139201D01*
X62643Y140209D01*
X60697Y140730D01*
D02*
G37*
G36*
X124309Y209000D02*
X122071D01*
X119909Y208421D01*
X117971Y207302D01*
X116388Y205719D01*
X115269Y203781D01*
X114690Y201619D01*
Y199381D01*
X115269Y197219D01*
X116388Y195281D01*
X117971Y193698D01*
X119909Y192579D01*
X122071Y192000D01*
X124309D01*
X125843Y192411D01*
X127984Y190270D01*
X127458Y189000D01*
X114690D01*
Y172000D01*
X129116D01*
Y145500D01*
X112150D01*
Y128500D01*
X125055D01*
X125541Y127327D01*
X123303Y125089D01*
X121769Y125500D01*
X119531D01*
X117369Y124921D01*
X115431Y123802D01*
X113848Y122219D01*
X112729Y120281D01*
X112150Y118119D01*
Y115881D01*
X112729Y113719D01*
X113848Y111781D01*
X115431Y110198D01*
X117369Y109079D01*
X119531Y108500D01*
X121769D01*
X123931Y109079D01*
X125869Y110198D01*
X127452Y111781D01*
X128571Y113719D01*
X129150Y115881D01*
Y118119D01*
X128739Y119653D01*
X135678Y126592D01*
X136511Y127839D01*
X136804Y129310D01*
X136804Y129310D01*
Y190730D01*
X136804Y190730D01*
X136511Y192201D01*
X135678Y193448D01*
X135678Y193448D01*
X131279Y197847D01*
X131690Y199381D01*
Y201619D01*
X131111Y203781D01*
X129992Y205719D01*
X128409Y207302D01*
X126471Y208421D01*
X124309Y209000D01*
D02*
G37*
G36*
X375966Y140810D02*
X373334D01*
X370790Y140128D01*
X368510Y138812D01*
X366648Y136950D01*
X365331Y134670D01*
X364650Y132127D01*
Y129494D01*
X365331Y126950D01*
X366648Y124670D01*
X368510Y122808D01*
X370790Y121491D01*
X373334Y120810D01*
X375966D01*
X378510Y121491D01*
X380790Y122808D01*
X382652Y124670D01*
X383969Y126950D01*
X384650Y129494D01*
Y132127D01*
X383969Y134670D01*
X382652Y136950D01*
X380790Y138812D01*
X378510Y140128D01*
X375966Y140810D01*
D02*
G37*
G36*
X245156Y123030D02*
X242523D01*
X239980Y122348D01*
X237700Y121032D01*
X235838Y119170D01*
X234522Y116890D01*
X233840Y114347D01*
Y111713D01*
X234522Y109170D01*
X235838Y106890D01*
X237700Y105028D01*
X239980Y103712D01*
X242523Y103030D01*
X245156D01*
X247700Y103712D01*
X249980Y105028D01*
X251842Y106890D01*
X253158Y109170D01*
X253840Y111713D01*
Y114347D01*
X253158Y116890D01*
X251842Y119170D01*
X249980Y121032D01*
X247700Y122348D01*
X245156Y123030D01*
D02*
G37*
G36*
X168957D02*
X166324D01*
X163780Y122348D01*
X161500Y121032D01*
X159638Y119170D01*
X158322Y116890D01*
X157640Y114347D01*
Y111713D01*
X158322Y109170D01*
X159638Y106890D01*
X161500Y105028D01*
X163780Y103712D01*
X166324Y103030D01*
X168957D01*
X171500Y103712D01*
X173780Y105028D01*
X175642Y106890D01*
X176959Y109170D01*
X177640Y111713D01*
Y114347D01*
X176959Y116890D01*
X175642Y119170D01*
X173780Y121032D01*
X171500Y122348D01*
X168957Y123030D01*
D02*
G37*
G36*
X245156Y97630D02*
X242523D01*
X239980Y96948D01*
X237700Y95632D01*
X235838Y93770D01*
X234522Y91490D01*
X233840Y88947D01*
Y86313D01*
X234522Y83770D01*
X235838Y81490D01*
X237700Y79628D01*
X239980Y78312D01*
X242523Y77630D01*
X245156D01*
X247700Y78312D01*
X249980Y79628D01*
X251842Y81490D01*
X253158Y83770D01*
X253840Y86313D01*
Y88947D01*
X253158Y91490D01*
X251842Y93770D01*
X249980Y95632D01*
X247700Y96948D01*
X245156Y97630D01*
D02*
G37*
G36*
X278236Y84210D02*
X275484D01*
X272826Y83498D01*
X270444Y82122D01*
X268498Y80176D01*
X267122Y77793D01*
X266410Y75136D01*
Y72384D01*
X267122Y69727D01*
X268498Y67344D01*
X270444Y65398D01*
X272826Y64022D01*
X275484Y63310D01*
X278236D01*
X280893Y64022D01*
X283276Y65398D01*
X285222Y67344D01*
X286598Y69727D01*
X287310Y72384D01*
Y75136D01*
X286598Y77793D01*
X285222Y80176D01*
X283276Y82122D01*
X280893Y83498D01*
X278236Y84210D01*
D02*
G37*
G36*
X339090Y68191D02*
X337064Y67648D01*
X335116Y66524D01*
X333526Y64934D01*
X332402Y62986D01*
X331859Y60960D01*
X339090D01*
Y68191D01*
D02*
G37*
G36*
X245156Y72230D02*
X242523D01*
X239980Y71549D01*
X237700Y70232D01*
X235838Y68370D01*
X234522Y66090D01*
X233840Y63547D01*
Y60914D01*
X234522Y58370D01*
X235838Y56090D01*
X237700Y54228D01*
X239980Y52912D01*
X242523Y52230D01*
X245156D01*
X247700Y52912D01*
X249980Y54228D01*
X251842Y56090D01*
X253158Y58370D01*
X253840Y60914D01*
Y63547D01*
X253158Y66090D01*
X251842Y68370D01*
X249980Y70232D01*
X247700Y71549D01*
X245156Y72230D01*
D02*
G37*
G36*
X168957D02*
X166324D01*
X163780Y71549D01*
X161500Y70232D01*
X159638Y68370D01*
X158322Y66090D01*
X157640Y63547D01*
Y60914D01*
X158322Y58370D01*
X159638Y56090D01*
X161500Y54228D01*
X163780Y52912D01*
X166324Y52230D01*
X168957D01*
X171500Y52912D01*
X173780Y54228D01*
X175642Y56090D01*
X176959Y58370D01*
X177640Y60914D01*
Y63547D01*
X176959Y66090D01*
X175642Y68370D01*
X173780Y70232D01*
X171500Y71549D01*
X168957Y72230D01*
D02*
G37*
G36*
X404819Y68190D02*
X402581D01*
X400419Y67611D01*
X398481Y66492D01*
X396898Y64909D01*
X395779Y62971D01*
X395200Y60809D01*
Y58571D01*
X395779Y56409D01*
X396898Y54471D01*
X398481Y52888D01*
X400419Y51769D01*
X402581Y51190D01*
X404819D01*
X406981Y51769D01*
X408919Y52888D01*
X410502Y54471D01*
X411621Y56409D01*
X412200Y58571D01*
Y60809D01*
X411621Y62971D01*
X410502Y64909D01*
X408919Y66492D01*
X406981Y67611D01*
X404819Y68190D01*
D02*
G37*
G36*
X403800Y140932D02*
X396300D01*
X393861Y140447D01*
X391794Y139066D01*
X390413Y136999D01*
X389928Y134560D01*
Y127060D01*
X390413Y124621D01*
X391794Y122554D01*
X393861Y121173D01*
X396206Y120706D01*
Y77632D01*
X386764Y68190D01*
X375200D01*
Y51190D01*
X392200D01*
Y62754D01*
X402768Y73322D01*
X402768Y73322D01*
X403601Y74569D01*
X403894Y76040D01*
X403894Y76040D01*
Y120706D01*
X406239Y121173D01*
X408306Y122554D01*
X409687Y124621D01*
X410172Y127060D01*
Y134560D01*
X409687Y136999D01*
X408306Y139066D01*
X406239Y140447D01*
X403800Y140932D01*
D02*
G37*
G36*
X328860Y68190D02*
X311860D01*
Y51190D01*
X328860D01*
Y68190D01*
D02*
G37*
G36*
X348861Y58420D02*
X341630D01*
Y51189D01*
X343656Y51732D01*
X345604Y52856D01*
X347194Y54446D01*
X348318Y56394D01*
X348861Y58420D01*
D02*
G37*
G36*
X339090D02*
X331859D01*
X332402Y56394D01*
X333526Y54446D01*
X335116Y52856D01*
X337064Y51732D01*
X339090Y51189D01*
Y58420D01*
D02*
G37*
%LPD*%
D15*
X33020Y322948D02*
Y379730D01*
Y322948D02*
X141338Y214630D01*
X167640D01*
X395982Y417830D02*
X417830Y395982D01*
X64861Y417830D02*
X395982D01*
X417830Y298450D02*
Y395982D01*
X359410Y407670D02*
X393700Y373380D01*
X228818Y407670D02*
X359410D01*
X227330Y350520D02*
Y406182D01*
X228818Y407670D01*
X393700Y322580D02*
X417830Y298450D01*
X396240Y193040D02*
X417830Y214630D01*
Y298450D01*
X243840Y189230D02*
X302260Y130810D01*
X349250D01*
Y68580D02*
Y130810D01*
X340360Y59690D02*
X349250Y68580D01*
X400050Y76040D02*
Y130810D01*
X383700Y59690D02*
X400050Y76040D01*
X206028Y167356D02*
X240602Y201930D01*
X269512D02*
X274592Y207010D01*
X240602Y201930D02*
X269512D01*
X206028Y126018D02*
Y167356D01*
X274592Y207010D02*
X276860D01*
X167640Y87630D02*
X206028Y126018D01*
X167640Y214630D02*
X218440D01*
X243840Y240030D01*
X167640Y290830D02*
X227330Y350520D01*
X123190Y200500D02*
X132960Y190730D01*
Y129310D02*
Y190730D01*
X120650Y117000D02*
X132960Y129310D01*
D16*
X340360Y59690D02*
D03*
X403700D02*
D03*
X120650Y117000D02*
D03*
X123190Y200500D02*
D03*
D17*
X320360Y59690D02*
D03*
X383700D02*
D03*
D18*
X120650Y137000D02*
D03*
X123190Y180500D02*
D03*
D26*
X276860Y207010D02*
D03*
X111760Y376540D02*
D03*
D27*
X276860Y320010D02*
D03*
X111760Y263540D02*
D03*
D30*
X349250Y130810D02*
D03*
X374650D02*
D03*
X243840Y62230D02*
D03*
Y87630D02*
D03*
Y113030D02*
D03*
Y138430D02*
D03*
Y163830D02*
D03*
Y189230D02*
D03*
Y214630D02*
D03*
Y240030D02*
D03*
Y265430D02*
D03*
Y290830D02*
D03*
Y316230D02*
D03*
Y341630D02*
D03*
Y367030D02*
D03*
Y392430D02*
D03*
X167640Y62230D02*
D03*
Y87630D02*
D03*
Y113030D02*
D03*
Y138430D02*
D03*
Y163830D02*
D03*
Y189230D02*
D03*
Y214630D02*
D03*
Y240030D02*
D03*
Y265430D02*
D03*
Y290830D02*
D03*
Y316230D02*
D03*
Y341630D02*
D03*
Y367030D02*
D03*
D31*
X400050Y130810D02*
D03*
D32*
X64861Y417830D02*
D03*
X63500Y379730D02*
D03*
X33020D02*
D03*
D33*
X396240Y193040D02*
D03*
Y218440D02*
D03*
Y243840D02*
D03*
X358140Y194310D02*
D03*
Y219710D02*
D03*
Y245110D02*
D03*
X393700Y322580D02*
D03*
Y347980D02*
D03*
Y373380D02*
D03*
D34*
X396240Y269240D02*
D03*
X358140Y270510D02*
D03*
X393700Y398780D02*
D03*
D35*
X276860Y73760D02*
D03*
D36*
Y177700D02*
D03*
D37*
X167640Y392430D02*
D03*
D38*
X59690Y133080D02*
D03*
Y181880D02*
D03*
M02*
