G04*
G04 #@! TF.GenerationSoftware,Altium Limited,Altium Designer,23.4.1 (23)*
G04*
G04 Layer_Color=16711935*
%FSLAX44Y44*%
%MOMM*%
G71*
G04*
G04 #@! TF.SameCoordinates,99EBD1B5-C4FE-4FA8-BA42-E2C8A1C5BD1C*
G04*
G04*
G04 #@! TF.FilePolarity,Positive*
G04*
G01*
G75*
%ADD12C,0.2000*%
G36*
X333531Y64418D02*
X333614Y64409D01*
X333716Y64400D01*
X333818Y64390D01*
X333938Y64363D01*
X334188Y64307D01*
X334465Y64224D01*
X334604Y64169D01*
X334733Y64104D01*
X334863Y64021D01*
X334992Y63937D01*
X335001Y63928D01*
X335020Y63919D01*
X335057Y63891D01*
X335103Y63845D01*
X335149Y63799D01*
X335214Y63734D01*
X335279Y63660D01*
X335353Y63586D01*
X335427Y63494D01*
X335500Y63383D01*
X335584Y63272D01*
X335658Y63151D01*
X335722Y63013D01*
X335796Y62874D01*
X335852Y62726D01*
X335907Y62560D01*
X335075Y62366D01*
Y62375D01*
X335066Y62393D01*
X335047Y62430D01*
X335029Y62477D01*
X335010Y62532D01*
X334983Y62606D01*
X334909Y62754D01*
X334816Y62920D01*
X334705Y63087D01*
X334567Y63244D01*
X334419Y63383D01*
X334400Y63401D01*
X334345Y63438D01*
X334252Y63484D01*
X334132Y63549D01*
X333975Y63604D01*
X333799Y63660D01*
X333587Y63697D01*
X333356Y63706D01*
X333282D01*
X333235Y63697D01*
X333171D01*
X333097Y63688D01*
X332921Y63660D01*
X332727Y63623D01*
X332523Y63558D01*
X332311Y63466D01*
X332117Y63346D01*
X332107D01*
X332098Y63327D01*
X332033Y63281D01*
X331950Y63207D01*
X331848Y63096D01*
X331728Y62957D01*
X331617Y62800D01*
X331516Y62606D01*
X331423Y62393D01*
Y62384D01*
X331414Y62366D01*
X331405Y62338D01*
X331395Y62292D01*
X331377Y62236D01*
X331358Y62172D01*
X331331Y62014D01*
X331294Y61829D01*
X331257Y61626D01*
X331238Y61404D01*
X331229Y61164D01*
Y61154D01*
Y61127D01*
Y61080D01*
Y61025D01*
X331238Y60960D01*
Y60877D01*
X331248Y60785D01*
X331257Y60683D01*
X331285Y60461D01*
X331331Y60221D01*
X331386Y59980D01*
X331460Y59740D01*
Y59731D01*
X331469Y59712D01*
X331488Y59684D01*
X331506Y59638D01*
X331562Y59527D01*
X331645Y59398D01*
X331747Y59250D01*
X331876Y59093D01*
X332024Y58954D01*
X332200Y58825D01*
X332209D01*
X332228Y58815D01*
X332255Y58797D01*
X332292Y58778D01*
X332339Y58760D01*
X332394Y58732D01*
X332523Y58677D01*
X332690Y58621D01*
X332875Y58575D01*
X333078Y58538D01*
X333291Y58529D01*
X333356D01*
X333411Y58538D01*
X333476D01*
X333540Y58547D01*
X333707Y58584D01*
X333901Y58630D01*
X334095Y58704D01*
X334299Y58806D01*
X334400Y58862D01*
X334493Y58935D01*
X334502Y58945D01*
X334511Y58954D01*
X334539Y58982D01*
X334576Y59009D01*
X334613Y59056D01*
X334659Y59111D01*
X334715Y59167D01*
X334761Y59241D01*
X334816Y59324D01*
X334881Y59416D01*
X334937Y59509D01*
X334992Y59620D01*
X335038Y59740D01*
X335084Y59869D01*
X335131Y60008D01*
X335168Y60156D01*
X336018Y59943D01*
Y59934D01*
X336009Y59897D01*
X335991Y59842D01*
X335963Y59768D01*
X335935Y59684D01*
X335898Y59583D01*
X335852Y59472D01*
X335796Y59352D01*
X335667Y59093D01*
X335500Y58834D01*
X335399Y58704D01*
X335297Y58575D01*
X335186Y58464D01*
X335057Y58353D01*
X335047Y58344D01*
X335029Y58325D01*
X334983Y58307D01*
X334937Y58270D01*
X334863Y58224D01*
X334789Y58177D01*
X334687Y58131D01*
X334585Y58085D01*
X334465Y58029D01*
X334336Y57983D01*
X334197Y57937D01*
X334049Y57891D01*
X333892Y57854D01*
X333725Y57835D01*
X333550Y57817D01*
X333365Y57808D01*
X333263D01*
X333189Y57817D01*
X333106D01*
X333004Y57826D01*
X332893Y57845D01*
X332764Y57863D01*
X332496Y57909D01*
X332218Y57983D01*
X331941Y58085D01*
X331812Y58150D01*
X331682Y58224D01*
X331673Y58233D01*
X331654Y58242D01*
X331617Y58270D01*
X331580Y58307D01*
X331525Y58344D01*
X331460Y58399D01*
X331386Y58464D01*
X331312Y58538D01*
X331238Y58621D01*
X331155Y58704D01*
X330989Y58917D01*
X330831Y59167D01*
X330693Y59444D01*
Y59453D01*
X330674Y59481D01*
X330665Y59527D01*
X330637Y59583D01*
X330619Y59657D01*
X330591Y59749D01*
X330554Y59851D01*
X330526Y59962D01*
X330499Y60082D01*
X330462Y60221D01*
X330415Y60507D01*
X330378Y60831D01*
X330360Y61164D01*
Y61173D01*
Y61210D01*
Y61265D01*
X330369Y61330D01*
Y61423D01*
X330378Y61515D01*
X330388Y61635D01*
X330406Y61755D01*
X330452Y62024D01*
X330517Y62319D01*
X330610Y62615D01*
X330739Y62902D01*
X330748Y62911D01*
X330758Y62939D01*
X330776Y62976D01*
X330813Y63022D01*
X330850Y63087D01*
X330896Y63161D01*
X331016Y63327D01*
X331174Y63512D01*
X331358Y63697D01*
X331571Y63882D01*
X331821Y64039D01*
X331830Y64048D01*
X331858Y64058D01*
X331895Y64076D01*
X331941Y64104D01*
X332015Y64131D01*
X332089Y64159D01*
X332181Y64196D01*
X332283Y64233D01*
X332394Y64270D01*
X332514Y64307D01*
X332773Y64363D01*
X333069Y64409D01*
X333374Y64427D01*
X333466D01*
X333531Y64418D01*
D02*
G37*
G36*
X340040Y60174D02*
X340909D01*
Y59453D01*
X340040D01*
Y57919D01*
X339254D01*
Y59453D01*
X336471D01*
Y60174D01*
X339402Y64317D01*
X340040D01*
Y60174D01*
D02*
G37*
G36*
X396871Y64418D02*
X396954Y64409D01*
X397056Y64400D01*
X397158Y64390D01*
X397278Y64363D01*
X397528Y64307D01*
X397805Y64224D01*
X397944Y64169D01*
X398073Y64104D01*
X398203Y64021D01*
X398332Y63937D01*
X398341Y63928D01*
X398360Y63919D01*
X398397Y63891D01*
X398443Y63845D01*
X398489Y63799D01*
X398554Y63734D01*
X398619Y63660D01*
X398693Y63586D01*
X398767Y63494D01*
X398841Y63383D01*
X398924Y63272D01*
X398998Y63151D01*
X399062Y63013D01*
X399136Y62874D01*
X399192Y62726D01*
X399247Y62560D01*
X398415Y62366D01*
Y62375D01*
X398406Y62393D01*
X398387Y62430D01*
X398369Y62477D01*
X398350Y62532D01*
X398323Y62606D01*
X398249Y62754D01*
X398156Y62920D01*
X398045Y63087D01*
X397907Y63244D01*
X397759Y63383D01*
X397740Y63401D01*
X397685Y63438D01*
X397592Y63484D01*
X397472Y63549D01*
X397315Y63604D01*
X397139Y63660D01*
X396927Y63697D01*
X396696Y63706D01*
X396622D01*
X396575Y63697D01*
X396511D01*
X396437Y63688D01*
X396261Y63660D01*
X396067Y63623D01*
X395863Y63558D01*
X395651Y63466D01*
X395457Y63346D01*
X395447D01*
X395438Y63327D01*
X395373Y63281D01*
X395290Y63207D01*
X395188Y63096D01*
X395068Y62957D01*
X394957Y62800D01*
X394856Y62606D01*
X394763Y62393D01*
Y62384D01*
X394754Y62366D01*
X394745Y62338D01*
X394735Y62292D01*
X394717Y62236D01*
X394698Y62172D01*
X394671Y62014D01*
X394634Y61829D01*
X394597Y61626D01*
X394578Y61404D01*
X394569Y61164D01*
Y61154D01*
Y61127D01*
Y61080D01*
Y61025D01*
X394578Y60960D01*
Y60877D01*
X394588Y60785D01*
X394597Y60683D01*
X394625Y60461D01*
X394671Y60221D01*
X394726Y59980D01*
X394800Y59740D01*
Y59731D01*
X394809Y59712D01*
X394828Y59684D01*
X394846Y59638D01*
X394902Y59527D01*
X394985Y59398D01*
X395087Y59250D01*
X395216Y59093D01*
X395364Y58954D01*
X395540Y58825D01*
X395549D01*
X395568Y58815D01*
X395595Y58797D01*
X395632Y58778D01*
X395679Y58760D01*
X395734Y58732D01*
X395863Y58677D01*
X396030Y58621D01*
X396215Y58575D01*
X396418Y58538D01*
X396631Y58529D01*
X396696D01*
X396751Y58538D01*
X396816D01*
X396880Y58547D01*
X397047Y58584D01*
X397241Y58630D01*
X397435Y58704D01*
X397639Y58806D01*
X397740Y58862D01*
X397833Y58935D01*
X397842Y58945D01*
X397851Y58954D01*
X397879Y58982D01*
X397916Y59009D01*
X397953Y59056D01*
X397999Y59111D01*
X398055Y59167D01*
X398101Y59241D01*
X398156Y59324D01*
X398221Y59416D01*
X398277Y59509D01*
X398332Y59620D01*
X398378Y59740D01*
X398424Y59869D01*
X398471Y60008D01*
X398508Y60156D01*
X399358Y59943D01*
Y59934D01*
X399349Y59897D01*
X399331Y59842D01*
X399303Y59768D01*
X399275Y59684D01*
X399238Y59583D01*
X399192Y59472D01*
X399136Y59352D01*
X399007Y59093D01*
X398841Y58834D01*
X398739Y58704D01*
X398637Y58575D01*
X398526Y58464D01*
X398397Y58353D01*
X398387Y58344D01*
X398369Y58325D01*
X398323Y58307D01*
X398277Y58270D01*
X398203Y58224D01*
X398129Y58177D01*
X398027Y58131D01*
X397925Y58085D01*
X397805Y58029D01*
X397676Y57983D01*
X397537Y57937D01*
X397389Y57891D01*
X397232Y57854D01*
X397065Y57835D01*
X396890Y57817D01*
X396705Y57808D01*
X396603D01*
X396529Y57817D01*
X396446D01*
X396344Y57826D01*
X396233Y57845D01*
X396104Y57863D01*
X395836Y57909D01*
X395558Y57983D01*
X395281Y58085D01*
X395152Y58150D01*
X395022Y58224D01*
X395013Y58233D01*
X394994Y58242D01*
X394957Y58270D01*
X394920Y58307D01*
X394865Y58344D01*
X394800Y58399D01*
X394726Y58464D01*
X394652Y58538D01*
X394578Y58621D01*
X394495Y58704D01*
X394329Y58917D01*
X394171Y59167D01*
X394033Y59444D01*
Y59453D01*
X394014Y59481D01*
X394005Y59527D01*
X393977Y59583D01*
X393959Y59657D01*
X393931Y59749D01*
X393894Y59851D01*
X393866Y59962D01*
X393839Y60082D01*
X393802Y60221D01*
X393755Y60507D01*
X393718Y60831D01*
X393700Y61164D01*
Y61173D01*
Y61210D01*
Y61265D01*
X393709Y61330D01*
Y61423D01*
X393718Y61515D01*
X393728Y61635D01*
X393746Y61755D01*
X393792Y62024D01*
X393857Y62319D01*
X393950Y62615D01*
X394079Y62902D01*
X394088Y62911D01*
X394098Y62939D01*
X394116Y62976D01*
X394153Y63022D01*
X394190Y63087D01*
X394236Y63161D01*
X394356Y63327D01*
X394514Y63512D01*
X394698Y63697D01*
X394911Y63882D01*
X395161Y64039D01*
X395170Y64048D01*
X395198Y64058D01*
X395235Y64076D01*
X395281Y64104D01*
X395355Y64131D01*
X395429Y64159D01*
X395521Y64196D01*
X395623Y64233D01*
X395734Y64270D01*
X395854Y64307D01*
X396113Y64363D01*
X396409Y64409D01*
X396714Y64427D01*
X396806D01*
X396871Y64418D01*
D02*
G37*
G36*
X402280Y64335D02*
X402400Y64317D01*
X402548Y64289D01*
X402715Y64243D01*
X402881Y64187D01*
X403047Y64113D01*
X403056D01*
X403066Y64104D01*
X403121Y64076D01*
X403204Y64021D01*
X403297Y63956D01*
X403408Y63863D01*
X403519Y63762D01*
X403630Y63642D01*
X403722Y63503D01*
X403731Y63484D01*
X403759Y63438D01*
X403796Y63355D01*
X403842Y63253D01*
X403889Y63133D01*
X403926Y62994D01*
X403953Y62837D01*
X403963Y62680D01*
Y62661D01*
Y62606D01*
X403953Y62532D01*
X403935Y62430D01*
X403907Y62310D01*
X403861Y62181D01*
X403805Y62051D01*
X403731Y61922D01*
X403722Y61903D01*
X403694Y61866D01*
X403639Y61802D01*
X403565Y61728D01*
X403473Y61645D01*
X403362Y61552D01*
X403232Y61469D01*
X403075Y61386D01*
X403084D01*
X403103Y61376D01*
X403130Y61367D01*
X403167Y61358D01*
X403269Y61321D01*
X403399Y61265D01*
X403547Y61191D01*
X403694Y61099D01*
X403833Y60979D01*
X403963Y60840D01*
X403972Y60822D01*
X404009Y60766D01*
X404064Y60674D01*
X404120Y60553D01*
X404175Y60406D01*
X404231Y60230D01*
X404268Y60026D01*
X404277Y59805D01*
Y59795D01*
Y59768D01*
Y59721D01*
X404268Y59666D01*
X404258Y59592D01*
X404240Y59509D01*
X404221Y59416D01*
X404203Y59315D01*
X404129Y59093D01*
X404074Y58973D01*
X404018Y58862D01*
X403944Y58741D01*
X403861Y58621D01*
X403769Y58501D01*
X403657Y58390D01*
X403648Y58381D01*
X403630Y58362D01*
X403593Y58335D01*
X403547Y58298D01*
X403491Y58251D01*
X403417Y58205D01*
X403334Y58150D01*
X403232Y58103D01*
X403130Y58048D01*
X403010Y57993D01*
X402890Y57946D01*
X402751Y57900D01*
X402603Y57863D01*
X402446Y57835D01*
X402289Y57817D01*
X402113Y57808D01*
X402030D01*
X401975Y57817D01*
X401901Y57826D01*
X401818Y57835D01*
X401725Y57854D01*
X401623Y57872D01*
X401402Y57928D01*
X401170Y58020D01*
X401050Y58076D01*
X400939Y58140D01*
X400828Y58224D01*
X400717Y58307D01*
X400708Y58316D01*
X400690Y58335D01*
X400662Y58362D01*
X400634Y58399D01*
X400588Y58446D01*
X400542Y58510D01*
X400486Y58575D01*
X400431Y58658D01*
X400375Y58751D01*
X400320Y58843D01*
X400218Y59065D01*
X400135Y59324D01*
X400107Y59462D01*
X400089Y59610D01*
X400875Y59712D01*
Y59703D01*
X400884Y59684D01*
X400893Y59647D01*
X400902Y59601D01*
X400912Y59546D01*
X400930Y59481D01*
X400976Y59342D01*
X401041Y59176D01*
X401124Y59019D01*
X401217Y58871D01*
X401328Y58741D01*
X401346Y58732D01*
X401383Y58695D01*
X401457Y58649D01*
X401549Y58603D01*
X401660Y58547D01*
X401799Y58501D01*
X401956Y58464D01*
X402123Y58455D01*
X402178D01*
X402215Y58464D01*
X402317Y58473D01*
X402446Y58501D01*
X402594Y58547D01*
X402751Y58612D01*
X402909Y58704D01*
X403056Y58834D01*
X403075Y58852D01*
X403121Y58908D01*
X403177Y58991D01*
X403251Y59102D01*
X403325Y59241D01*
X403380Y59398D01*
X403426Y59583D01*
X403445Y59786D01*
Y59795D01*
Y59814D01*
Y59842D01*
X403436Y59879D01*
X403426Y59980D01*
X403399Y60100D01*
X403362Y60248D01*
X403297Y60396D01*
X403204Y60544D01*
X403084Y60683D01*
X403066Y60701D01*
X403020Y60738D01*
X402946Y60794D01*
X402844Y60859D01*
X402715Y60923D01*
X402557Y60979D01*
X402382Y61016D01*
X402188Y61034D01*
X402104D01*
X402039Y61025D01*
X401956Y61016D01*
X401864Y60997D01*
X401753Y60979D01*
X401633Y60951D01*
X401725Y61645D01*
X401771D01*
X401808Y61635D01*
X401929D01*
X402030Y61654D01*
X402150Y61672D01*
X402289Y61700D01*
X402446Y61746D01*
X402594Y61811D01*
X402751Y61894D01*
X402761D01*
X402770Y61903D01*
X402816Y61940D01*
X402881Y62005D01*
X402955Y62088D01*
X403029Y62208D01*
X403093Y62347D01*
X403140Y62504D01*
X403158Y62597D01*
Y62698D01*
Y62708D01*
Y62717D01*
Y62772D01*
X403140Y62846D01*
X403121Y62948D01*
X403084Y63059D01*
X403038Y63179D01*
X402964Y63299D01*
X402862Y63410D01*
X402853Y63420D01*
X402807Y63457D01*
X402742Y63503D01*
X402659Y63558D01*
X402548Y63604D01*
X402419Y63651D01*
X402271Y63688D01*
X402104Y63697D01*
X402030D01*
X401947Y63678D01*
X401836Y63660D01*
X401716Y63623D01*
X401596Y63577D01*
X401466Y63503D01*
X401346Y63410D01*
X401337Y63401D01*
X401300Y63355D01*
X401244Y63290D01*
X401180Y63198D01*
X401115Y63078D01*
X401050Y62930D01*
X400995Y62754D01*
X400958Y62551D01*
X400172Y62689D01*
Y62698D01*
X400181Y62726D01*
X400190Y62763D01*
X400200Y62819D01*
X400218Y62883D01*
X400246Y62957D01*
X400301Y63133D01*
X400394Y63336D01*
X400505Y63540D01*
X400643Y63734D01*
X400819Y63910D01*
X400828Y63919D01*
X400847Y63928D01*
X400875Y63947D01*
X400912Y63974D01*
X400958Y64011D01*
X401022Y64048D01*
X401087Y64085D01*
X401170Y64131D01*
X401355Y64205D01*
X401568Y64279D01*
X401818Y64326D01*
X401947Y64344D01*
X402178D01*
X402280Y64335D01*
D02*
G37*
G36*
X122290Y126991D02*
X122383D01*
X122475Y126981D01*
X122595Y126972D01*
X122715Y126954D01*
X122984Y126908D01*
X123279Y126843D01*
X123575Y126750D01*
X123862Y126621D01*
X123871Y126612D01*
X123899Y126602D01*
X123936Y126584D01*
X123982Y126547D01*
X124047Y126510D01*
X124121Y126464D01*
X124287Y126344D01*
X124472Y126186D01*
X124657Y126002D01*
X124842Y125789D01*
X124999Y125539D01*
X125008Y125530D01*
X125018Y125502D01*
X125036Y125465D01*
X125064Y125419D01*
X125091Y125345D01*
X125119Y125271D01*
X125156Y125179D01*
X125193Y125077D01*
X125230Y124966D01*
X125267Y124846D01*
X125323Y124587D01*
X125369Y124291D01*
X125387Y123986D01*
Y123893D01*
X125378Y123829D01*
X125369Y123745D01*
X125360Y123644D01*
X125350Y123542D01*
X125323Y123422D01*
X125267Y123172D01*
X125184Y122895D01*
X125128Y122756D01*
X125064Y122627D01*
X124981Y122497D01*
X124897Y122368D01*
X124888Y122359D01*
X124879Y122340D01*
X124851Y122303D01*
X124805Y122257D01*
X124759Y122211D01*
X124694Y122146D01*
X124620Y122081D01*
X124546Y122007D01*
X124454Y121933D01*
X124343Y121859D01*
X124232Y121776D01*
X124111Y121702D01*
X123973Y121638D01*
X123834Y121564D01*
X123686Y121508D01*
X123520Y121453D01*
X123326Y122285D01*
X123335D01*
X123353Y122294D01*
X123390Y122312D01*
X123437Y122331D01*
X123492Y122350D01*
X123566Y122377D01*
X123714Y122451D01*
X123880Y122544D01*
X124047Y122655D01*
X124204Y122793D01*
X124343Y122941D01*
X124361Y122960D01*
X124398Y123015D01*
X124444Y123108D01*
X124509Y123228D01*
X124565Y123385D01*
X124620Y123561D01*
X124657Y123773D01*
X124666Y124004D01*
Y124078D01*
X124657Y124125D01*
Y124189D01*
X124648Y124263D01*
X124620Y124439D01*
X124583Y124633D01*
X124518Y124837D01*
X124426Y125049D01*
X124306Y125243D01*
Y125253D01*
X124287Y125262D01*
X124241Y125326D01*
X124167Y125410D01*
X124056Y125512D01*
X123917Y125632D01*
X123760Y125743D01*
X123566Y125844D01*
X123353Y125937D01*
X123344D01*
X123326Y125946D01*
X123298Y125955D01*
X123252Y125964D01*
X123196Y125983D01*
X123132Y126002D01*
X122974Y126029D01*
X122789Y126066D01*
X122586Y126103D01*
X122364Y126122D01*
X122124Y126131D01*
X122114D01*
X122087D01*
X122041D01*
X121985D01*
X121920Y126122D01*
X121837D01*
X121745Y126112D01*
X121643Y126103D01*
X121421Y126075D01*
X121181Y126029D01*
X120940Y125974D01*
X120700Y125900D01*
X120691D01*
X120672Y125891D01*
X120644Y125872D01*
X120598Y125854D01*
X120487Y125798D01*
X120358Y125715D01*
X120210Y125613D01*
X120053Y125484D01*
X119914Y125336D01*
X119785Y125160D01*
Y125151D01*
X119775Y125132D01*
X119757Y125105D01*
X119738Y125068D01*
X119720Y125021D01*
X119692Y124966D01*
X119637Y124837D01*
X119581Y124670D01*
X119535Y124485D01*
X119498Y124282D01*
X119489Y124069D01*
Y124004D01*
X119498Y123949D01*
Y123884D01*
X119507Y123820D01*
X119544Y123653D01*
X119590Y123459D01*
X119664Y123265D01*
X119766Y123061D01*
X119822Y122960D01*
X119895Y122867D01*
X119905Y122858D01*
X119914Y122849D01*
X119942Y122821D01*
X119970Y122784D01*
X120016Y122747D01*
X120071Y122701D01*
X120127Y122645D01*
X120201Y122599D01*
X120284Y122544D01*
X120376Y122479D01*
X120469Y122423D01*
X120580Y122368D01*
X120700Y122322D01*
X120829Y122275D01*
X120968Y122229D01*
X121116Y122192D01*
X120903Y121342D01*
X120894D01*
X120857Y121351D01*
X120802Y121369D01*
X120728Y121397D01*
X120644Y121425D01*
X120543Y121462D01*
X120432Y121508D01*
X120312Y121564D01*
X120053Y121693D01*
X119794Y121859D01*
X119664Y121961D01*
X119535Y122063D01*
X119424Y122174D01*
X119313Y122303D01*
X119304Y122312D01*
X119285Y122331D01*
X119267Y122377D01*
X119230Y122423D01*
X119184Y122497D01*
X119137Y122571D01*
X119091Y122673D01*
X119045Y122775D01*
X118989Y122895D01*
X118943Y123024D01*
X118897Y123163D01*
X118851Y123311D01*
X118814Y123468D01*
X118795Y123635D01*
X118777Y123810D01*
X118768Y123995D01*
Y124097D01*
X118777Y124171D01*
Y124254D01*
X118786Y124356D01*
X118805Y124467D01*
X118823Y124596D01*
X118869Y124864D01*
X118943Y125142D01*
X119045Y125419D01*
X119110Y125548D01*
X119184Y125678D01*
X119193Y125687D01*
X119202Y125706D01*
X119230Y125743D01*
X119267Y125780D01*
X119304Y125835D01*
X119359Y125900D01*
X119424Y125974D01*
X119498Y126048D01*
X119581Y126122D01*
X119664Y126205D01*
X119877Y126371D01*
X120127Y126529D01*
X120404Y126667D01*
X120413D01*
X120441Y126686D01*
X120487Y126695D01*
X120543Y126723D01*
X120617Y126741D01*
X120709Y126769D01*
X120811Y126806D01*
X120922Y126834D01*
X121042Y126861D01*
X121181Y126898D01*
X121467Y126945D01*
X121791Y126981D01*
X122124Y127000D01*
X122133D01*
X122170D01*
X122225D01*
X122290Y126991D01*
D02*
G37*
G36*
X119054Y120722D02*
X119137Y120713D01*
X119230Y120695D01*
X119322Y120676D01*
X119424Y120639D01*
X119433D01*
X119443Y120630D01*
X119498Y120611D01*
X119581Y120574D01*
X119692Y120519D01*
X119822Y120445D01*
X119970Y120352D01*
X120117Y120251D01*
X120275Y120121D01*
X120284D01*
X120293Y120103D01*
X120349Y120057D01*
X120432Y119973D01*
X120552Y119853D01*
X120691Y119714D01*
X120857Y119539D01*
X121042Y119326D01*
X121236Y119095D01*
X121245Y119086D01*
X121273Y119049D01*
X121319Y118993D01*
X121375Y118929D01*
X121449Y118845D01*
X121532Y118744D01*
X121624Y118642D01*
X121726Y118522D01*
X121948Y118291D01*
X122170Y118060D01*
X122281Y117949D01*
X122392Y117847D01*
X122493Y117754D01*
X122595Y117680D01*
X122605D01*
X122614Y117662D01*
X122641Y117643D01*
X122678Y117625D01*
X122780Y117560D01*
X122900Y117486D01*
X123048Y117422D01*
X123205Y117357D01*
X123381Y117320D01*
X123547Y117301D01*
X123557D01*
X123566D01*
X123622Y117311D01*
X123714Y117320D01*
X123816Y117348D01*
X123945Y117385D01*
X124074Y117449D01*
X124204Y117533D01*
X124333Y117643D01*
X124352Y117662D01*
X124389Y117708D01*
X124435Y117773D01*
X124500Y117875D01*
X124555Y118004D01*
X124611Y118152D01*
X124648Y118328D01*
X124657Y118522D01*
Y118577D01*
X124648Y118614D01*
X124639Y118725D01*
X124611Y118855D01*
X124574Y118993D01*
X124509Y119150D01*
X124426Y119298D01*
X124315Y119437D01*
X124296Y119456D01*
X124250Y119493D01*
X124176Y119548D01*
X124065Y119604D01*
X123936Y119668D01*
X123769Y119724D01*
X123584Y119761D01*
X123372Y119779D01*
X123455Y120584D01*
X123464D01*
X123492Y120574D01*
X123538D01*
X123603Y120565D01*
X123677Y120547D01*
X123760Y120528D01*
X123862Y120500D01*
X123964Y120473D01*
X124185Y120399D01*
X124407Y120288D01*
X124518Y120223D01*
X124629Y120140D01*
X124731Y120057D01*
X124823Y119964D01*
X124833Y119955D01*
X124842Y119936D01*
X124870Y119909D01*
X124897Y119862D01*
X124934Y119807D01*
X124971Y119742D01*
X125018Y119668D01*
X125064Y119576D01*
X125110Y119474D01*
X125156Y119363D01*
X125193Y119243D01*
X125230Y119114D01*
X125258Y118975D01*
X125286Y118827D01*
X125295Y118670D01*
X125304Y118503D01*
Y118411D01*
X125295Y118346D01*
X125286Y118272D01*
X125276Y118180D01*
X125258Y118078D01*
X125239Y117976D01*
X125175Y117736D01*
X125082Y117495D01*
X125027Y117375D01*
X124962Y117255D01*
X124879Y117144D01*
X124786Y117043D01*
X124777Y117033D01*
X124768Y117015D01*
X124731Y116996D01*
X124694Y116959D01*
X124648Y116913D01*
X124583Y116867D01*
X124518Y116821D01*
X124435Y116765D01*
X124259Y116673D01*
X124038Y116580D01*
X123927Y116543D01*
X123797Y116525D01*
X123668Y116506D01*
X123529Y116497D01*
X123511D01*
X123464D01*
X123390Y116506D01*
X123289Y116516D01*
X123178Y116534D01*
X123048Y116571D01*
X122910Y116608D01*
X122771Y116663D01*
X122752Y116673D01*
X122706Y116691D01*
X122632Y116728D01*
X122530Y116784D01*
X122420Y116858D01*
X122281Y116950D01*
X122142Y117061D01*
X121985Y117190D01*
X121966Y117209D01*
X121911Y117255D01*
X121865Y117301D01*
X121819Y117348D01*
X121763Y117403D01*
X121689Y117477D01*
X121615Y117551D01*
X121532Y117643D01*
X121440Y117736D01*
X121338Y117847D01*
X121236Y117967D01*
X121116Y118097D01*
X120996Y118244D01*
X120866Y118392D01*
X120857Y118402D01*
X120839Y118420D01*
X120811Y118457D01*
X120774Y118503D01*
X120718Y118559D01*
X120663Y118624D01*
X120543Y118771D01*
X120404Y118929D01*
X120265Y119076D01*
X120145Y119206D01*
X120099Y119261D01*
X120053Y119308D01*
X120043Y119317D01*
X120016Y119345D01*
X119979Y119382D01*
X119923Y119428D01*
X119859Y119474D01*
X119794Y119530D01*
X119637Y119641D01*
Y116488D01*
X118878D01*
Y120731D01*
X118888D01*
X118925D01*
X118980D01*
X119054Y120722D01*
D02*
G37*
G36*
X283258Y260542D02*
X283249Y260468D01*
Y260385D01*
X283239Y260191D01*
X283212Y259988D01*
X283184Y259766D01*
X283138Y259562D01*
X283110Y259461D01*
X283082Y259377D01*
Y259368D01*
X283073Y259359D01*
X283045Y259303D01*
X283008Y259220D01*
X282943Y259118D01*
X282860Y259007D01*
X282749Y258887D01*
X282620Y258776D01*
X282472Y258665D01*
X282463D01*
X282453Y258656D01*
X282398Y258619D01*
X282306Y258582D01*
X282185Y258527D01*
X282047Y258480D01*
X281880Y258434D01*
X281705Y258407D01*
X281510Y258397D01*
X281501D01*
X281483D01*
X281446D01*
X281399Y258407D01*
X281335D01*
X281270Y258416D01*
X281113Y258453D01*
X280928Y258508D01*
X280734Y258582D01*
X280540Y258693D01*
X280447Y258767D01*
X280355Y258841D01*
X280345Y258850D01*
X280336Y258860D01*
X280308Y258887D01*
X280281Y258924D01*
X280244Y258971D01*
X280207Y259026D01*
X280161Y259100D01*
X280105Y259174D01*
X280059Y259266D01*
X280013Y259368D01*
X279957Y259479D01*
X279911Y259599D01*
X279874Y259738D01*
X279828Y259877D01*
X279800Y260034D01*
X279772Y260200D01*
X279763Y260182D01*
X279744Y260145D01*
X279708Y260089D01*
X279671Y260015D01*
X279569Y259849D01*
X279504Y259766D01*
X279449Y259692D01*
X279430Y259673D01*
X279384Y259627D01*
X279310Y259553D01*
X279217Y259461D01*
X279088Y259359D01*
X278949Y259239D01*
X278783Y259118D01*
X278598Y258989D01*
X276860Y257889D01*
Y258943D01*
X278191Y259784D01*
X278200D01*
X278219Y259803D01*
X278247Y259821D01*
X278284Y259849D01*
X278385Y259914D01*
X278515Y259997D01*
X278654Y260098D01*
X278801Y260200D01*
X278940Y260302D01*
X279070Y260394D01*
X279079Y260404D01*
X279116Y260431D01*
X279171Y260478D01*
X279236Y260542D01*
X279375Y260681D01*
X279439Y260755D01*
X279495Y260829D01*
X279504Y260838D01*
X279513Y260857D01*
X279532Y260894D01*
X279560Y260949D01*
X279587Y261005D01*
X279615Y261069D01*
X279661Y261217D01*
Y261226D01*
X279671Y261245D01*
Y261282D01*
X279680Y261328D01*
X279689Y261393D01*
Y261467D01*
X279698Y261569D01*
Y262659D01*
X276860D01*
Y263510D01*
X283258D01*
Y260542D01*
D02*
G37*
G36*
X281677Y256779D02*
X281695Y256761D01*
X281705Y256724D01*
X281732Y256678D01*
X281760Y256622D01*
X281797Y256557D01*
X281889Y256400D01*
X281991Y256215D01*
X282121Y256030D01*
X282269Y255836D01*
X282426Y255642D01*
X282435Y255633D01*
X282444Y255624D01*
X282472Y255596D01*
X282500Y255559D01*
X282592Y255476D01*
X282703Y255365D01*
X282833Y255254D01*
X282980Y255134D01*
X283128Y255032D01*
X283286Y254939D01*
Y254431D01*
X276860D01*
Y255217D01*
X281862D01*
X281852Y255226D01*
X281815Y255272D01*
X281760Y255328D01*
X281695Y255420D01*
X281612Y255522D01*
X281520Y255651D01*
X281418Y255799D01*
X281316Y255966D01*
Y255975D01*
X281307Y255984D01*
X281270Y256040D01*
X281224Y256132D01*
X281168Y256243D01*
X281104Y256373D01*
X281039Y256511D01*
X280974Y256650D01*
X280919Y256789D01*
X281677D01*
Y256779D01*
D02*
G37*
G36*
X111760Y326049D02*
X111751D01*
X111714D01*
X111658D01*
X111584Y326059D01*
X111501Y326068D01*
X111409Y326087D01*
X111316Y326105D01*
X111215Y326142D01*
X111205D01*
X111196Y326151D01*
X111141Y326170D01*
X111057Y326207D01*
X110947Y326262D01*
X110817Y326336D01*
X110669Y326429D01*
X110521Y326530D01*
X110364Y326660D01*
X110355D01*
X110345Y326678D01*
X110290Y326724D01*
X110207Y326808D01*
X110087Y326928D01*
X109948Y327066D01*
X109782Y327242D01*
X109597Y327455D01*
X109402Y327686D01*
X109393Y327695D01*
X109366Y327732D01*
X109319Y327788D01*
X109264Y327852D01*
X109190Y327936D01*
X109107Y328037D01*
X109014Y328139D01*
X108912Y328259D01*
X108691Y328490D01*
X108469Y328722D01*
X108358Y328832D01*
X108247Y328934D01*
X108145Y329027D01*
X108043Y329101D01*
X108034D01*
X108025Y329119D01*
X107997Y329137D01*
X107960Y329156D01*
X107858Y329221D01*
X107738Y329295D01*
X107590Y329359D01*
X107433Y329424D01*
X107257Y329461D01*
X107091Y329480D01*
X107082D01*
X107073D01*
X107017Y329470D01*
X106925Y329461D01*
X106823Y329433D01*
X106693Y329396D01*
X106564Y329332D01*
X106435Y329249D01*
X106305Y329137D01*
X106287Y329119D01*
X106250Y329073D01*
X106203Y329008D01*
X106139Y328906D01*
X106083Y328777D01*
X106028Y328629D01*
X105991Y328453D01*
X105982Y328259D01*
Y328204D01*
X105991Y328167D01*
X106000Y328056D01*
X106028Y327926D01*
X106065Y327788D01*
X106130Y327631D01*
X106213Y327483D01*
X106324Y327344D01*
X106342Y327325D01*
X106388Y327288D01*
X106462Y327233D01*
X106573Y327178D01*
X106703Y327113D01*
X106869Y327057D01*
X107054Y327020D01*
X107267Y327002D01*
X107184Y326197D01*
X107174D01*
X107147Y326207D01*
X107100D01*
X107036Y326216D01*
X106962Y326234D01*
X106878Y326253D01*
X106777Y326281D01*
X106675Y326308D01*
X106453Y326382D01*
X106231Y326493D01*
X106120Y326558D01*
X106009Y326641D01*
X105908Y326724D01*
X105815Y326817D01*
X105806Y326826D01*
X105797Y326845D01*
X105769Y326872D01*
X105741Y326919D01*
X105704Y326974D01*
X105667Y327039D01*
X105621Y327113D01*
X105575Y327205D01*
X105528Y327307D01*
X105482Y327418D01*
X105445Y327538D01*
X105408Y327668D01*
X105381Y327806D01*
X105353Y327954D01*
X105344Y328111D01*
X105334Y328278D01*
Y328370D01*
X105344Y328435D01*
X105353Y328509D01*
X105362Y328601D01*
X105381Y328703D01*
X105399Y328805D01*
X105464Y329045D01*
X105556Y329286D01*
X105612Y329406D01*
X105676Y329526D01*
X105760Y329637D01*
X105852Y329739D01*
X105861Y329748D01*
X105871Y329766D01*
X105908Y329785D01*
X105945Y329822D01*
X105991Y329868D01*
X106055Y329914D01*
X106120Y329960D01*
X106203Y330016D01*
X106379Y330108D01*
X106601Y330201D01*
X106712Y330238D01*
X106841Y330256D01*
X106971Y330275D01*
X107109Y330284D01*
X107128D01*
X107174D01*
X107248Y330275D01*
X107350Y330266D01*
X107461Y330247D01*
X107590Y330210D01*
X107729Y330173D01*
X107868Y330118D01*
X107886Y330108D01*
X107932Y330090D01*
X108006Y330053D01*
X108108Y329997D01*
X108219Y329923D01*
X108358Y329831D01*
X108496Y329720D01*
X108654Y329591D01*
X108672Y329572D01*
X108728Y329526D01*
X108774Y329480D01*
X108820Y329433D01*
X108875Y329378D01*
X108949Y329304D01*
X109023Y329230D01*
X109107Y329137D01*
X109199Y329045D01*
X109301Y328934D01*
X109402Y328814D01*
X109523Y328685D01*
X109643Y328537D01*
X109772Y328389D01*
X109782Y328379D01*
X109800Y328361D01*
X109828Y328324D01*
X109865Y328278D01*
X109920Y328222D01*
X109976Y328158D01*
X110096Y328010D01*
X110235Y327852D01*
X110373Y327705D01*
X110493Y327575D01*
X110540Y327520D01*
X110586Y327473D01*
X110595Y327464D01*
X110623Y327436D01*
X110660Y327399D01*
X110715Y327353D01*
X110780Y327307D01*
X110845Y327251D01*
X111002Y327141D01*
Y330293D01*
X111760D01*
Y326049D01*
D02*
G37*
G36*
Y324607D02*
X110429Y323766D01*
X110420D01*
X110401Y323747D01*
X110373Y323729D01*
X110336Y323701D01*
X110235Y323636D01*
X110105Y323553D01*
X109966Y323451D01*
X109818Y323350D01*
X109680Y323248D01*
X109550Y323156D01*
X109541Y323146D01*
X109504Y323119D01*
X109449Y323072D01*
X109384Y323008D01*
X109245Y322869D01*
X109181Y322795D01*
X109125Y322721D01*
X109116Y322712D01*
X109107Y322693D01*
X109088Y322656D01*
X109060Y322601D01*
X109033Y322545D01*
X109005Y322481D01*
X108959Y322333D01*
Y322323D01*
X108949Y322305D01*
Y322268D01*
X108940Y322222D01*
X108931Y322157D01*
Y322083D01*
X108922Y321981D01*
Y320891D01*
X111760D01*
Y320040D01*
X105362D01*
Y323008D01*
X105371Y323082D01*
Y323165D01*
X105381Y323359D01*
X105408Y323562D01*
X105436Y323784D01*
X105482Y323988D01*
X105510Y324089D01*
X105538Y324173D01*
Y324182D01*
X105547Y324191D01*
X105575Y324247D01*
X105612Y324330D01*
X105676Y324431D01*
X105760Y324543D01*
X105871Y324663D01*
X106000Y324774D01*
X106148Y324885D01*
X106157D01*
X106166Y324894D01*
X106222Y324931D01*
X106314Y324968D01*
X106435Y325023D01*
X106573Y325070D01*
X106740Y325116D01*
X106915Y325143D01*
X107109Y325153D01*
X107119D01*
X107137D01*
X107174D01*
X107220Y325143D01*
X107285D01*
X107350Y325134D01*
X107507Y325097D01*
X107692Y325042D01*
X107886Y324968D01*
X108080Y324857D01*
X108173Y324783D01*
X108265Y324709D01*
X108274Y324700D01*
X108284Y324690D01*
X108312Y324663D01*
X108339Y324626D01*
X108376Y324580D01*
X108413Y324524D01*
X108459Y324450D01*
X108515Y324376D01*
X108561Y324284D01*
X108607Y324182D01*
X108663Y324071D01*
X108709Y323951D01*
X108746Y323812D01*
X108792Y323673D01*
X108820Y323516D01*
X108848Y323350D01*
X108857Y323368D01*
X108875Y323405D01*
X108912Y323461D01*
X108949Y323535D01*
X109051Y323701D01*
X109116Y323784D01*
X109171Y323858D01*
X109190Y323877D01*
X109236Y323923D01*
X109310Y323997D01*
X109402Y324089D01*
X109532Y324191D01*
X109671Y324311D01*
X109837Y324431D01*
X110022Y324561D01*
X111760Y325661D01*
Y324607D01*
D02*
G37*
G36*
X124962Y199052D02*
X119960D01*
X119969Y199043D01*
X120006Y198997D01*
X120061Y198941D01*
X120126Y198849D01*
X120209Y198747D01*
X120302Y198618D01*
X120403Y198470D01*
X120505Y198303D01*
Y198294D01*
X120514Y198285D01*
X120551Y198229D01*
X120598Y198137D01*
X120653Y198026D01*
X120718Y197896D01*
X120782Y197758D01*
X120847Y197619D01*
X120903Y197480D01*
X120145D01*
Y197490D01*
X120126Y197508D01*
X120117Y197545D01*
X120089Y197591D01*
X120061Y197647D01*
X120024Y197712D01*
X119932Y197869D01*
X119830Y198054D01*
X119701Y198239D01*
X119553Y198433D01*
X119396Y198627D01*
X119386Y198636D01*
X119377Y198645D01*
X119349Y198673D01*
X119322Y198710D01*
X119229Y198793D01*
X119118Y198904D01*
X118989Y199015D01*
X118841Y199135D01*
X118693Y199237D01*
X118536Y199329D01*
Y199838D01*
X124962D01*
Y199052D01*
D02*
G37*
G36*
X122983Y196149D02*
X123038Y196131D01*
X123112Y196103D01*
X123196Y196075D01*
X123297Y196038D01*
X123408Y195992D01*
X123528Y195936D01*
X123787Y195807D01*
X124046Y195641D01*
X124176Y195539D01*
X124305Y195437D01*
X124416Y195326D01*
X124527Y195197D01*
X124536Y195187D01*
X124555Y195169D01*
X124573Y195123D01*
X124610Y195077D01*
X124656Y195003D01*
X124703Y194929D01*
X124749Y194827D01*
X124795Y194725D01*
X124851Y194605D01*
X124897Y194476D01*
X124943Y194337D01*
X124989Y194189D01*
X125026Y194032D01*
X125045Y193865D01*
X125063Y193690D01*
X125072Y193505D01*
Y193403D01*
X125063Y193329D01*
Y193246D01*
X125054Y193144D01*
X125035Y193033D01*
X125017Y192904D01*
X124971Y192636D01*
X124897Y192358D01*
X124795Y192081D01*
X124730Y191952D01*
X124656Y191822D01*
X124647Y191813D01*
X124638Y191794D01*
X124610Y191757D01*
X124573Y191720D01*
X124536Y191665D01*
X124481Y191600D01*
X124416Y191526D01*
X124342Y191452D01*
X124259Y191378D01*
X124176Y191295D01*
X123963Y191129D01*
X123713Y190972D01*
X123436Y190833D01*
X123427D01*
X123399Y190814D01*
X123353Y190805D01*
X123297Y190777D01*
X123223Y190759D01*
X123131Y190731D01*
X123029Y190694D01*
X122918Y190666D01*
X122798Y190639D01*
X122659Y190602D01*
X122373Y190555D01*
X122049Y190518D01*
X121716Y190500D01*
X121707D01*
X121670D01*
X121615D01*
X121550Y190509D01*
X121457D01*
X121365Y190518D01*
X121245Y190528D01*
X121125Y190546D01*
X120857Y190592D01*
X120561Y190657D01*
X120265Y190750D01*
X119978Y190879D01*
X119969Y190888D01*
X119941Y190898D01*
X119904Y190916D01*
X119858Y190953D01*
X119793Y190990D01*
X119719Y191036D01*
X119553Y191156D01*
X119368Y191314D01*
X119183Y191499D01*
X118998Y191711D01*
X118841Y191961D01*
X118832Y191970D01*
X118822Y191998D01*
X118804Y192035D01*
X118776Y192081D01*
X118749Y192155D01*
X118721Y192229D01*
X118684Y192321D01*
X118647Y192423D01*
X118610Y192534D01*
X118573Y192654D01*
X118517Y192913D01*
X118471Y193209D01*
X118453Y193514D01*
Y193606D01*
X118462Y193671D01*
X118471Y193755D01*
X118480Y193856D01*
X118490Y193958D01*
X118517Y194078D01*
X118573Y194328D01*
X118656Y194605D01*
X118712Y194744D01*
X118776Y194873D01*
X118859Y195003D01*
X118943Y195132D01*
X118952Y195141D01*
X118961Y195160D01*
X118989Y195197D01*
X119035Y195243D01*
X119081Y195289D01*
X119146Y195354D01*
X119220Y195419D01*
X119294Y195493D01*
X119386Y195567D01*
X119497Y195641D01*
X119608Y195724D01*
X119728Y195798D01*
X119867Y195862D01*
X120006Y195936D01*
X120154Y195992D01*
X120320Y196047D01*
X120514Y195215D01*
X120505D01*
X120487Y195206D01*
X120450Y195187D01*
X120403Y195169D01*
X120348Y195151D01*
X120274Y195123D01*
X120126Y195049D01*
X119960Y194956D01*
X119793Y194845D01*
X119636Y194707D01*
X119497Y194559D01*
X119479Y194540D01*
X119442Y194485D01*
X119396Y194392D01*
X119331Y194272D01*
X119276Y194115D01*
X119220Y193939D01*
X119183Y193727D01*
X119174Y193496D01*
Y193422D01*
X119183Y193375D01*
Y193311D01*
X119192Y193237D01*
X119220Y193061D01*
X119257Y192867D01*
X119322Y192663D01*
X119414Y192451D01*
X119534Y192257D01*
Y192247D01*
X119553Y192238D01*
X119599Y192174D01*
X119673Y192090D01*
X119784Y191989D01*
X119923Y191868D01*
X120080Y191757D01*
X120274Y191656D01*
X120487Y191563D01*
X120496D01*
X120514Y191554D01*
X120542Y191545D01*
X120588Y191535D01*
X120644Y191517D01*
X120709Y191499D01*
X120866Y191471D01*
X121051Y191434D01*
X121254Y191397D01*
X121476Y191378D01*
X121716Y191369D01*
X121726D01*
X121753D01*
X121799D01*
X121855D01*
X121920Y191378D01*
X122003D01*
X122095Y191388D01*
X122197Y191397D01*
X122419Y191425D01*
X122659Y191471D01*
X122900Y191526D01*
X123140Y191600D01*
X123149D01*
X123168Y191609D01*
X123196Y191628D01*
X123242Y191646D01*
X123353Y191702D01*
X123482Y191785D01*
X123630Y191887D01*
X123787Y192016D01*
X123926Y192164D01*
X124055Y192340D01*
Y192349D01*
X124065Y192368D01*
X124083Y192395D01*
X124102Y192432D01*
X124120Y192479D01*
X124148Y192534D01*
X124203Y192663D01*
X124259Y192830D01*
X124305Y193015D01*
X124342Y193218D01*
X124351Y193431D01*
Y193496D01*
X124342Y193551D01*
Y193616D01*
X124333Y193680D01*
X124296Y193847D01*
X124250Y194041D01*
X124176Y194235D01*
X124074Y194439D01*
X124018Y194540D01*
X123945Y194633D01*
X123935Y194642D01*
X123926Y194651D01*
X123898Y194679D01*
X123870Y194716D01*
X123824Y194753D01*
X123769Y194799D01*
X123713Y194855D01*
X123639Y194901D01*
X123556Y194956D01*
X123464Y195021D01*
X123371Y195077D01*
X123260Y195132D01*
X123140Y195178D01*
X123011Y195224D01*
X122872Y195271D01*
X122724Y195308D01*
X122937Y196158D01*
X122946D01*
X122983Y196149D01*
D02*
G37*
%LPC*%
G36*
X339254Y63041D02*
X337239Y60174D01*
X339254D01*
Y63041D01*
D02*
G37*
G36*
X282546Y262659D02*
X280429D01*
Y260755D01*
X280438Y260644D01*
X280447Y260515D01*
X280456Y260367D01*
X280475Y260219D01*
X280503Y260071D01*
X280540Y259941D01*
X280549Y259923D01*
X280567Y259886D01*
X280595Y259830D01*
X280632Y259756D01*
X280688Y259673D01*
X280752Y259590D01*
X280835Y259507D01*
X280928Y259442D01*
X280937Y259433D01*
X280974Y259414D01*
X281030Y259387D01*
X281104Y259350D01*
X281187Y259322D01*
X281279Y259294D01*
X281390Y259276D01*
X281501Y259266D01*
X281510D01*
X281520D01*
X281575Y259276D01*
X281658Y259285D01*
X281769Y259303D01*
X281880Y259350D01*
X282010Y259405D01*
X282130Y259488D01*
X282250Y259599D01*
X282259Y259618D01*
X282296Y259664D01*
X282342Y259738D01*
X282398Y259858D01*
X282453Y259997D01*
X282500Y260182D01*
X282537Y260394D01*
X282546Y260644D01*
Y262659D01*
D02*
G37*
G36*
X107119Y324284D02*
X107109D01*
X107100D01*
X107045Y324274D01*
X106962Y324265D01*
X106851Y324247D01*
X106740Y324200D01*
X106610Y324145D01*
X106490Y324062D01*
X106370Y323951D01*
X106361Y323932D01*
X106324Y323886D01*
X106277Y323812D01*
X106222Y323692D01*
X106166Y323553D01*
X106120Y323368D01*
X106083Y323156D01*
X106074Y322906D01*
Y320891D01*
X108191D01*
Y322795D01*
X108182Y322906D01*
X108173Y323035D01*
X108163Y323183D01*
X108145Y323331D01*
X108117Y323479D01*
X108080Y323609D01*
X108071Y323627D01*
X108053Y323664D01*
X108025Y323720D01*
X107988Y323794D01*
X107932Y323877D01*
X107868Y323960D01*
X107785Y324043D01*
X107692Y324108D01*
X107683Y324117D01*
X107646Y324136D01*
X107590Y324163D01*
X107516Y324200D01*
X107433Y324228D01*
X107341Y324256D01*
X107230Y324274D01*
X107119Y324284D01*
D02*
G37*
%LPD*%
D12*
X260360Y328010D02*
X293360D01*
X260360Y199010D02*
Y328010D01*
Y199010D02*
X293360D01*
Y328010D01*
X95260Y255540D02*
X128260D01*
Y384540D01*
X95260D02*
X128260D01*
X95260Y255540D02*
Y384540D01*
M02*
