G04*
G04 #@! TF.GenerationSoftware,Altium Limited,Altium Designer,23.4.1 (23)*
G04*
G04 Layer_Color=16711935*
%FSLAX44Y44*%
%MOMM*%
G71*
G04*
G04 #@! TF.SameCoordinates,99EBD1B5-C4FE-4FA8-BA42-E2C8A1C5BD1C*
G04*
G04*
G04 #@! TF.FilePolarity,Positive*
G04*
G01*
G75*
%ADD12C,0.2000*%
%ADD14C,0.1270*%
%ADD40C,0.1000*%
D12*
X277860Y195650D02*
G03*
X277860Y195650I-1000J0D01*
G01*
D14*
X82992Y191048D02*
G03*
X61372Y214232I-22402J782D01*
G01*
Y100728D02*
G03*
X82992Y123912I-782J22402D01*
G01*
X36388Y124037D02*
G03*
X61383Y100728I24152J843D01*
G01*
Y214232D02*
G03*
X36388Y190923I-843J-24152D01*
G01*
X288660Y102555D02*
Y148905D01*
X265060Y102555D02*
Y148905D01*
X276860D02*
X288660D01*
X265060D02*
X276860D01*
X265060Y102555D02*
X276860D01*
X288660D01*
X276860Y148905D02*
Y177700D01*
Y73760D02*
Y102555D01*
X82990Y123980D02*
Y190980D01*
X36390Y123980D02*
Y190980D01*
D40*
X183740Y394830D02*
G03*
X183740Y394830I-5000J0D01*
G01*
X408940Y180340D02*
Y281940D01*
X383540Y180340D02*
Y281940D01*
X408940D01*
X383540Y180340D02*
X408940D01*
X370840Y181610D02*
Y283210D01*
X345440Y181610D02*
Y283210D01*
X370840D01*
X345440Y181610D02*
X370840D01*
X406400Y309880D02*
Y411480D01*
X381000Y309880D02*
Y411480D01*
X406400D01*
X381000Y309880D02*
X406400D01*
X169740Y50830D02*
X241740D01*
X169740Y403830D02*
X241740D01*
Y50830D02*
Y403830D01*
X169740Y50830D02*
Y403830D01*
M02*
