M48
;Layer_Color=9474304
;FILE_FORMAT=4:4
METRIC,LZ
;TYPE=PLATED
T1F00S00C0.6300
T2F00S00C0.7000
T3F00S00C0.7620
T4F00S00C0.9000
T5F00S00C1.0000
T6F00S00C1.0600
T7F00S00C1.1000
%
T01
X0005969Y0013308
Y0018188
T02
X0012065Y00117
Y00137
X0032036Y0005969
X0034036
X003837
X004037
X0012319Y001805
Y002005
T03
X0003302Y0037973
X000635
X00064861Y0041783
T04
X0016764Y0006223
Y0008763
Y0011303
Y0013843
X0024384
Y0011303
Y0008763
Y0006223
Y0016383
Y0018923
Y0021463
Y0024003
Y0026543
Y0029083
Y0031623
Y0034163
Y0036703
Y0039243
X0016764
Y0036703
Y0034163
Y0031623
Y0029083
Y0026543
Y0024003
Y0021463
Y0018923
Y0016383
X0027686Y0020701
Y0032001
X0011176Y0026354
Y0037654
T05
X0034925Y0013081
X0037465
X0040005
T06
X0027686Y0007376
Y001777
T07
X0035814Y0019431
Y0021971
Y0024511
Y0027051
X0039624Y0026924
Y0024384
Y0021844
Y0019304
X003937Y0032258
Y0034798
Y0037338
Y0039878
M30
